Muli-LightItalic.ufo
<glyph name="exclam" format="2">
  <advance width="219.46987951807228"/>
  <unicode hex="0021"/>
  <outline>
    <contour>
      <point x="78.4578313253012" y="172.75903614457832" type="line"/>
      <point x="116.6746987951807" y="172.75903614457832" type="line"/>
      <point x="219.79518072289156" y="705.0" type="line"/>
      <point x="143.67469879518072" y="705.0" type="line"/>
    </contour>
    <contour>
      <point x="27.108433734939766" y="0.0" type="line"/>
      <point x="112.36144578313252" y="0.0" type="line"/>
      <point x="125.87951807228914" y="85.79518072289156" type="line"/>
      <point x="40.62650602409639" y="85.79518072289156" type="line"/>
    </contour>
  </outline>
</glyph>
<glyph name="numbersign" format="2">
  <advance width="600.0"/>
  <unicode hex="0023"/>
  <outline>
    <contour>
      <point x="49.566265060240966" y="0.0" type="line"/>
      <point x="103.63855421686748" y="0.0" type="line"/>
      <point x="169.80722891566265" y="186.65060240963857" type="line"/>
      <point x="339.2168674698795" y="186.65060240963857" type="line"/>
      <point x="271.8192771084337" y="0.0" type="line"/>
      <point x="325.89156626506025" y="0.0" type="line"/>
      <point x="393.0602409638554" y="186.65060240963857" type="line"/>
      <point x="541.8795180722892" y="186.65060240963857" type="line"/>
      <point x="550.2530120481928" y="235.80722891566265" type="line"/>
      <point x="410.4939759036145" y="235.80722891566265" type="line"/>
      <point x="498.0602409638554" y="477.1927710843373" type="line"/>
      <point x="609.1084337349398" y="477.1927710843373" type="line"/>
      <point x="616.4819277108434" y="526.5783132530121" type="line"/>
      <point x="515.4939759036145" y="526.5783132530121" type="line"/>
      <point x="579.8915662650602" y="705.0" type="line"/>
      <point x="526.0481927710844" y="705.0" type="line"/>
      <point x="462.421686746988" y="526.5783132530121" type="line"/>
      <point x="292.01204819277115" y="526.5783132530121" type="line"/>
      <point x="355.6385542168675" y="705.0" type="line"/>
      <point x="303.3373493975904" y="705.0" type="line"/>
      <point x="238.93975903614458" y="526.5783132530121" type="line"/>
      <point x="90.34939759036145" y="526.5783132530121" type="line"/>
      <point x="82.97590361445783" y="477.1927710843373" type="line"/>
      <point x="221.50602409638554" y="477.1927710843373" type="line"/>
      <point x="133.93975903614458" y="235.80722891566265" type="line"/>
      <point x="23.89156626506024" y="235.80722891566265" type="line"/>
      <point x="15.518072289156628" y="186.65060240963857" type="line"/>
      <point x="116.73493975903614" y="186.65060240963857" type="line"/>
    </contour>
    <contour>
      <point x="187.24096385542168" y="235.80722891566265" type="line"/>
      <point x="274.578313253012" y="477.1927710843373" type="line"/>
      <point x="444.7590361445783" y="477.1927710843373" type="line"/>
      <point x="357.421686746988" y="235.80722891566265" type="line"/>
    </contour>
  </outline>
</glyph>
<glyph name="dollar" format="2">
  <advance width="600.0"/>
  <unicode hex="0024"/>
  <outline>
    <contour>
      <point x="225.13253012048193" y="-115.0" type="line"/>
      <point x="278.86746987951807" y="-115.0" type="line"/>
      <point x="299.09638554216866" y="11.602409638554217" type="line"/>
      <point x="281.49397590361446" y="-4.0" type="line"/>
      <point x="421.49397590361446" y="2.831325301204819"/>
      <point x="515.867469879518" y="71.06024096385542"/>
      <point x="532.3253012048192" y="175.34939759036143" type="curve" smooth="yes"/>
      <point x="548.5542168674698" y="276.9518072289157"/>
      <point x="494.2409638554217" y="339.32530120481925"/>
      <point x="368.4096385542168" y="362.4698795180723" type="curve" smooth="yes"/>
      <point x="276.1807228915663" y="379.15662650602405" type="line" smooth="yes"/>
      <point x="188.2168674698795" y="394.6987951807229"/>
      <point x="155.73493975903614" y="440.34939759036143"/>
      <point x="167.59036144578312" y="513.2530120481928" type="curve" smooth="yes"/>
      <point x="181.44578313253012" y="600.2409638554217"/>
      <point x="259.72289156626505" y="653.1204819277109"/>
      <point x="368.144578313253" y="653.1204819277109" type="curve" smooth="yes"/>
      <point x="448.0843373493976" y="653.1204819277109"/>
      <point x="507.7710843373494" y="629.0361445783133"/>
      <point x="553.0843373493975" y="582.3253012048193" type="curve"/>
      <point x="583.8915662650603" y="630.289156626506" type="line"/>
      <point x="537.8072289156627" y="678.4578313253012"/>
      <point x="467.12048192771084" y="706.0"/>
      <point x="398.89156626506025" y="708.4578313253012" type="curve"/>
      <point x="406.6385542168675" y="695.5421686746988" type="line"/>
      <point x="426.86746987951807" y="820.0" type="line"/>
      <point x="373.13253012048193" y="820.0" type="line"/>
      <point x="352.90361445783134" y="695.5421686746988" type="line"/>
      <point x="363.56626506024094" y="709.0" type="line"/>
      <point x="227.59036144578315" y="704.9397590361446"/>
      <point x="127.04819277108435" y="633.9397590361446"/>
      <point x="108.59036144578313" y="517.8795180722892" type="curve" smooth="yes"/>
      <point x="91.59036144578313" y="412.65060240963857"/>
      <point x="144.02409638554215" y="343.27710843373495"/>
      <point x="257.56626506024094" y="322.5903614457831" type="curve" smooth="yes"/>
      <point x="349.79518072289153" y="305.90361445783134" type="line" smooth="yes"/>
      <point x="447.3855421686747" y="288.8192771084337"/>
      <point x="482.6385542168675" y="247.25301204819277"/>
      <point x="471.55421686746985" y="179.66265060240966" type="curve" smooth="yes"/>
      <point x="459.69879518072287" y="104.53012048192771"/>
      <point x="391.1927710843374" y="51.87951807228916"/>
      <point x="279.2289156626506" y="51.87951807228916" type="curve" smooth="yes"/>
      <point x="172.89156626506022" y="51.87951807228916"/>
      <point x="110.9156626506024" y="76.87951807228914"/>
      <point x="55.37349397590362" y="119.73493975903615" type="curve"/>
      <point x="24.65060240963855" y="71.62650602409639" type="line"/>
      <point x="79.42168674698794" y="22.0"/>
      <point x="173.33734939759037" y="-0.2289156626506022"/>
      <point x="258.566265060241" y="-4.457831325301205" type="curve"/>
      <point x="244.36144578313252" y="10.602409638554217" type="line"/>
    </contour>
  </outline>
</glyph>
<glyph name="ampersand" format="2">
  <advance width="662.4397590361446"/>
  <unicode hex="0026"/>
  <outline>
    <contour>
      <point x="607.7469879518072" y="-8.457831325301205" type="curve"/>
      <point x="639.3855421686748" y="37.59036144578313" type="line"/>
      <point x="586.0722891566265" y="66.8433734939759"/>
      <point x="540.2168674698796" y="112.72289156626506"/>
      <point x="513.3012048192771" y="149.72289156626505" type="curve"/>
      <point x="519.8433734939758" y="128.97590361445782" type="line"/>
      <point x="571.8192771084338" y="199.89156626506025"/>
      <point x="615.2771084337348" y="296.8072289156627"/>
      <point x="636.5060240963855" y="408.34939759036143" type="curve"/>
      <point x="579.3975903614457" y="408.34939759036143" type="line"/>
      <point x="562.6265060240964" y="315.0120481927711"/>
      <point x="526.7710843373494" y="227.44578313253012"/>
      <point x="483.77108433734935" y="171.67469879518072" type="curve"/>
      <point x="493.89156626506025" y="171.67469879518072" type="line"/>
      <point x="327.6144578313253" y="395.0843373493976" type="line"/>
      <point x="329.2409638554217" y="375.79518072289153" type="line"/>
      <point x="460.12048192771084" y="450.2168674698795"/>
      <point x="503.6385542168675" y="505.04819277108436"/>
      <point x="514.6385542168675" y="571.7349397590361" type="curve" smooth="yes"/>
      <point x="528.3253012048193" y="660.3975903614457"/>
      <point x="462.49397590361446" y="713.4578313253012"/>
      <point x="374.7710843373494" y="713.4578313253012" type="curve" smooth="yes"/>
      <point x="270.67469879518075" y="713.4578313253012"/>
      <point x="208.15662650602408" y="653.1686746987951"/>
      <point x="195.69879518072287" y="576.7349397590361" type="curve" smooth="yes"/>
      <point x="184.9277108433735" y="509.87951807228916"/>
      <point x="205.46987951807228" y="461.3614457831325"/>
      <point x="258.86746987951807" y="390.48192771084337" type="curve"/>
      <point x="270.2168674698795" y="401.9156626506024" type="line"/>
      <point x="221.36144578313255" y="372.51807228915663" type="line" smooth="yes"/>
      <point x="122.04819277108435" y="312.8072289156627"/>
      <point x="58.81927710843374" y="259.12048192771084"/>
      <point x="45.81927710843374" y="177.12048192771084" type="curve" smooth="yes"/>
      <point x="28.361445783132535" y="69.45783132530121"/>
      <point x="101.9397590361446" y="-8.457831325301205"/>
      <point x="244.60240963855424" y="-8.457831325301205" type="curve" smooth="yes"/>
      <point x="339.83132530120486" y="-8.457831325301205"/>
      <point x="429.28915662650604" y="33.397590361445786"/>
      <point x="496.9156626506025" y="105.65060240963855" type="curve"/>
      <point x="476.0240963855422" y="105.87951807228916" type="line"/>
      <point x="504.00000000000006" y="68.73493975903614"/>
      <point x="550.289156626506" y="22.566265060240966"/>
    </contour>
    <contour>
      <point x="250.49397590361446" y="43.81927710843374" type="curve" smooth="yes"/>
      <point x="143.98795180722894" y="43.81927710843374"/>
      <point x="94.50602409638554" y="95.53012048192771"/>
      <point x="106.81927710843374" y="177.72289156626505" type="curve" smooth="yes"/>
      <point x="117.36144578313252" y="242.51807228915663"/>
      <point x="164.6144578313253" y="279.3734939759036"/>
      <point x="253.66265060240963" y="333.33734939759034" type="curve" smooth="yes"/>
      <point x="301.68674698795184" y="362.8192771084337" type="line"/>
      <point x="276.9879518072289" y="366.5903614457831" type="line"/>
      <point x="460.1566265060241" y="125.83132530120481" type="line"/>
      <point x="464.4457831325301" y="146.57831325301206" type="line"/>
      <point x="406.9638554216868" y="79.8433734939759"/>
      <point x="336.5421686746988" y="43.81927710843374"/>
    </contour>
    <contour>
      <point x="373.6265060240964" y="663.9277108433735" type="curve" smooth="yes"/>
      <point x="433.96385542168673" y="663.9277108433735"/>
      <point x="468.90361445783134" y="627.2168674698795"/>
      <point x="459.3614457831325" y="571.1927710843373" type="curve" smooth="yes"/>
      <point x="450.81927710843377" y="517.0240963855422"/>
      <point x="404.421686746988" y="475.31325301204816"/>
      <point x="296.68674698795184" y="413.34939759036143" type="curve"/>
      <point x="310.5783132530121" y="416.89156626506025" type="line"/>
      <point x="257.32530120481925" y="488.855421686747"/>
      <point x="246.0963855421687" y="517.9397590361446"/>
      <point x="254.63855421686748" y="573.1927710843373" type="curve" smooth="yes"/>
      <point x="262.9518072289157" y="624.2168674698795"/>
      <point x="308.7469879518072" y="663.9277108433735"/>
    </contour>
  </outline>
</glyph>
<glyph name="parenleft" format="2">
  <advance width="300.36746987951807"/>
  <unicode hex="0028"/>
  <outline>
    <contour>
      <point x="139.72289156626505" y="-180.0" type="curve"/>
      <point x="191.91566265060243" y="-180.0" type="line"/>
      <point x="169.9156626506024" y="-84.08433734939759"/>
      <point x="157.45783132530119" y="12.915662650602409"/>
      <point x="157.45783132530119" y="99.5421686746988" type="curve" smooth="yes"/>
      <point x="157.45783132530119" y="327.3132530120482"/>
      <point x="236.3132530120482" y="531.8554216867469"/>
      <point x="342.3975903614458" y="705.0" type="curve"/>
      <point x="283.89156626506025" y="705.0" type="line"/>
      <point x="174.6024096385542" y="551.5180722891566"/>
      <point x="94.0" y="334.9518072289157"/>
      <point x="94.0" y="110.46987951807229" type="curve" smooth="yes"/>
      <point x="94.0" y="14.951807228915658"/>
      <point x="110.37349397590361" y="-82.93975903614458"/>
    </contour>
  </outline>
</glyph>
<glyph name="parenright" format="2">
  <advance width="300.36746987951807"/>
  <unicode hex="0029"/>
  <outline>
    <contour>
      <point x="19.590361445783127" y="-180.0" type="line"/>
      <point x="128.87951807228916" y="-26.518072289156628"/>
      <point x="209.4819277108434" y="190.27710843373492"/>
      <point x="209.4819277108434" y="414.5301204819277" type="curve" smooth="yes"/>
      <point x="209.4819277108434" y="510.277108433735"/>
      <point x="193.10843373493975" y="607.9397590361446"/>
      <point x="163.75903614457832" y="705.0" type="curve"/>
      <point x="111.56626506024095" y="705.0" type="line"/>
      <point x="133.56626506024097" y="609.0843373493975"/>
      <point x="146.02409638554218" y="512.3132530120482"/>
      <point x="146.02409638554218" y="425.4578313253012" type="curve" smooth="yes"/>
      <point x="146.02409638554218" y="197.9156626506024"/>
      <point x="67.16867469879519" y="-6.855421686746986"/>
      <point x="-38.915662650602414" y="-180.0" type="curve"/>
    </contour>
  </outline>
</glyph>
<glyph name="asterisk" format="2">
  <advance width="453.144578313253"/>
  <unicode hex="002A"/>
  <outline>
    <contour>
      <point x="170.97590361445782" y="371.50602409638554" type="line"/>
      <point x="277.54216867469876" y="509.07228915662654" type="line"/>
      <point x="359.0240963855422" y="371.50602409638554" type="line"/>
      <point x="399.03614457831327" y="400.4578313253012" type="line"/>
      <point x="308.4096385542169" y="530.566265060241" type="line"/>
      <point x="470.9759036144578" y="580.277108433735" type="line"/>
      <point x="458.4578313253012" y="626.6626506024097" type="line"/>
      <point x="298.34939759036143" y="570.5783132530121" type="line"/>
      <point x="315.8072289156626" y="736.0" type="line"/>
      <point x="265.1927710843373" y="736.0" type="line"/>
      <point x="256.33734939759034" y="571.1204819277109" type="line"/>
      <point x="104.2289156626506" y="626.6626506024097" type="line"/>
      <point x="86.33734939759036" y="580.277108433735" type="line"/>
      <point x="242.13253012048193" y="531.3373493975903" type="line"/>
      <point x="130.96385542168676" y="400.4578313253012" type="line"/>
    </contour>
  </outline>
</glyph>
<glyph name="plus" format="2">
  <advance width="600.0"/>
  <unicode hex="002B"/>
  <outline>
    <contour>
      <point x="241.04819277108436" y="40.0" type="line"/>
      <point x="292.72289156626505" y="40.0" type="line"/>
      <point x="327.8072289156626" y="261.50602409638554" type="line"/>
      <point x="548.6265060240964" y="261.50602409638554" type="line"/>
      <point x="556.4578313253012" y="311.72289156626505" type="line"/>
      <point x="335.6385542168675" y="311.72289156626505" type="line"/>
      <point x="369.72289156626505" y="528.0" type="line"/>
      <point x="318.04819277108436" y="528.0" type="line"/>
      <point x="283.9638554216868" y="311.72289156626505" type="line"/>
      <point x="61.373493975903614" y="311.72289156626505" type="line"/>
      <point x="53.5421686746988" y="261.50602409638554" type="line"/>
      <point x="276.13253012048193" y="261.50602409638554" type="line"/>
    </contour>
  </outline>
</glyph>
<glyph name="comma" format="2">
  <advance width="219.46987951807228"/>
  <unicode hex="002C"/>
  <outline>
    <contour>
      <point x="47.43373493975904" y="-106.01204819277109" type="line"/>
      <point x="93.07228915662651" y="-68.20481927710844"/>
      <point x="105.59036144578313" y="-33.54216867469879"/>
      <point x="113.50602409638553" y="15.180722891566264" type="curve" smooth="yes"/>
      <point x="124.87951807228914" y="85.79518072289156" type="line"/>
      <point x="39.85542168674699" y="85.79518072289156" type="line"/>
      <point x="26.33734939759037" y="0.0" type="line"/>
      <point x="88.09638554216868" y="0.0" type="line"/>
      <point x="68.03614457831326" y="11.265060240963855" type="line"/>
      <point x="63.12048192771084" y="-19.08433734939759"/>
      <point x="55.602409638554214" y="-42.45783132530121"/>
      <point x="19.626506024096386" y="-76.51807228915662" type="curve"/>
    </contour>
  </outline>
</glyph>
<glyph name="hyphen" format="2">
  <advance width="424.12048192771084"/>
  <unicode hex="002D"/>
  <outline>
    <contour>
      <point x="73.02409638554217" y="247.59036144578315" type="line"/>
      <point x="349.26506024096386" y="247.59036144578315" type="line"/>
      <point x="357.3253012048193" y="299.5542168674699" type="line"/>
      <point x="81.3132530120482" y="299.5542168674699" type="line"/>
    </contour>
  </outline>
</glyph>
<glyph name="period" format="2">
  <advance width="219.46987951807228"/>
  <unicode hex="002E"/>
  <outline>
    <contour>
      <point x="27.108433734939766" y="0.0" type="line"/>
      <point x="112.36144578313252" y="0.0" type="line"/>
      <point x="125.87951807228914" y="85.79518072289156" type="line"/>
      <point x="40.62650602409639" y="85.79518072289156" type="line"/>
    </contour>
  </outline>
</glyph>
<glyph name="slash" format="2">
  <advance width="271.93373493975906"/>
  <unicode hex="002F"/>
  <outline>
    <contour>
      <point x="-13.036144578313255" y="-53.602409638554214" type="line"/>
      <point x="374.48192771084337" y="745.8313253012049" type="line"/>
      <point x="317.6024096385542" y="745.8313253012049" type="line"/>
      <point x="-70.14457831325302" y="-53.602409638554214" type="line"/>
    </contour>
  </outline>
</glyph>
<glyph name="zero" format="2">
  <advance width="600.0"/>
  <unicode hex="0030"/>
  <outline>
    <contour>
      <point x="266.9156626506024" y="-8.457831325301205" type="curve" smooth="yes"/>
      <point x="417.51807228915663" y="-8.457831325301205"/>
      <point x="521.1204819277109" y="103.7710843373494"/>
      <point x="558.1204819277109" y="342.31325301204816" type="curve" smooth="yes"/>
      <point x="596.3493975903615" y="582.9156626506024"/>
      <point x="529.6024096385543" y="713.4578313253012"/>
      <point x="365.855421686747" y="713.4578313253012" type="curve" smooth="yes"/>
      <point x="212.56626506024097" y="713.4578313253012"/>
      <point x="111.10843373493977" y="602.9156626506024"/>
      <point x="73.10843373493977" y="363.6024096385542" type="curve" smooth="yes"/>
      <point x="36.10843373493976" y="124.91566265060241"/>
      <point x="102.25301204819276" y="-8.457831325301205"/>
    </contour>
    <contour>
      <point x="269.51807228915663" y="47.42168674698795" type="curve" smooth="yes"/>
      <point x="146.90361445783134" y="47.42168674698795"/>
      <point x="102.10843373493975" y="144.0120481927711"/>
      <point x="135.19277108433732" y="354.6024096385542" type="curve" smooth="yes"/>
      <point x="168.59036144578312" y="569.6144578313254"/>
      <point x="242.86746987951807" y="657.8072289156627"/>
      <point x="362.48192771084337" y="657.8072289156627" type="curve" smooth="yes"/>
      <point x="485.32530120481925" y="657.8072289156627"/>
      <point x="530.1204819277109" y="563.6746987951807"/>
      <point x="497.03614457831327" y="352.31325301204816" type="curve" smooth="yes"/>
      <point x="463.6385542168675" y="136.30120481927713"/>
      <point x="388.3614457831325" y="47.42168674698795"/>
    </contour>
  </outline>
</glyph>
<glyph name="one" format="2">
  <advance width="600.0"/>
  <unicode hex="0031"/>
  <outline>
    <contour>
      <point x="94.90361445783134" y="0.0" type="line"/>
      <point x="481.61445783132535" y="0.0" type="line"/>
      <point x="490.132530120482" y="54.566265060240966" type="line"/>
      <point x="332.73493975903614" y="54.566265060240966" type="line"/>
      <point x="436.2168674698795" y="705.0" type="line"/>
      <point x="391.2530120481928" y="705.0" type="line"/>
      <point x="204.13253012048193" y="595.7710843373494" type="line"/>
      <point x="194.3855421686747" y="530.9156626506025" type="line"/>
      <point x="400.56626506024094" y="650.289156626506" type="line"/>
      <point x="365.7831325301205" y="650.9759036144578" type="line"/>
      <point x="270.81927710843377" y="54.566265060240966" type="line"/>
      <point x="103.42168674698796" y="54.566265060240966" type="line"/>
    </contour>
  </outline>
</glyph>
<glyph name="two" format="2">
  <advance width="600.0"/>
  <unicode hex="0032"/>
  <outline>
    <contour>
      <point x="50.33734939759036" y="0.0" type="line"/>
      <point x="503.7469879518072" y="0.0" type="line"/>
      <point x="512.2650602409639" y="54.566265060240966" type="line"/>
      <point x="121.39759036144578" y="54.566265060240966" type="line"/>
      <point x="122.93975903614458" y="35.98795180722892" type="line"/>
      <point x="404.28915662650604" y="288.3373493975904" type="line" smooth="yes"/>
      <point x="492.51807228915663" y="367.65060240963857"/>
      <point x="543.2048192771084" y="432.8795180722891"/>
      <point x="556.2048192771084" y="518.8795180722891" type="curve" smooth="yes"/>
      <point x="575.433734939759" y="642.4819277108434"/>
      <point x="498.2048192771084" y="713.4578313253012"/>
      <point x="360.56626506024094" y="713.4578313253012" type="curve" smooth="yes"/>
      <point x="273.65060240963857" y="713.4578313253012"/>
      <point x="177.96385542168676" y="679.3734939759037"/>
      <point x="116.81927710843374" y="627.0602409638554" type="curve"/>
      <point x="141.3975903614458" y="577.3253012048193" type="line"/>
      <point x="209.25301204819277" y="632.4939759036145"/>
      <point x="276.8795180722891" y="657.1204819277109"/>
      <point x="358.5301204819277" y="657.1204819277109" type="curve" smooth="yes"/>
      <point x="458.12048192771084" y="657.1204819277109"/>
      <point x="507.60240963855426" y="609.5542168674699"/>
      <point x="493.51807228915663" y="521.277108433735" type="curve" smooth="yes"/>
      <point x="481.43373493975906" y="448.0"/>
      <point x="441.72289156626505" y="397.7469879518072"/>
      <point x="368.0120481927711" y="330.03614457831327" type="curve" smooth="yes"/>
      <point x="57.626506024096386" y="46.42168674698795" type="line"/>
    </contour>
  </outline>
</glyph>
<glyph name="three" format="2">
  <advance width="600.0"/>
  <unicode hex="0033"/>
  <outline>
    <contour>
      <point x="267.1686746987952" y="-8.457831325301205" type="curve" smooth="yes"/>
      <point x="406.6024096385542" y="-8.457831325301205"/>
      <point x="503.6626506024096" y="57.0"/>
      <point x="522.1204819277108" y="176.51807228915663" type="curve" smooth="yes"/>
      <point x="538.1204819277108" y="277.83132530120486"/>
      <point x="490.9759036144578" y="347.83132530120486"/>
      <point x="393.26506024096386" y="365.144578313253" type="curve"/>
      <point x="392.26506024096386" y="354.6867469879518" type="line"/>
      <point x="481.12048192771084" y="376.2289156626506"/>
      <point x="545.433734939759" y="445.93975903614455"/>
      <point x="557.433734939759" y="524.9397590361446" type="curve" smooth="yes"/>
      <point x="576.433734939759" y="645.3975903614459"/>
      <point x="500.28915662650604" y="713.4578313253012"/>
      <point x="363.33734939759034" y="713.4578313253012" type="curve" smooth="yes"/>
      <point x="270.87951807228916" y="713.4578313253012"/>
      <point x="179.73493975903614" y="682.9156626506025"/>
      <point x="116.81927710843372" y="625.289156626506" type="curve"/>
      <point x="140.6265060240964" y="575.5542168674699" type="line"/>
      <point x="208.02409638554215" y="632.8072289156627"/>
      <point x="276.65060240963857" y="657.1204819277109"/>
      <point x="358.1325301204819" y="657.1204819277109" type="curve" smooth="yes"/>
      <point x="458.72289156626505" y="657.1204819277109"/>
      <point x="509.28915662650604" y="611.0963855421687"/>
      <point x="496.2048192771084" y="528.277108433735" type="curve" smooth="yes"/>
      <point x="481.578313253012" y="436.8313253012048"/>
      <point x="408.8433734939759" y="384.86746987951807"/>
      <point x="308.710843373494" y="384.86746987951807" type="curve" smooth="yes"/>
      <point x="210.56626506024097" y="384.86746987951807" type="line"/>
      <point x="202.27710843373492" y="331.2168674698795" type="line"/>
      <point x="305.3975903614458" y="331.2168674698795" type="line" smooth="yes"/>
      <point x="422.2409638554217" y="331.2168674698795"/>
      <point x="475.8915662650602" y="282.87951807228916"/>
      <point x="461.26506024096386" y="187.66265060240963" type="curve" smooth="yes"/>
      <point x="446.4096385542168" y="89.44578313253012"/>
      <point x="377.9879518072289" y="47.87951807228916"/>
      <point x="270.71084337349396" y="47.87951807228916" type="curve" smooth="yes"/>
      <point x="191.5421686746988" y="47.87951807228916"/>
      <point x="124.2289156626506" y="71.42168674698794"/>
      <point x="65.37349397590361" y="127.90361445783132" type="curve"/>
      <point x="36.10843373493976" y="77.93975903614458" type="line"/>
      <point x="87.65060240963855" y="22.313253012048193"/>
      <point x="174.02409638554218" y="-8.457831325301205"/>
    </contour>
  </outline>
</glyph>
<glyph name="four" format="2">
  <advance width="600.0"/>
  <unicode hex="0034"/>
  <outline>
    <contour>
      <point x="359.95180722891564" y="0.0" type="line"/>
      <point x="420.72289156626505" y="0.0" type="line"/>
      <point x="445.578313253012" y="159.59036144578315" type="line"/>
      <point x="557.3734939759037" y="159.59036144578315" type="line"/>
      <point x="565.6626506024096" y="212.09638554216866" type="line"/>
      <point x="453.86746987951807" y="212.09638554216866" type="line"/>
      <point x="532.722891566265" y="705.0" type="line"/>
      <point x="481.46987951807233" y="705.0" type="line"/>
      <point x="46.795180722891565" y="205.63855421686748" type="line"/>
      <point x="38.734939759036145" y="159.59036144578315" type="line"/>
      <point x="385.0361445783132" y="159.59036144578315" type="line"/>
    </contour>
    <contour>
      <point x="393.09638554216866" y="212.09638554216866" type="line"/>
      <point x="103.1566265060241" y="212.09638554216866" type="line"/>
      <point x="106.2409638554217" y="195.97590361445782" type="line"/>
      <point x="485.7469879518072" y="631.6506024096385" type="line"/>
      <point x="460.289156626506" y="631.6506024096385" type="line"/>
    </contour>
  </outline>
</glyph>
<glyph name="five" format="2">
  <advance width="600.0"/>
  <unicode hex="0035"/>
  <outline>
    <contour>
      <point x="282.93975903614455" y="-8.457831325301205" type="curve" smooth="yes"/>
      <point x="423.9759036144579" y="-8.457831325301205"/>
      <point x="524.6626506024096" y="69.06024096385542"/>
      <point x="545.433734939759" y="204.144578313253" type="curve" smooth="yes"/>
      <point x="568.6626506024096" y="348.7469879518072"/>
      <point x="487.7469879518072" y="437.9759036144578"/>
      <point x="353.89156626506025" y="437.9759036144578" type="curve" smooth="yes"/>
      <point x="278.8072289156626" y="437.9759036144578"/>
      <point x="204.69879518072287" y="405.8072289156627"/>
      <point x="158.07228915662648" y="344.6987951807229" type="curve"/>
      <point x="177.73493975903614" y="344.6987951807229" type="line"/>
      <point x="225.8433734939759" y="650.6626506024096" type="line"/>
      <point x="573.4578313253012" y="650.6626506024096" type="line"/>
      <point x="582.9759036144578" y="705.0" type="line"/>
      <point x="174.27710843373495" y="705.0" type="line"/>
      <point x="108.59036144578313" y="289.87951807228916" type="line"/>
      <point x="157.34939759036143" y="289.87951807228916" type="line"/>
      <point x="208.289156626506" y="353.3855421686747"/>
      <point x="269.62650602409633" y="382.32530120481925"/>
      <point x="343.8192771084337" y="382.32530120481925" type="curve" smooth="yes"/>
      <point x="448.72289156626505" y="382.32530120481925"/>
      <point x="500.2048192771084" y="311.50602409638554"/>
      <point x="484.34939759036143" y="210.6024096385542" type="curve" smooth="yes"/>
      <point x="467.72289156626505" y="103.7590361445783"/>
      <point x="391.7590361445783" y="47.87951807228916"/>
      <point x="285.9397590361446" y="47.87951807228916" type="curve" smooth="yes"/>
      <point x="208.2289156626506" y="47.87951807228916"/>
      <point x="141.6867469879518" y="72.42168674698794"/>
      <point x="83.83132530120481" y="127.90361445783132" type="curve"/>
      <point x="57.33734939759036" y="77.93975903614458" type="line"/>
      <point x="107.65060240963855" y="22.542168674698797"/>
      <point x="192.48192771084337" y="-8.457831325301205"/>
    </contour>
  </outline>
</glyph>
<glyph name="six" format="2">
  <advance width="600.0"/>
  <unicode hex="0036"/>
  <outline>
    <contour>
      <point x="288.3734939759036" y="-8.457831325301205" type="curve" smooth="yes"/>
      <point x="432.2289156626506" y="-8.457831325301205"/>
      <point x="520.6626506024097" y="77.16867469879519"/>
      <point x="540.3493975903615" y="201.289156626506" type="curve" smooth="yes"/>
      <point x="563.5783132530121" y="345.433734939759"/>
      <point x="481.34939759036143" y="438.12048192771084"/>
      <point x="347.0963855421687" y="438.12048192771084" type="curve" smooth="yes"/>
      <point x="224.36144578313252" y="438.12048192771084"/>
      <point x="140.33734939759034" y="363.0120481927711"/>
      <point x="110.33734939759036" y="243.50602409638554" type="curve"/>
      <point x="119.25301204819277" y="243.50602409638554" type="line"/>
      <point x="135.87951807228916" y="345.49397590361446" type="line" smooth="yes"/>
      <point x="171.59036144578315" y="560.843373493976"/>
      <point x="265.09638554216866" y="657.1204819277109"/>
      <point x="407.4578313253012" y="657.1204819277109" type="curve" smooth="yes"/>
      <point x="471.0843373493976" y="657.1204819277109"/>
      <point x="524.6265060240963" y="637.5783132530121"/>
      <point x="569.3975903614457" y="587.6385542168674" type="curve"/>
      <point x="600.433734939759" y="633.5180722891566" type="line"/>
      <point x="560.6024096385541" y="685.6024096385543"/>
      <point x="488.3734939759036" y="713.4578313253012"/>
      <point x="411.144578313253" y="713.4578313253012" type="curve" smooth="yes"/>
      <point x="238.85542168674698" y="713.4578313253012"/>
      <point x="115.10843373493975" y="598.2289156626506"/>
      <point x="76.56626506024095" y="353.06024096385545" type="curve" smooth="yes"/>
      <point x="36.795180722891565" y="101.80722891566265"/>
      <point x="127.87951807228916" y="-8.457831325301205"/>
    </contour>
    <contour>
      <point x="287.51807228915663" y="46.506024096385545" type="curve" smooth="yes"/>
      <point x="184.3012048192771" y="46.506024096385545"/>
      <point x="125.87951807228916" y="115.46987951807229"/>
      <point x="141.96385542168676" y="216.28915662650604" type="curve" smooth="yes"/>
      <point x="157.81927710843374" y="314.1927710843373"/>
      <point x="231.63855421686748" y="383.3855421686747"/>
      <point x="337.16867469879514" y="383.3855421686747" type="curve" smooth="yes"/>
      <point x="437.6144578313253" y="383.3855421686747"/>
      <point x="497.0361445783132" y="315.1927710843373"/>
      <point x="480.18072289156623" y="205.74698795180723" type="curve" smooth="yes"/>
      <point x="465.09638554216866" y="110.1566265060241"/>
      <point x="403.9036144578313" y="46.506024096385545"/>
    </contour>
  </outline>
</glyph>
<glyph name="seven" format="2">
  <advance width="600.0"/>
  <unicode hex="0037"/>
  <outline>
    <contour>
      <point x="80.32530120481927" y="0.0" type="line"/>
      <point x="153.0722891566265" y="0.0" type="line"/>
      <point x="593.9759036144578" y="659.1204819277109" type="line"/>
      <point x="601.2650602409639" y="705.0" type="line"/>
      <point x="142.96385542168673" y="705.0" type="line"/>
      <point x="133.4457831325301" y="650.2048192771084" type="line"/>
      <point x="537.5180722891566" y="650.2048192771084" type="line"/>
      <point x="538.7469879518072" y="682.0963855421687" type="line"/>
    </contour>
  </outline>
</glyph>
<glyph name="eight" format="2">
  <advance width="600.0"/>
  <unicode hex="0038"/>
  <outline>
    <contour>
      <point x="266.9156626506024" y="-8.457831325301205" type="curve" smooth="yes"/>
      <point x="421.8313253012048" y="-8.457831325301205"/>
      <point x="518.3493975903615" y="57.7710843373494"/>
      <point x="537.5783132530121" y="177.9156626506024" type="curve" smooth="yes"/>
      <point x="554.5783132530121" y="279.6867469879518"/>
      <point x="504.12048192771084" y="345.289156626506"/>
      <point x="407.26506024096386" y="362.8313253012048" type="curve"/>
      <point x="405.8072289156627" y="351.31325301204816" type="line"/>
      <point x="499.20481927710847" y="369.3975903614458"/>
      <point x="560.8915662650602" y="430.6265060240964"/>
      <point x="575.1204819277108" y="516.5421686746988" type="curve" smooth="yes"/>
      <point x="593.1204819277108" y="634.0"/>
      <point x="515.289156626506" y="713.4578313253012"/>
      <point x="369.2289156626506" y="713.4578313253012" type="curve" smooth="yes"/>
      <point x="217.0843373493976" y="713.4578313253012"/>
      <point x="130.10843373493975" y="645.144578313253"/>
      <point x="112.87951807228916" y="536.5421686746988" type="curve" smooth="yes"/>
      <point x="99.65060240963857" y="449.855421686747"/>
      <point x="143.87951807228916" y="374.6265060240964"/>
      <point x="231.73493975903617" y="355.0843373493976" type="curve"/>
      <point x="233.19277108433735" y="366.8313253012048" type="line"/>
      <point x="130.56626506024097" y="354.06024096385545"/>
      <point x="57.87951807228916" y="295.6024096385542"/>
      <point x="41.87951807228916" y="196.51807228915663" type="curve" smooth="yes"/>
      <point x="22.650602409638555" y="72.45783132530121"/>
      <point x="101.16867469879517" y="-8.457831325301205"/>
    </contour>
    <contour>
      <point x="270.6024096385542" y="45.27710843373494" type="curve" smooth="yes"/>
      <point x="140.9879518072289" y="45.27710843373494"/>
      <point x="88.19277108433735" y="101.38554216867469"/>
      <point x="103.04819277108435" y="193.74698795180723" type="curve" smooth="yes"/>
      <point x="118.13253012048193" y="284.33734939759034"/>
      <point x="185.0120481927711" y="330.13253012048193"/>
      <point x="311.855421686747" y="330.13253012048193" type="curve" smooth="yes"/>
      <point x="438.92771084337346" y="330.13253012048193"/>
      <point x="493.49397590361446" y="283.87951807228916"/>
      <point x="477.6385542168675" y="187.97590361445785" type="curve" smooth="yes"/>
      <point x="462.7831325301205" y="92.0722891566265"/>
      <point x="393.9036144578313" y="45.27710843373494"/>
    </contour>
    <contour>
      <point x="321.144578313253" y="383.86746987951807" type="curve" smooth="yes"/>
      <point x="210.84337349397592" y="383.86746987951807"/>
      <point x="160.50602409638554" y="445.289156626506"/>
      <point x="173.59036144578315" y="530.1084337349398" type="curve" smooth="yes"/>
      <point x="185.90361445783134" y="609.3855421686746"/>
      <point x="249.32530120481928" y="659.722891566265"/>
      <point x="364.1686746987952" y="659.722891566265" type="curve" smooth="yes"/>
      <point x="475.4698795180723" y="659.722891566265"/>
      <point x="527.3493975903614" y="608.9277108433735"/>
      <point x="513.4939759036145" y="517.2530120481928" type="curve" smooth="yes"/>
      <point x="498.86746987951807" y="427.12048192771084"/>
      <point x="431.67469879518075" y="383.86746987951807"/>
    </contour>
  </outline>
</glyph>
<glyph name="nine" format="2">
  <advance width="600.0"/>
  <unicode hex="0039"/>
  <outline>
    <contour>
      <point x="221.6265060240964" y="-8.457831325301205" type="curve" smooth="yes"/>
      <point x="393.9156626506024" y="-8.457831325301205"/>
      <point x="517.6626506024096" y="107.0"/>
      <point x="556.433734939759" y="351.93975903614455" type="curve" smooth="yes"/>
      <point x="595.9759036144578" y="603.1927710843373"/>
      <point x="506.66265060240966" y="713.4578313253012"/>
      <point x="346.39759036144574" y="713.4578313253012" type="curve" smooth="yes"/>
      <point x="202.3132530120482" y="713.4578313253012"/>
      <point x="112.10843373493975" y="627.8313253012049"/>
      <point x="92.42168674698794" y="503.9397590361446" type="curve" smooth="yes"/>
      <point x="70.19277108433734" y="359.7951807228916"/>
      <point x="151.65060240963857" y="266.87951807228916"/>
      <point x="285.9036144578313" y="266.87951807228916" type="curve" smooth="yes"/>
      <point x="408.6385542168675" y="266.87951807228916"/>
      <point x="492.43373493975906" y="341.9879518072289"/>
      <point x="522.6626506024097" y="461.49397590361446" type="curve"/>
      <point x="513.5180722891566" y="461.49397590361446" type="line"/>
      <point x="496.89156626506025" y="359.50602409638554" type="line" smooth="yes"/>
      <point x="461.6385542168675" y="144.1566265060241"/>
      <point x="367.67469879518075" y="47.87951807228916"/>
      <point x="225.5421686746988" y="47.87951807228916" type="curve" smooth="yes"/>
      <point x="161.9156626506024" y="47.87951807228916"/>
      <point x="108.144578313253" y="67.65060240963855"/>
      <point x="63.37349397590362" y="117.36144578313252" type="curve"/>
      <point x="32.337349397590366" y="71.71084337349397" type="line"/>
      <point x="72.39759036144578" y="19.397590361445783"/>
      <point x="144.3975903614458" y="-8.457831325301205"/>
    </contour>
    <contour>
      <point x="295.6024096385542" y="321.8433734939759" type="curve" smooth="yes"/>
      <point x="195.15662650602408" y="321.8433734939759"/>
      <point x="135.96385542168676" y="390.03614457831327"/>
      <point x="152.81927710843374" y="499.2530120481928" type="curve" smooth="yes"/>
      <point x="167.67469879518075" y="594.843373493976"/>
      <point x="230.86746987951807" y="658.722891566265"/>
      <point x="347.0240963855422" y="658.722891566265" type="curve" smooth="yes"/>
      <point x="450.2409638554217" y="658.722891566265"/>
      <point x="506.89156626506025" y="589.5301204819277"/>
      <point x="491.03614457831327" y="488.9397590361446" type="curve" smooth="yes"/>
      <point x="475.1807228915663" y="390.8072289156627"/>
      <point x="401.3614457831325" y="321.8433734939759"/>
    </contour>
  </outline>
</glyph>
<glyph name="colon" format="2">
  <advance width="219.46987951807228"/>
  <unicode hex="003A"/>
  <outline>
    <contour>
      <point x="92.81927710843374" y="415.578313253012" type="line"/>
      <point x="178.0722891566265" y="415.578313253012" type="line"/>
      <point x="191.59036144578312" y="501.144578313253" type="line"/>
      <point x="106.33734939759037" y="501.144578313253" type="line"/>
    </contour>
    <contour>
      <point x="26.33734939759037" y="0.0" type="line"/>
      <point x="111.36144578313252" y="0.0" type="line"/>
      <point x="124.87951807228914" y="85.79518072289156" type="line"/>
      <point x="39.85542168674699" y="85.79518072289156" type="line"/>
    </contour>
  </outline>
</glyph>
<glyph name="semicolon" format="2">
  <advance width="219.46987951807228"/>
  <unicode hex="003B"/>
  <outline>
    <contour>
      <point x="46.746987951807235" y="-106.01204819277109" type="line"/>
      <point x="92.3855421686747" y="-70.97590361445783"/>
      <point x="110.90361445783132" y="-32.08433734939759"/>
      <point x="117.81927710843372" y="15.86746987951807" type="curve" smooth="yes"/>
      <point x="128.42168674698794" y="85.79518072289156" type="line"/>
      <point x="43.39759036144579" y="85.79518072289156" type="line"/>
      <point x="29.879518072289162" y="0.0" type="line"/>
      <point x="83.78313253012047" y="0.0" type="line"/>
      <point x="71.57831325301204" y="11.265060240963855" type="line"/>
      <point x="67.12048192771084" y="-18.626506024096386"/>
      <point x="56.37349397590361" y="-46.68674698795181"/>
      <point x="18.710843373493976" y="-81.43373493975903" type="curve"/>
    </contour>
    <contour>
      <point x="92.81927710843374" y="415.34939759036143" type="line"/>
      <point x="178.0722891566265" y="415.34939759036143" type="line"/>
      <point x="191.59036144578312" y="501.144578313253" type="line"/>
      <point x="106.33734939759037" y="501.144578313253" type="line"/>
    </contour>
  </outline>
</glyph>
<glyph name="less" format="2">
  <advance width="600.0"/>
  <unicode hex="003C"/>
  <outline>
    <contour>
      <point x="511.5421686746988" y="36.08433734939759" type="line"/>
      <point x="520.3734939759037" y="88.53012048192771" type="line"/>
      <point x="90.43373493975903" y="298.8915662650602" type="line"/>
      <point x="85.06024096385542" y="267.9638554216868" type="line"/>
      <point x="581.9397590361446" y="479.3253012048193" type="line"/>
      <point x="591.0" y="538.144578313253" type="line"/>
      <point x="61.60240963855422" y="311.86746987951807" type="line"/>
      <point x="53.5421686746988" y="262.3614457831325" type="line"/>
    </contour>
  </outline>
</glyph>
<glyph name="equal" format="2">
  <advance width="600.0"/>
  <unicode hex="003D"/>
  <outline>
    <contour>
      <point x="69.5421686746988" y="361.50602409638554" type="line"/>
      <point x="563.6265060240964" y="361.50602409638554" type="line"/>
      <point x="571.4578313253012" y="411.72289156626505" type="line"/>
      <point x="77.37349397590363" y="411.72289156626505" type="line"/>
    </contour>
    <contour>
      <point x="38.5421686746988" y="162.50602409638554" type="line"/>
      <point x="532.6265060240964" y="162.50602409638554" type="line"/>
      <point x="540.4578313253012" y="212.49397590361446" type="line"/>
      <point x="46.373493975903614" y="212.49397590361446" type="line"/>
    </contour>
  </outline>
</glyph>
<glyph name="greater" format="2">
  <advance width="600.0"/>
  <unicode hex="003E"/>
  <outline>
    <contour>
      <point x="19.228915662650603" y="36.08433734939759" type="line"/>
      <point x="548.6265060240964" y="262.3614457831325" type="line"/>
      <point x="556.6867469879518" y="311.86746987951807" type="line"/>
      <point x="98.68674698795182" y="538.144578313253" type="line"/>
      <point x="89.855421686747" y="485.46987951807233" type="line"/>
      <point x="519.7951807228916" y="274.1084337349398" type="line"/>
      <point x="525.1686746987951" y="305.26506024096386" type="line"/>
      <point x="28.289156626506028" y="94.67469879518072" type="line"/>
    </contour>
  </outline>
</glyph>
<glyph name="question" format="2">
  <advance width="439.98192771084337"/>
  <unicode hex="003F"/>
  <outline>
    <contour>
      <point x="160.144578313253" y="172.75903614457832" type="line"/>
      <point x="200.67469879518072" y="172.75903614457832" type="line"/>
      <point x="206.59036144578315" y="196.13253012048193" type="line" smooth="yes"/>
      <point x="219.67469879518072" y="252.55421686746988"/>
      <point x="250.5301204819277" y="298.49397590361446"/>
      <point x="328.6144578313253" y="371.3734939759036" type="curve" smooth="yes"/>
      <point x="388.9036144578313" y="426.7710843373494"/>
      <point x="454.3855421686747" y="494.3975903614458"/>
      <point x="454.3855421686747" y="584.0240963855422" type="curve" smooth="yes"/>
      <point x="454.3855421686747" y="662.855421686747"/>
      <point x="391.6385542168675" y="713.4578313253012"/>
      <point x="291.34939759036143" y="713.4578313253012" type="curve" smooth="yes"/>
      <point x="241.5180722891566" y="713.4578313253012"/>
      <point x="186.6265060240964" y="703.3132530120482"/>
      <point x="141.48192771084337" y="680.9397590361446" type="curve"/>
      <point x="132.19277108433732" y="620.7469879518072" type="line"/>
      <point x="177.10843373493978" y="643.6626506024096"/>
      <point x="224.93975903614458" y="657.8072289156627"/>
      <point x="278.71084337349396" y="657.8072289156627" type="curve" smooth="yes"/>
      <point x="348.90361445783134" y="657.8072289156627"/>
      <point x="390.92771084337346" y="627.3253012048193"/>
      <point x="390.92771084337346" y="574.6746987951807" type="curve" smooth="yes"/>
      <point x="390.92771084337346" y="506.855421686747"/>
      <point x="336.50602409638554" y="446.66265060240966"/>
      <point x="290.566265060241" y="402.9518072289157" type="curve" smooth="yes"/>
      <point x="202.91566265060243" y="319.2168674698795"/>
      <point x="174.6024096385542" y="266.04819277108436"/>
      <point x="164.06024096385542" y="197.33734939759037" type="curve" smooth="yes"/>
    </contour>
    <contour>
      <point x="109.79518072289156" y="0.0" type="line"/>
      <point x="195.04819277108433" y="0.0" type="line"/>
      <point x="208.56626506024097" y="85.79518072289156" type="line"/>
      <point x="123.31325301204818" y="85.79518072289156" type="line"/>
    </contour>
  </outline>
</glyph>
<glyph name="at" format="2">
  <advance width="971.1686746987951"/>
  <unicode hex="0040"/>
  <outline>
    <contour>
      <point x="506.6265060240964" y="-162.6867469879518" type="curve" smooth="yes"/>
      <point x="627.710843373494" y="-162.6867469879518"/>
      <point x="731.7951807228916" y="-123.28915662650603"/>
      <point x="796.5662650602409" y="-52.49397590361446" type="curve"/>
      <point x="766.5903614457831" y="-12.710843373493976" type="line"/>
      <point x="709.9036144578313" y="-77.50602409638554"/>
      <point x="617.4216867469879" y="-114.98795180722891"/>
      <point x="506.6265060240964" y="-114.98795180722891" type="curve" smooth="yes"/>
      <point x="280.9759036144578" y="-114.98795180722891"/>
      <point x="128.09638554216866" y="31.349397590361445"/>
      <point x="128.09638554216866" y="274.93975903614455" type="curve" smooth="yes"/>
      <point x="128.09638554216866" y="508.421686746988"/>
      <point x="291.51807228915663" y="665.7590361445783"/>
      <point x="517.2289156626506" y="665.7590361445783" type="curve" smooth="yes"/>
      <point x="717.6265060240963" y="665.7590361445783"/>
      <point x="867.2168674698795" y="536.2530120481928"/>
      <point x="867.2168674698795" y="345.0843373493976" type="curve" smooth="yes"/>
      <point x="867.2168674698795" y="200.03614457831324"/>
      <point x="797.2530120481928" y="104.46987951807229"/>
      <point x="717.0602409638554" y="104.46987951807229" type="curve" smooth="yes"/>
      <point x="673.5783132530121" y="104.46987951807229"/>
      <point x="652.722891566265" y="127.32530120481928"/>
      <point x="652.722891566265" y="173.95180722891567" type="curve" smooth="yes"/>
      <point x="652.722891566265" y="186.40963855421685"/>
      <point x="653.9518072289156" y="201.32530120481928"/>
      <point x="657.1807228915662" y="217.9277108433735" type="curve" smooth="yes"/>
      <point x="703.0361445783133" y="485.144578313253" type="line"/>
      <point x="649.3614457831325" y="485.144578313253" type="line"/>
      <point x="633.1325301204819" y="390.3734939759036" type="line"/>
      <point x="642.4216867469879" y="390.3734939759036" type="line"/>
      <point x="629.5060240963855" y="455.28915662650604"/>
      <point x="580.4216867469879" y="493.6024096385542"/>
      <point x="507.10843373493975" y="493.6024096385542" type="curve" smooth="yes"/>
      <point x="383.10843373493975" y="493.6024096385542"/>
      <point x="290.0240963855421" y="385.8313253012048"/>
      <point x="290.0240963855421" y="238.289156626506" type="curve" smooth="yes"/>
      <point x="290.0240963855421" y="126.144578313253"/>
      <point x="348.71084337349396" y="59.0"/>
      <point x="450.3132530120482" y="59.0" type="curve" smooth="yes"/>
      <point x="516.1445783132531" y="59.0"/>
      <point x="581.9156626506024" y="100.37349397590361"/>
      <point x="616.6867469879518" y="175.18072289156626" type="curve"/>
      <point x="603.4216867469879" y="187.5421686746988" type="line"/>
      <point x="593.0843373493976" y="109.08433734939759"/>
      <point x="635.4578313253012" y="59.0"/>
      <point x="713.3734939759036" y="59.0" type="curve" smooth="yes"/>
      <point x="827.0602409638553" y="59.0"/>
      <point x="915.1445783132531" y="171.3132530120482"/>
      <point x="915.1445783132531" y="345.0843373493976" type="curve" smooth="yes"/>
      <point x="915.1445783132531" y="564.6867469879518"/>
      <point x="746.5180722891566" y="713.4578313253012"/>
      <point x="518.2289156626506" y="713.4578313253012" type="curve" smooth="yes"/>
      <point x="263.33734939759034" y="713.4578313253012"/>
      <point x="75.79518072289156" y="534.4578313253012"/>
      <point x="75.79518072289156" y="274.93975903614455" type="curve" smooth="yes"/>
      <point x="75.79518072289156" y="6.228915662650603"/>
      <point x="252.71084337349396" y="-162.6867469879518"/>
    </contour>
    <contour>
      <point x="455.20481927710847" y="107.1566265060241" type="curve" smooth="yes"/>
      <point x="385.32530120481925" y="107.1566265060241"/>
      <point x="345.6144578313253" y="153.63855421686748"/>
      <point x="345.6144578313253" y="238.51807228915663" type="curve" smooth="yes"/>
      <point x="345.6144578313253" y="358.0240963855422"/>
      <point x="416.8072289156626" y="445.2168674698795"/>
      <point x="510.7710843373494" y="445.2168674698795" type="curve" smooth="yes"/>
      <point x="585.1927710843373" y="445.2168674698795"/>
      <point x="619.9036144578313" y="406.04819277108436"/>
      <point x="619.9036144578313" y="325.855421686747" type="curve" smooth="yes"/>
      <point x="619.9036144578313" y="199.89156626506025"/>
      <point x="549.710843373494" y="107.1566265060241"/>
    </contour>
  </outline>
</glyph>
<glyph name="A" format="2">
  <advance width="727.6385542168674"/>
  <unicode hex="0041"/>
  <anchor x="321.66265060240966" y="0.0" name="bottom"/>
  <anchor x="652.0361445783133" y="0.0" name="ogonek"/>
  <anchor x="433.66265060240966" y="705.0" name="top"/>
  <outline>
    <contour>
      <point x="-13.783132530120483" y="0.0" type="line"/>
      <point x="54.132530120481924" y="0.0" type="line"/>
      <point x="172.67469879518072" y="202.6265060240964" type="line"/>
      <point x="136.80722891566265" y="187.67469879518072" type="line"/>
      <point x="570.6024096385543" y="187.67469879518072" type="line"/>
      <point x="542.8795180722891" y="202.6265060240964" type="line"/>
      <point x="599.4216867469879" y="0.0" type="line"/>
      <point x="661.4216867469879" y="0.0" type="line"/>
      <point x="461.2168674698795" y="705.0" type="line"/>
      <point x="404.87951807228916" y="705.0" type="line"/>
    </contour>
    <contour>
      <point x="423.144578313253" y="630.2289156626506" type="line"/>
      <point x="425.6024096385542" y="630.2289156626506" type="line"/>
      <point x="536.6506024096385" y="229.14457831325302" type="line"/>
      <point x="555.7108433734941" y="240.86746987951807" type="line"/>
      <point x="168.04819277108433" y="240.86746987951807" type="line"/>
      <point x="189.04819277108433" y="229.14457831325302" type="line"/>
    </contour>
  </outline>
</glyph>
<glyph name="B" format="2">
  <advance width="676.1204819277109"/>
  <unicode hex="0042"/>
  <anchor x="303.28915662650604" y="0.0" name="bottom"/>
  <anchor x="414.51807228915663" y="705.0" name="top"/>
  <outline>
    <contour>
      <point x="52.65060240963855" y="0.0" type="line"/>
      <point x="336.2409638554217" y="0.0" type="line" smooth="yes"/>
      <point x="487.1566265060241" y="0.0"/>
      <point x="579.5301204819277" y="57.746987951807235"/>
      <point x="599.3012048192771" y="182.3734939759036" type="curve" smooth="yes"/>
      <point x="615.0722891566265" y="283.2289156626506"/>
      <point x="563.2168674698795" y="353.0"/>
      <point x="460.90361445783134" y="364.144578313253" type="curve"/>
      <point x="458.90361445783134" y="349.9156626506024" type="line"/>
      <point x="555.5301204819277" y="369.144578313253"/>
      <point x="620.8433734939758" y="422.51807228915663"/>
      <point x="636.3855421686746" y="515.7710843373494" type="curve" smooth="yes"/>
      <point x="655.3855421686746" y="638.3132530120482"/>
      <point x="582.6987951807229" y="705.0"/>
      <point x="441.26506024096386" y="705.0" type="curve" smooth="yes"/>
      <point x="164.65060240963857" y="705.0" type="line"/>
    </contour>
    <contour>
      <point x="121.48192771084337" y="52.506024096385545" type="line"/>
      <point x="165.27710843373492" y="330.5903614457831" type="line"/>
      <point x="391.3734939759036" y="330.5903614457831" type="line" smooth="yes"/>
      <point x="491.33734939759034" y="330.5903614457831"/>
      <point x="555.0722891566265" y="292.87951807228916"/>
      <point x="537.4457831325301" y="182.12048192771084" type="curve" smooth="yes"/>
      <point x="523.3614457831326" y="90.98795180722891"/>
      <point x="447.7710843373494" y="52.506024096385545"/>
      <point x="339.4096385542169" y="52.506024096385545" type="curve" smooth="yes"/>
    </contour>
    <contour>
      <point x="174.33734939759034" y="382.86746987951807" type="line"/>
      <point x="216.36144578313252" y="652.722891566265" type="line"/>
      <point x="435.3975903614458" y="652.722891566265" type="line" smooth="yes"/>
      <point x="538.132530120482" y="652.722891566265"/>
      <point x="587.4698795180723" y="605.6144578313254"/>
      <point x="572.3855421686748" y="508.4819277108434" type="curve" smooth="yes"/>
      <point x="560.3012048192771" y="429.9759036144578"/>
      <point x="493.0240963855422" y="382.86746987951807"/>
      <point x="376.34939759036143" y="382.86746987951807" type="curve" smooth="yes"/>
    </contour>
  </outline>
</glyph>
<glyph name="C" format="2">
  <advance width="684.1144578313254"/>
  <unicode hex="0043"/>
  <anchor x="347.2048192771084" y="0.0" name="bottom"/>
  <anchor x="460.7469879518072" y="705.0" name="top"/>
  <outline>
    <contour>
      <point x="367.5783132530121" y="-8.457831325301205" type="curve" smooth="yes"/>
      <point x="458.8072289156626" y="-8.457831325301205"/>
      <point x="551.1204819277109" y="23.855421686746986"/>
      <point x="612.4939759036146" y="84.79518072289157" type="curve"/>
      <point x="586.8313253012049" y="134.13253012048193" type="line"/>
      <point x="523.8313253012049" y="73.87951807228916"/>
      <point x="448.8072289156627" y="49.25301204819277"/>
      <point x="371.0120481927711" y="49.25301204819277" type="curve" smooth="yes"/>
      <point x="187.93975903614458" y="49.25301204819277"/>
      <point x="117.2289156626506" y="170.0722891566265"/>
      <point x="146.85542168674698" y="354.6024096385542" type="curve" smooth="yes"/>
      <point x="177.25301204819277" y="545.8433734939758"/>
      <point x="284.13253012048193" y="655.7469879518072"/>
      <point x="450.6626506024096" y="655.7469879518072" type="curve" smooth="yes"/>
      <point x="534.6867469879518" y="655.7469879518072"/>
      <point x="590.6265060240963" y="634.8915662650603"/>
      <point x="648.9397590361446" y="577.3253012048193" type="curve"/>
      <point x="677.2048192771085" y="628.6626506024096" type="line"/>
      <point x="623.8915662650603" y="684.9156626506025"/>
      <point x="551.2048192771085" y="713.4578313253012"/>
      <point x="454.3493975903615" y="713.4578313253012" type="curve" smooth="yes"/>
      <point x="254.22891566265062" y="713.6867469879518"/>
      <point x="118.02409638554217" y="586.6867469879518"/>
      <point x="82.25301204819277" y="364.144578313253" type="curve" smooth="yes"/>
      <point x="47.253012048192765" y="141.06024096385542"/>
      <point x="140.6867469879518" y="-8.457831325301205"/>
    </contour>
  </outline>
</glyph>
<glyph name="D" format="2">
  <advance width="739.6385542168674"/>
  <unicode hex="0044"/>
  <anchor x="335.66265060240966" y="0.0" name="bottom"/>
  <anchor x="197.80722891566265" y="358.0" name="center"/>
  <anchor x="447.66265060240966" y="705.0" name="top"/>
  <outline>
    <contour>
      <point x="52.65060240963855" y="0.0" type="line"/>
      <point x="277.4096385542169" y="0.0" type="line" smooth="yes"/>
      <point x="507.4698795180723" y="0.0"/>
      <point x="651.843373493976" y="112.22891566265059"/>
      <point x="688.6144578313254" y="341.855421686747" type="curve" smooth="yes"/>
      <point x="724.6144578313254" y="571.1686746987951"/>
      <point x="623.0120481927711" y="705.0"/>
      <point x="381.66265060240966" y="705.0" type="curve" smooth="yes"/>
      <point x="164.65060240963857" y="705.0" type="line"/>
    </contour>
    <contour>
      <point x="123.08433734939759" y="54.566265060240966" type="line"/>
      <point x="217.04819277108433" y="650.6626506024096" type="line"/>
      <point x="373.6024096385542" y="650.6626506024096" type="line" smooth="yes"/>
      <point x="574.6746987951807" y="650.6626506024096"/>
      <point x="657.7831325301204" y="552.156626506024"/>
      <point x="626.156626506024" y="351.3975903614458" type="curve" smooth="yes"/>
      <point x="594.2168674698795" y="149.53012048192772"/>
      <point x="480.71084337349396" y="54.566265060240966"/>
      <point x="279.86746987951807" y="54.566265060240966" type="curve" smooth="yes"/>
    </contour>
  </outline>
</glyph>
<glyph name="E" format="2">
  <advance width="584.9759036144578"/>
  <unicode hex="0045"/>
  <anchor x="285.28915662650604" y="0.0" name="bottom"/>
  <anchor x="461.7469879518072" y="0.0" name="ogonek"/>
  <anchor x="397.28915662650604" y="705.0" name="top"/>
  <anchor x="96.08433734939759" y="705.0" name="topleft"/>
  <outline>
    <contour>
      <point x="52.65060240963855" y="0.0" type="line"/>
      <point x="491.4096385542168" y="0.0" type="line"/>
      <point x="499.69879518072287" y="53.42168674698795" type="line"/>
      <point x="121.71084337349397" y="53.42168674698795" type="line"/>
      <point x="166.27710843373492" y="330.90361445783134" type="line"/>
      <point x="522.0361445783134" y="330.90361445783134" type="line"/>
      <point x="530.3253012048193" y="384.32530120481925" type="line"/>
      <point x="174.56626506024097" y="384.32530120481925" type="line"/>
      <point x="216.13253012048193" y="651.8072289156627" type="line"/>
      <point x="594.3493975903614" y="651.8072289156627" type="line"/>
      <point x="603.4096385542168" y="705.0" type="line"/>
      <point x="164.65060240963857" y="705.0" type="line"/>
    </contour>
  </outline>
</glyph>
<glyph name="F" format="2">
  <advance width="558.1204819277109"/>
  <unicode hex="0046"/>
  <anchor x="261.6024096385542" y="0.0" name="bottom"/>
  <anchor x="374.28915662650604" y="705.0" name="top"/>
  <outline>
    <contour>
      <point x="52.65060240963855" y="0.0" type="line"/>
      <point x="114.56626506024097" y="0.0" type="line"/>
      <point x="167.19277108433735" y="329.9879518072289" type="line"/>
      <point x="512.578313253012" y="329.9879518072289" type="line"/>
      <point x="520.867469879518" y="383.1807228915663" type="line"/>
      <point x="175.48192771084337" y="383.1807228915663" type="line"/>
      <point x="217.27710843373495" y="651.8072289156627" type="line"/>
      <point x="584.1204819277108" y="651.8072289156627" type="line"/>
      <point x="593.4096385542168" y="705.0" type="line"/>
      <point x="164.65060240963857" y="705.0" type="line"/>
    </contour>
  </outline>
</glyph>
<glyph name="G" format="2">
  <advance width="726.777108433735"/>
  <unicode hex="0047"/>
  <anchor x="369.43373493975906" y="0.0" name="bottom"/>
  <anchor x="467.34939759036143" y="705.0" name="top"/>
  <outline>
    <contour>
      <point x="376.34939759036143" y="-8.457831325301205" type="curve" smooth="yes"/>
      <point x="454.49397590361446" y="-8.457831325301205"/>
      <point x="551.9518072289156" y="12.313253012048193"/>
      <point x="609.4698795180723" y="44.22891566265061" type="curve"/>
      <point x="660.3855421686746" y="362.72289156626505" type="line"/>
      <point x="417.68674698795184" y="362.72289156626505" type="line"/>
      <point x="408.855421686747" y="311.13253012048193" type="line"/>
      <point x="595.9879518072289" y="311.13253012048193" type="line"/>
      <point x="554.5060240963855" y="46.92771084337349" type="line"/>
      <point x="577.0843373493975" y="89.59036144578313" type="line"/>
      <point x="514.6867469879518" y="61.65060240963855"/>
      <point x="451.12048192771084" y="48.33734939759036"/>
      <point x="378.5542168674699" y="48.33734939759036" type="curve" smooth="yes"/>
      <point x="186.56626506024097" y="48.33734939759036"/>
      <point x="116.2289156626506" y="161.8433734939759"/>
      <point x="146.85542168674698" y="352.68674698795184" type="curve" smooth="yes"/>
      <point x="177.02409638554218" y="545.3855421686746"/>
      <point x="289.7590361445783" y="656.2048192771084"/>
      <point x="462.26506024096386" y="656.2048192771084" type="curve" smooth="yes"/>
      <point x="552.7469879518072" y="656.2048192771084"/>
      <point x="603.144578313253" y="634.0361445783133"/>
      <point x="657.3734939759036" y="581.4698795180723" type="curve"/>
      <point x="686.6385542168674" y="633.1204819277109" type="line"/>
      <point x="635.867469879518" y="683.6024096385543"/>
      <point x="569.4939759036145" y="713.4578313253012"/>
      <point x="465.72289156626505" y="713.4578313253012" type="curve" smooth="yes"/>
      <point x="259.14457831325296" y="713.4578313253012"/>
      <point x="118.02409638554217" y="586.6867469879518"/>
      <point x="83.02409638554217" y="363.68674698795184" type="curve" smooth="yes"/>
      <point x="47.024096385542165" y="135.3734939759036"/>
      <point x="139.3132530120482" y="-8.457831325301205"/>
    </contour>
  </outline>
</glyph>
<glyph name="H" format="2">
  <advance width="762.433734939759"/>
  <unicode hex="0048"/>
  <anchor x="341.8313253012048" y="0.0" name="bottom"/>
  <anchor x="428.289156626506" y="549.433734939759" name="center"/>
  <anchor x="453.8313253012048" y="705.0" name="top"/>
  <anchor x="96.08433734939759" y="705.0" name="topleft"/>
  <outline>
    <contour>
      <point x="52.65060240963855" y="0.0" type="line"/>
      <point x="114.56626506024097" y="0.0" type="line"/>
      <point x="167.19277108433735" y="330.2168674698795" type="line"/>
      <point x="620.722891566265" y="330.2168674698795" type="line"/>
      <point x="568.0963855421687" y="0.0" type="line"/>
      <point x="630.0120481927711" y="0.0" type="line"/>
      <point x="742.0120481927711" y="705.0" type="line"/>
      <point x="680.0963855421687" y="705.0" type="line"/>
      <point x="629.2409638554217" y="384.7831325301205" type="line"/>
      <point x="175.710843373494" y="384.7831325301205" type="line"/>
      <point x="226.56626506024097" y="705.0" type="line"/>
      <point x="164.65060240963857" y="705.0" type="line"/>
    </contour>
  </outline>
</glyph>
<glyph name="I" format="2">
  <advance width="246.9879518072289"/>
  <unicode hex="0049"/>
  <anchor x="83.49397590361446" y="0.0" name="bottom"/>
  <anchor x="108.15662650602411" y="0.0" name="ogonek"/>
  <anchor x="195.49397590361446" y="705.0" name="top"/>
  <anchor x="97.08433734939759" y="705.0" name="topleft"/>
  <outline>
    <contour>
      <point x="52.65060240963855" y="0.0" type="line"/>
      <point x="114.56626506024097" y="0.0" type="line"/>
      <point x="226.56626506024097" y="705.0" type="line"/>
      <point x="164.65060240963857" y="705.0" type="line"/>
    </contour>
  </outline>
</glyph>
<glyph name="J" format="2">
  <advance width="314.078313253012"/>
  <unicode hex="004A"/>
  <anchor x="150.1566265060241" y="0.0" name="bottom"/>
  <anchor x="262.1566265060241" y="705.0" name="top"/>
  <outline>
    <contour>
      <point x="5.349397590361453" y="-186.2289156626506" type="curve" smooth="yes"/>
      <point x="104.79518072289157" y="-186.2289156626506"/>
      <point x="161.5421686746988" y="-126.5421686746988"/>
      <point x="179.144578313253" y="-15.698795180722893" type="curve" smooth="yes"/>
      <point x="293.5421686746988" y="705.0" type="line"/>
      <point x="231.6265060240964" y="705.0" type="line"/>
      <point x="117.6867469879518" y="-11.867469879518072" type="line" smooth="yes"/>
      <point x="104.91566265060241" y="-96.26506024096386"/>
      <point x="65.20481927710844" y="-133.34939759036143"/>
      <point x="4.204819277108438" y="-133.34939759036143" type="curve" smooth="yes"/>
      <point x="-14.337349397590366" y="-133.34939759036143"/>
      <point x="-35.25301204819277" y="-130.57831325301206"/>
      <point x="-59.48192771084337" y="-121.57831325301206" type="curve"/>
      <point x="-67.77108433734941" y="-175.0" type="line"/>
      <point x="-42.16867469879518" y="-184.2289156626506"/>
      <point x="-16.108433734939762" y="-186.2289156626506"/>
    </contour>
  </outline>
</glyph>
<glyph name="K" format="2">
  <advance width="618.8493975903615"/>
  <unicode hex="004B"/>
  <anchor x="275.86746987951807" y="0.0" name="bottom"/>
  <anchor x="387.09638554216866" y="705.0" name="top"/>
  <anchor x="96.08433734939759" y="705.0" name="topleft"/>
  <outline>
    <contour>
      <point x="52.65060240963855" y="0.0" type="line"/>
      <point x="114.56626506024097" y="0.0" type="line"/>
      <point x="168.10843373493975" y="335.2530120481928" type="line"/>
      <point x="170.10843373493975" y="335.2530120481928" type="line"/>
      <point x="498.68674698795184" y="0.0" type="line"/>
      <point x="581.2048192771084" y="0.0" type="line"/>
      <point x="210.73493975903614" y="377.8072289156627" type="line"/>
      <point x="211.65060240963854" y="341.855421686747" type="line"/>
      <point x="663.8072289156627" y="705.0" type="line"/>
      <point x="576.8313253012049" y="705.0" type="line"/>
      <point x="177.02409638554218" y="380.66265060240966" type="line"/>
      <point x="175.02409638554218" y="380.66265060240966" type="line"/>
      <point x="226.56626506024097" y="705.0" type="line"/>
      <point x="164.65060240963857" y="705.0" type="line"/>
    </contour>
  </outline>
</glyph>
<glyph name="L" format="2">
  <advance width="538.4096385542168"/>
  <unicode hex="004C"/>
  <anchor x="265.28915662650604" y="0.0" name="bottom"/>
  <anchor x="190.72289156626505" y="387.0" name="center"/>
  <anchor x="415.7590361445783" y="387.8313253012048" name="dot"/>
  <anchor x="195.49397590361446" y="705.0" name="top"/>
  <anchor x="340.8192771084337" y="705.0" name="topright"/>
  <outline>
    <contour>
      <point x="52.65060240963855" y="0.0" type="line"/>
      <point x="482.03614457831327" y="0.0" type="line"/>
      <point x="490.5542168674699" y="55.024096385542165" type="line"/>
      <point x="123.08433734939759" y="55.024096385542165" type="line"/>
      <point x="226.56626506024097" y="705.0" type="line"/>
      <point x="164.65060240963857" y="705.0" type="line"/>
    </contour>
  </outline>
</glyph>
<glyph name="M" format="2">
  <advance width="853.0361445783133"/>
  <unicode hex="004D"/>
  <anchor x="386.51807228915663" y="0.0" name="bottom"/>
  <anchor x="498.51807228915663" y="705.0" name="top"/>
  <outline>
    <contour>
      <point x="52.87951807228916" y="0.0" type="line"/>
      <point x="109.73493975903614" y="0.0" type="line"/>
      <point x="209.6987951807229" y="632.4939759036145" type="line"/>
      <point x="184.26506024096386" y="632.4939759036145" type="line"/>
      <point x="367.2530120481928" y="0.0" type="line"/>
      <point x="409.09638554216866" y="0.0" type="line"/>
      <point x="792.5542168674699" y="631.722891566265" type="line"/>
      <point x="763.2650602409639" y="631.722891566265" type="line"/>
      <point x="663.3012048192771" y="0.0" type="line"/>
      <point x="720.156626506024" y="0.0" type="line"/>
      <point x="832.156626506024" y="705.0" type="line"/>
      <point x="778.7590361445783" y="705.0" type="line"/>
      <point x="378.9518072289157" y="41.036144578313255" type="line"/>
      <point x="407.6385542168675" y="41.036144578313255" type="line"/>
      <point x="219.27710843373495" y="705.0" type="line"/>
      <point x="164.87951807228916" y="705.0" type="line"/>
    </contour>
  </outline>
</glyph>
<glyph name="N" format="2">
  <advance width="742.6626506024096"/>
  <unicode hex="004E"/>
  <anchor x="332.51807228915663" y="0.0" name="bottom"/>
  <anchor x="444.28915662650604" y="705.0" name="top"/>
  <outline>
    <contour>
      <point x="52.65060240963855" y="0.0" type="line"/>
      <point x="110.19277108433735" y="0.0" type="line"/>
      <point x="210.3855421686747" y="632.3253012048193" type="line"/>
      <point x="193.55421686746988" y="633.9277108433736" type="line"/>
      <point x="561.0481927710844" y="0.0" type="line"/>
      <point x="610.2409638554217" y="0.0" type="line"/>
      <point x="722.2409638554217" y="705.0" type="line"/>
      <point x="664.6987951807229" y="705.0" type="line"/>
      <point x="564.5060240963855" y="72.67469879518072" type="line"/>
      <point x="582.1084337349398" y="71.0722891566265" type="line"/>
      <point x="214.6144578313253" y="705.0" type="line"/>
      <point x="164.65060240963857" y="705.0" type="line"/>
    </contour>
  </outline>
</glyph>
<glyph name="O" format="2">
  <advance width="765.2951807228916"/>
  <unicode hex="004F"/>
  <anchor x="341.2048192771084" y="-8.457831325301205" name="Qtail"/>
  <anchor x="342.2048192771084" y="0.0" name="bottom"/>
  <anchor x="400.34939759036143" y="353.0" name="center"/>
  <anchor x="401.49397590361446" y="0.0" name="ogonek"/>
  <anchor x="454.2048192771084" y="705.0" name="top"/>
  <anchor x="97.0" y="705.0" name="topleft"/>
  <anchor x="523.9759036144579" y="705.0" name="topright"/>
  <outline>
    <contour>
      <point x="348.0361445783132" y="-8.457831325301205" type="curve" smooth="yes"/>
      <point x="544.0963855421687" y="-8.457831325301205"/>
      <point x="679.3855421686746" y="118.5421686746988"/>
      <point x="714.156626506024" y="341.0843373493976" type="curve" smooth="yes"/>
      <point x="749.156626506024" y="562.6265060240964"/>
      <point x="652.8674698795181" y="713.4578313253012"/>
      <point x="448.3734939759036" y="713.4578313253012" type="curve" smooth="yes"/>
      <point x="253.08433734939757" y="713.4578313253012"/>
      <point x="118.02409638554217" y="586.6867469879518"/>
      <point x="83.02409638554217" y="364.144578313253" type="curve" smooth="yes"/>
      <point x="48.253012048192765" y="141.06024096385542"/>
      <point x="144.5421686746988" y="-8.457831325301205"/>
    </contour>
    <contour>
      <point x="352.6385542168675" y="48.33734939759036" type="curve" smooth="yes"/>
      <point x="192.87951807228916" y="48.33734939759036"/>
      <point x="116.2289156626506" y="165.15662650602408"/>
      <point x="146.85542168674698" y="354.144578313253" type="curve" smooth="yes"/>
      <point x="178.02409638554218" y="545.3855421686746"/>
      <point x="280.6987951807229" y="656.6626506024096"/>
      <point x="444.31325301204816" y="656.6626506024096" type="curve" smooth="yes"/>
      <point x="604.3012048192771" y="656.6626506024096"/>
      <point x="680.1807228915662" y="539.0722891566264"/>
      <point x="650.5542168674699" y="351.0843373493976" type="curve" smooth="yes"/>
      <point x="620.3855421686748" y="160.0722891566265"/>
      <point x="516.2530120481928" y="48.33734939759036"/>
    </contour>
  </outline>
</glyph>
<glyph name="P" format="2">
  <advance width="644.4096385542168"/>
  <unicode hex="0050"/>
  <anchor x="277.66265060240966" y="0.0" name="bottom"/>
  <anchor x="389.43373493975906" y="705.0" name="top"/>
  <outline>
    <contour>
      <point x="52.65060240963855" y="0.0" type="line"/>
      <point x="114.56626506024097" y="0.0" type="line"/>
      <point x="163.42168674698794" y="309.4457831325301" type="line"/>
      <point x="384.8072289156626" y="309.4457831325301" type="line" smooth="yes"/>
      <point x="521.8433734939758" y="309.4457831325301"/>
      <point x="614.3855421686748" y="374.65060240963857"/>
      <point x="633.3855421686748" y="496.4216867469879" type="curve" smooth="yes"/>
      <point x="654.6144578313254" y="627.2530120481928"/>
      <point x="582.6987951807229" y="705.0"/>
      <point x="432.49397590361446" y="705.0" type="curve" smooth="yes"/>
      <point x="164.65060240963857" y="705.0" type="line"/>
    </contour>
    <contour>
      <point x="171.710843373494" y="362.86746987951807" type="line"/>
      <point x="217.27710843373495" y="651.8072289156627" type="line"/>
      <point x="425.144578313253" y="651.8072289156627" type="line" smooth="yes"/>
      <point x="536.0481927710842" y="651.8072289156627"/>
      <point x="586.9277108433735" y="599.4698795180723"/>
      <point x="571.0722891566265" y="501.56626506024094" type="curve" smooth="yes"/>
      <point x="556.2168674698795" y="408.66265060240966"/>
      <point x="490.71084337349396" y="362.86746987951807"/>
      <point x="379.26506024096386" y="362.86746987951807" type="curve" smooth="yes"/>
    </contour>
  </outline>
</glyph>
<glyph name="R" format="2">
  <advance width="688.1204819277109"/>
  <unicode hex="0052"/>
  <anchor x="301.89156626506025" y="0.0" name="bottom"/>
  <anchor x="413.66265060240966" y="705.0" name="top"/>
  <outline>
    <contour>
      <point x="52.65060240963855" y="0.0" type="line"/>
      <point x="114.56626506024097" y="0.0" type="line"/>
      <point x="164.19277108433735" y="313.7590361445783" type="line"/>
      <point x="332.1927710843373" y="313.7590361445783" type="line" smooth="yes"/>
      <point x="406.78313253012044" y="313.7590361445783"/>
      <point x="449.1807228915663" y="300.4457831325301"/>
      <point x="467.8072289156626" y="234.3975903614458" type="curve" smooth="yes"/>
      <point x="535.3253012048192" y="0.0" type="line"/>
      <point x="600.9277108433735" y="0.0" type="line"/>
      <point x="529.0120481927711" y="244.90361445783134" type="line" smooth="yes"/>
      <point x="510.3253012048193" y="306.9879518072289"/>
      <point x="473.09638554216866" y="330.8192771084337"/>
      <point x="419.4096385542169" y="330.8192771084337" type="curve" smooth="yes"/>
      <point x="406.144578313253" y="330.8192771084337" type="line"/>
      <point x="398.83132530120486" y="320.30120481927713" type="line"/>
      <point x="522.4096385542168" y="320.30120481927713"/>
      <point x="621.5542168674699" y="385.0481927710843"/>
      <point x="639.7831325301205" y="500.10843373493975" type="curve" smooth="yes"/>
      <point x="660.2409638554217" y="629.8554216867469"/>
      <point x="588.0963855421687" y="705.0"/>
      <point x="436.7469879518072" y="705.0" type="curve" smooth="yes"/>
      <point x="164.65060240963857" y="705.0" type="line"/>
    </contour>
    <contour>
      <point x="172.25301204819277" y="365.578313253012" type="line"/>
      <point x="217.27710843373495" y="651.8072289156627" type="line"/>
      <point x="426.39759036144574" y="651.8072289156627" type="line" smooth="yes"/>
      <point x="539.5301204819277" y="651.8072289156627"/>
      <point x="592.3253012048192" y="601.4698795180723"/>
      <point x="577.2409638554217" y="504.4216867469879" type="curve" smooth="yes"/>
      <point x="563.156626506024" y="416.144578313253"/>
      <point x="497.73493975903614" y="365.578313253012"/>
      <point x="390.6867469879518" y="365.578313253012" type="curve" smooth="yes"/>
    </contour>
  </outline>
</glyph>
<glyph name="S" format="2">
  <advance width="613.2710843373494"/>
  <unicode hex="0053"/>
  <anchor x="281.51807228915663" y="0.0" name="bottom"/>
  <anchor x="389.12048192771084" y="705.0" name="top"/>
  <outline>
    <contour>
      <point x="282.51807228915663" y="-8.457831325301205" type="curve" smooth="yes"/>
      <point x="432.69879518072287" y="-8.457831325301205"/>
      <point x="535.7590361445783" y="69.37349397590361"/>
      <point x="552.4457831325301" y="174.03614457831324" type="curve" smooth="yes"/>
      <point x="569.4457831325301" y="282.95180722891564"/>
      <point x="516.0722891566264" y="345.0120481927711"/>
      <point x="383.4457831325301" y="363.4698795180723" type="curve" smooth="yes"/>
      <point x="292.55421686746985" y="376.3855421686747" type="line" smooth="yes"/>
      <point x="189.10843373493975" y="390.6987951807229"/>
      <point x="154.3132530120482" y="437.26506024096386"/>
      <point x="167.16867469879517" y="514.710843373494" type="curve" smooth="yes"/>
      <point x="181.02409638554218" y="600.6144578313252"/>
      <point x="261.0722891566265" y="657.1204819277109"/>
      <point x="378.6626506024096" y="657.1204819277109" type="curve" smooth="yes"/>
      <point x="466.28915662650604" y="657.1204819277109"/>
      <point x="528.5180722891566" y="632.5783132530121"/>
      <point x="583.144578313253" y="586.3253012048193" type="curve"/>
      <point x="610.4096385542168" y="636.7469879518072" type="line"/>
      <point x="561.4096385542168" y="681.0602409638554"/>
      <point x="482.578313253012" y="713.4578313253012"/>
      <point x="384.72289156626505" y="713.4578313253012" type="curve" smooth="yes"/>
      <point x="228.3734939759036" y="713.4578313253012"/>
      <point x="122.6265060240964" y="632.2289156626506"/>
      <point x="104.9397590361446" y="518.3373493975903" type="curve" smooth="yes"/>
      <point x="87.71084337349399" y="410.9638554216868"/>
      <point x="142.0" y="339.27710843373495"/>
      <point x="274.93975903614455" y="320.0481927710843" type="curve" smooth="yes"/>
      <point x="365.06024096385545" y="306.90361445783134" type="line" smooth="yes"/>
      <point x="468.0481927710843" y="292.8192771084337"/>
      <point x="501.84337349397595" y="250.25301204819277"/>
      <point x="489.98795180722897" y="177.89156626506025" type="curve" smooth="yes"/>
      <point x="478.13253012048193" y="100.53012048192771"/>
      <point x="407.3132530120482" y="47.87951807228916"/>
      <point x="284.8072289156627" y="47.87951807228916" type="curve" smooth="yes"/>
      <point x="182.55421686746988" y="47.87951807228916"/>
      <point x="119.34939759036143" y="73.10843373493975"/>
      <point x="54.265060240963855" y="116.27710843373494" type="curve"/>
      <point x="25.457831325301207" y="65.39759036144578" type="line"/>
      <point x="83.144578313253" y="22.85542168674699"/>
      <point x="168.89156626506022" y="-8.457831325301205"/>
    </contour>
  </outline>
</glyph>
<glyph name="T" format="2">
  <advance width="596.6385542168674"/>
  <unicode hex="0054"/>
  <anchor x="258.43373493975906" y="0.0" name="bottom"/>
  <anchor x="315.43373493975906" y="358.0" name="center"/>
  <anchor x="370.43373493975906" y="705.0" name="top"/>
  <outline>
    <contour>
      <point x="225.59036144578312" y="0.0" type="line"/>
      <point x="287.50602409638554" y="0.0" type="line"/>
      <point x="390.2168674698795" y="650.6626506024096" type="line"/>
      <point x="645.5783132530121" y="650.6626506024096" type="line"/>
      <point x="654.8674698795181" y="705.0" type="line"/>
      <point x="82.2289156626506" y="705.0" type="line"/>
      <point x="72.93975903614458" y="650.6626506024096" type="line"/>
      <point x="328.3012048192771" y="650.6626506024096" type="line"/>
    </contour>
  </outline>
</glyph>
<glyph name="U" format="2">
  <advance width="726.1204819277109"/>
  <unicode hex="0055"/>
  <anchor x="323.51807228915663" y="0.0" name="bottom"/>
  <anchor x="396.32530120481925" y="0.0" name="ogonek"/>
  <anchor x="435.51807228915663" y="705.0" name="top"/>
  <anchor x="665.710843373494" y="705.0" name="topright"/>
  <outline>
    <contour>
      <point x="330.7469879518072" y="-8.457831325301205" type="curve" smooth="yes"/>
      <point x="503.61445783132535" y="-8.457831325301205"/>
      <point x="610.9277108433735" y="76.28915662650603"/>
      <point x="642.156626506024" y="273.2048192771084" type="curve" smooth="yes"/>
      <point x="710.6987951807229" y="705.0" type="line"/>
      <point x="649.2409638554217" y="705.0" type="line"/>
      <point x="581.6987951807229" y="279.2048192771084" type="line" smooth="yes"/>
      <point x="555.3012048192771" y="113.04819277108433"/>
      <point x="471.48192771084337" y="48.33734939759036"/>
      <point x="336.03614457831327" y="48.33734939759036" type="curve" smooth="yes"/>
      <point x="180.42168674698794" y="48.33734939759036"/>
      <point x="129.6265060240964" y="124.67469879518072"/>
      <point x="154.25301204819277" y="278.7469879518072" type="curve" smooth="yes"/>
      <point x="221.79518072289156" y="705.0" type="line"/>
      <point x="159.87951807228916" y="705.0" type="line"/>
      <point x="91.56626506024097" y="275.26506024096386" type="line" smooth="yes"/>
      <point x="61.87951807228916" y="88.2289156626506"/>
      <point x="149.4578313253012" y="-8.457831325301205"/>
    </contour>
  </outline>
</glyph>
<glyph name="V" format="2">
  <advance width="687.0722891566265"/>
  <unicode hex="0056"/>
  <anchor x="304.72289156626505" y="0.0" name="bottom"/>
  <anchor x="416.72289156626505" y="705.0" name="top"/>
  <outline>
    <contour>
      <point x="272.1686746987952" y="0.0" type="line"/>
      <point x="332.5903614457831" y="0.0" type="line"/>
      <point x="751.6506024096385" y="705.0" type="line"/>
      <point x="683.5903614457832" y="705.0" type="line"/>
      <point x="295.9518072289157" y="44.373493975903614" type="line"/>
      <point x="320.7590361445783" y="44.373493975903614" type="line"/>
      <point x="142.48192771084337" y="705.0" type="line"/>
      <point x="79.65060240963855" y="705.0" type="line"/>
    </contour>
  </outline>
</glyph>
<glyph name="W" format="2">
  <advance width="1107.7771084337348"/>
  <unicode hex="0057"/>
  <anchor x="514.0602409638554" y="0.0" name="bottom"/>
  <anchor x="626.0602409638554" y="705.0" name="top"/>
  <outline>
    <contour>
      <point x="242.48192771084337" y="0.0" type="line"/>
      <point x="299.3614457831325" y="0.0" type="line"/>
      <point x="628.2530120481928" y="642.2409638554217" type="line"/>
      <point x="608.0240963855422" y="642.2409638554217" type="line"/>
      <point x="724.2168674698795" y="0.0" type="line"/>
      <point x="782.6385542168674" y="0.0" type="line"/>
      <point x="1141.7831325301204" y="705.0" type="line"/>
      <point x="1076.3253012048192" y="705.0" type="line"/>
      <point x="740.9156626506024" y="43.72289156626506" type="line"/>
      <point x="770.2048192771084" y="43.72289156626506" type="line"/>
      <point x="651.6987951807229" y="705.0" type="line"/>
      <point x="599.6506024096386" y="705.0" type="line"/>
      <point x="259.7831325301205" y="43.72289156626506" type="line"/>
      <point x="292.07228915662654" y="43.72289156626506" type="line"/>
      <point x="172.02409638554215" y="705.0" type="line"/>
      <point x="110.10843373493975" y="705.0" type="line"/>
    </contour>
  </outline>
</glyph>
<glyph name="X" format="2">
  <advance width="643.8975903614457"/>
  <unicode hex="0058"/>
  <anchor x="282.12048192771084" y="0.0" name="bottom"/>
  <anchor x="394.12048192771084" y="705.0" name="top"/>
  <outline>
    <contour>
      <point x="-25.55421686746988" y="0.0" type="line"/>
      <point x="52.795180722891565" y="0.0" type="line"/>
      <point x="350.03614457831327" y="331.0120481927711" type="line"/>
      <point x="322.7710843373494" y="331.0120481927711" type="line"/>
      <point x="514.4457831325301" y="0.0" type="line"/>
      <point x="585.1084337349398" y="0.0" type="line"/>
      <point x="366.6746987951807" y="371.34939759036143" type="line"/>
      <point x="368.53012048192767" y="351.04819277108436" type="line"/>
      <point x="687.710843373494" y="705.0" type="line"/>
      <point x="609.132530120482" y="705.0" type="line"/>
      <point x="334.3734939759036" y="395.4698795180723" type="line"/>
      <point x="353.0120481927711" y="395.4698795180723" type="line"/>
      <point x="174.19277108433735" y="705.0" type="line"/>
      <point x="103.75903614457832" y="705.0" type="line"/>
      <point x="311.6506024096385" y="351.04819277108436" type="line"/>
      <point x="310.79518072289153" y="371.34939759036143" type="line"/>
    </contour>
  </outline>
</glyph>
<glyph name="Y" format="2">
  <advance width="596.6144578313254"/>
  <unicode hex="0059"/>
  <anchor x="259.03614457831327" y="0.0" name="bottom"/>
  <anchor x="370.8072289156627" y="705.0" name="top"/>
  <anchor x="90.5421686746988" y="705.0" name="topleft"/>
  <outline>
    <contour>
      <point x="226.96385542168673" y="0.0" type="line"/>
      <point x="288.87951807228916" y="0.0" type="line"/>
      <point x="341.10843373493975" y="327.6024096385542" type="line"/>
      <point x="319.8433734939759" y="279.5301204819277" type="line"/>
      <point x="673.7951807228916" y="705.0" type="line"/>
      <point x="601.132530120482" y="705.0" type="line"/>
      <point x="301.26506024096386" y="340.27710843373495" type="line"/>
      <point x="319.2409638554217" y="340.27710843373495" type="line"/>
      <point x="135.25301204819274" y="705.0" type="line"/>
      <point x="67.04819277108435" y="705.0" type="line"/>
      <point x="286.2530120481928" y="280.67469879518075" type="line"/>
      <point x="279.1927710843373" y="327.6024096385542" type="line"/>
    </contour>
  </outline>
</glyph>
<glyph name="Z" format="2">
  <advance width="590.2650602409639"/>
  <unicode hex="005A"/>
  <anchor x="257.89156626506025" y="0.0" name="bottom"/>
  <anchor x="369.89156626506025" y="705.0" name="top"/>
  <outline>
    <contour>
      <point x="2.686746987951807" y="0.0" type="line"/>
      <point x="512.8674698795181" y="0.0" type="line"/>
      <point x="521.3855421686748" y="54.566265060240966" type="line"/>
      <point x="73.66265060240964" y="54.566265060240966" type="line"/>
      <point x="69.97590361445783" y="27.674698795180724" type="line"/>
      <point x="606.8915662650602" y="659.5783132530121" type="line"/>
      <point x="614.1807228915662" y="705.0" type="line"/>
      <point x="114.6867469879518" y="705.0" type="line"/>
      <point x="105.39759036144578" y="650.433734939759" type="line"/>
      <point x="541.4337349397591" y="650.433734939759" type="line"/>
      <point x="545.8915662650603" y="677.5542168674699" type="line"/>
      <point x="9.975903614457831" y="45.65060240963855" type="line"/>
    </contour>
  </outline>
</glyph>
<glyph name="bracketleft" format="2">
  <advance width="300.0240963855422"/>
  <unicode hex="005B"/>
  <outline>
    <contour>
      <point x="39.168674698795186" y="-180.0" type="line"/>
      <point x="224.96385542168673" y="-180.0" type="line"/>
      <point x="233.02409638554215" y="-129.95180722891567" type="line"/>
      <point x="107.77108433734941" y="-129.95180722891567" type="line"/>
      <point x="231.65060240963857" y="654.9518072289156" type="line"/>
      <point x="356.9036144578313" y="654.9518072289156" type="line"/>
      <point x="364.96385542168673" y="705.0" type="line"/>
      <point x="179.1686746987952" y="705.0" type="line"/>
    </contour>
  </outline>
</glyph>
<glyph name="backslash" format="2">
  <advance width="271.93373493975906"/>
  <unicode hex="005C"/>
  <outline>
    <contour>
      <point x="192.6867469879518" y="-53.602409638554214" type="line"/>
      <point x="246.65060240963854" y="-53.602409638554214" type="line"/>
      <point x="110.27710843373494" y="745.8313253012049" type="line"/>
      <point x="56.313253012048186" y="745.8313253012049" type="line"/>
    </contour>
  </outline>
</glyph>
<glyph name="bracketright" format="2">
  <advance width="300.0240963855422"/>
  <unicode hex="005D"/>
  <outline>
    <contour>
      <point x="-61.93975903614457" y="-180.0" type="line"/>
      <point x="122.855421686747" y="-180.0" type="line"/>
      <point x="262.85542168674704" y="705.0" type="line"/>
      <point x="78.06024096385542" y="705.0" type="line"/>
      <point x="70.0" y="654.9518072289156" type="line"/>
      <point x="194.25301204819277" y="654.9518072289156" type="line"/>
      <point x="70.3734939759036" y="-129.95180722891567" type="line"/>
      <point x="-54.87951807228915" y="-129.95180722891567" type="line"/>
    </contour>
  </outline>
</glyph>
<glyph name="asciicircum" format="2">
  <advance width="600.0"/>
  <unicode hex="005E"/>
  <outline>
    <contour>
      <point x="28.313253012048193" y="140.0" type="line"/>
      <point x="85.90361445783132" y="140.0" type="line"/>
      <point x="372.578313253012" y="596.9397590361446" type="line"/>
      <point x="341.65060240963857" y="596.9397590361446" type="line"/>
      <point x="484.5542168674699" y="140.0" type="line"/>
      <point x="535.6867469879518" y="140.0" type="line"/>
      <point x="383.6385542168675" y="628.0" type="line"/>
      <point x="334.3614457831325" y="628.0" type="line"/>
    </contour>
  </outline>
</glyph>
<glyph name="underscore" format="2">
  <advance width="505.0"/>
  <unicode hex="005F"/>
  <outline>
    <contour>
      <point x="-40.77108433734939" y="-42.614457831325296" type="line"/>
      <point x="452.566265060241" y="-42.614457831325296" type="line"/>
      <point x="459.1686746987952" y="0.0" type="line"/>
      <point x="-34.16867469879518" y="0.0" type="line"/>
    </contour>
  </outline>
</glyph>
<glyph name="a" format="2">
  <advance width="591.4698795180723"/>
  <unicode hex="0061"/>
  <anchor x="248.89156626506025" y="0.0" name="bottom"/>
  <anchor x="279.8072289156627" y="253.2289156626506" name="center"/>
  <anchor x="463.2409638554217" y="0.0" name="ogonek"/>
  <anchor x="326.578313253012" y="484.0" name="top"/>
  <outline>
    <contour>
      <point x="238.6265060240964" y="-8.457831325301205" type="curve" smooth="yes"/>
      <point x="335.33734939759034" y="-8.457831325301205"/>
      <point x="405.73493975903614" y="41.93975903614457"/>
      <point x="441.81927710843377" y="125.50602409638554" type="curve"/>
      <point x="427.3614457831325" y="125.50602409638554" type="line"/>
      <point x="407.27710843373495" y="0.0" type="line"/>
      <point x="468.04819277108436" y="0.0" type="line"/>
      <point x="529.5903614457832" y="389.0240963855422" type="line" smooth="yes"/>
      <point x="535.0481927710844" y="424.6265060240964"/>
      <point x="545.0481927710844" y="463.0"/>
      <point x="555.277108433735" y="501.144578313253" type="curve"/>
      <point x="496.1927710843373" y="501.144578313253" type="line"/>
      <point x="465.87951807228916" y="375.86746987951807" type="line"/>
      <point x="477.421686746988" y="376.5542168674699" type="line"/>
      <point x="463.87951807228916" y="459.433734939759"/>
      <point x="399.87951807228916" y="509.6024096385542"/>
      <point x="308.9397590361446" y="509.6024096385542" type="curve" smooth="yes"/>
      <point x="177.93975903614458" y="509.6024096385542"/>
      <point x="78.48192771084337" y="422.51807228915663"/>
      <point x="52.253012048192765" y="261.8313253012048" type="curve" smooth="yes"/>
      <point x="24.48192771084337" y="90.28915662650603"/>
      <point x="99.6265060240964" y="-8.457831325301205"/>
    </contour>
    <contour>
      <point x="251.0963855421687" y="43.59036144578313" type="curve" smooth="yes"/>
      <point x="145.19277108433735" y="43.59036144578313"/>
      <point x="91.16867469879517" y="116.32530120481928"/>
      <point x="113.25301204819277" y="251.83132530120483" type="curve" smooth="yes"/>
      <point x="134.10843373493978" y="385.04819277108436"/>
      <point x="209.84337349397592" y="457.5542168674699"/>
      <point x="310.20481927710847" y="457.5542168674699" type="curve" smooth="yes"/>
      <point x="415.10843373493975" y="457.5542168674699"/>
      <point x="470.90361445783134" y="385.04819277108436"/>
      <point x="449.81927710843377" y="249.5421686746988" type="curve" smooth="yes"/>
      <point x="427.9638554216868" y="116.09638554216868"/>
      <point x="350.45783132530124" y="43.59036144578313"/>
    </contour>
  </outline>
</glyph>
<glyph name="c" format="2">
  <advance width="490.77710843373495"/>
  <unicode hex="0063"/>
  <anchor x="243.74698795180723" y="0.0" name="bottom"/>
  <anchor x="320.7469879518072" y="484.0" name="top"/>
  <outline>
    <contour>
      <point x="251.95180722891564" y="-8.457831325301205" type="curve" smooth="yes"/>
      <point x="314.2409638554217" y="-8.457831325301205"/>
      <point x="389.0120481927711" y="16.313253012048193"/>
      <point x="431.55421686746985" y="58.48192771084337" type="curve"/>
      <point x="407.12048192771084" y="103.6144578313253" type="line"/>
      <point x="361.7228915662651" y="61.36144578313253"/>
      <point x="306.55421686746985" y="44.04819277108434"/>
      <point x="257.3012048192771" y="44.04819277108434" type="curve" smooth="yes"/>
      <point x="149.65060240963854" y="44.04819277108434"/>
      <point x="92.08433734939759" y="119.3012048192771"/>
      <point x="113.71084337349397" y="254.3734939759036" type="curve" smooth="yes"/>
      <point x="134.56626506024097" y="385.04819277108436"/>
      <point x="211.67469879518072" y="457.32530120481925"/>
      <point x="319.0361445783132" y="457.32530120481925" type="curve" smooth="yes"/>
      <point x="362.12048192771084" y="457.32530120481925"/>
      <point x="409.66265060240966" y="441.7831325301205"/>
      <point x="447.0602409638554" y="405.07228915662654" type="curve"/>
      <point x="474.18072289156623" y="447.66265060240966" type="line"/>
      <point x="438.95180722891564" y="488.28915662650604"/>
      <point x="380.12048192771084" y="509.6024096385542"/>
      <point x="316.578313253012" y="509.6024096385542" type="curve" smooth="yes"/>
      <point x="178.45783132530119" y="509.6024096385542"/>
      <point x="78.25301204819277" y="422.28915662650604"/>
      <point x="52.253012048192765" y="261.8313253012048" type="curve" smooth="yes"/>
      <point x="24.48192771084337" y="90.51807228915663"/>
      <point x="106.77108433734941" y="-8.457831325301205"/>
    </contour>
  </outline>
</glyph>
<glyph name="d" format="2">
  <advance width="591.4698795180723"/>
  <unicode hex="0064"/>
  <anchor x="258.12048192771084" y="0.0" name="bottom"/>
  <anchor x="297.7469879518072" y="253.2289156626506" name="center"/>
  <anchor x="482.433734939759" y="601.9759036144578" name="stroke"/>
  <anchor x="363.34939759036143" y="675.4578313253012" name="top"/>
  <anchor x="637.0722891566265" y="736.0" name="topright"/>
  <outline>
    <contour>
      <point x="238.62650602409636" y="-8.457831325301205" type="curve" smooth="yes"/>
      <point x="335.3373493975904" y="-8.457831325301205"/>
      <point x="405.73493975903614" y="41.93975903614458"/>
      <point x="441.8192771084337" y="125.50602409638554" type="curve"/>
      <point x="427.5903614457831" y="125.50602409638554" type="line"/>
      <point x="407.50602409638554" y="0.0" type="line"/>
      <point x="468.04819277108436" y="0.0" type="line"/>
      <point x="585.0481927710844" y="736.0" type="line"/>
      <point x="524.0481927710844" y="736.0" type="line"/>
      <point x="467.1927710843374" y="376.5542168674699" type="line"/>
      <point x="477.421686746988" y="376.5542168674699" type="line"/>
      <point x="463.87951807228916" y="459.43373493975906"/>
      <point x="399.87951807228916" y="509.6024096385542"/>
      <point x="308.93975903614455" y="509.6024096385542" type="curve" smooth="yes"/>
      <point x="177.93975903614458" y="509.6024096385542"/>
      <point x="78.25301204819277" y="422.51807228915663"/>
      <point x="52.253012048192765" y="261.8313253012048" type="curve" smooth="yes"/>
      <point x="24.48192771084337" y="90.28915662650603"/>
      <point x="99.62650602409637" y="-8.457831325301205"/>
    </contour>
    <contour>
      <point x="251.09638554216866" y="43.59036144578313" type="curve" smooth="yes"/>
      <point x="145.19277108433732" y="43.59036144578313"/>
      <point x="91.16867469879517" y="116.32530120481928"/>
      <point x="113.25301204819277" y="251.83132530120483" type="curve" smooth="yes"/>
      <point x="134.10843373493978" y="385.04819277108436"/>
      <point x="209.8433734939759" y="457.5542168674699"/>
      <point x="310.2048192771084" y="457.5542168674699" type="curve" smooth="yes"/>
      <point x="415.10843373493975" y="457.5542168674699"/>
      <point x="470.90361445783134" y="385.04819277108436"/>
      <point x="449.8192771084337" y="249.5421686746988" type="curve" smooth="yes"/>
      <point x="427.96385542168673" y="116.09638554216868"/>
      <point x="350.4578313253012" y="43.59036144578313"/>
    </contour>
  </outline>
</glyph>
<glyph name="e" format="2">
  <advance width="542.6024096385543"/>
  <unicode hex="0065"/>
  <anchor x="247.06024096385545" y="0.0" name="bottom"/>
  <anchor x="321.32530120481925" y="0.0" name="ogonek"/>
  <anchor x="322.68674698795184" y="484.0" name="top"/>
  <outline>
    <contour>
      <point x="268.03614457831327" y="-8.457831325301205" type="curve" smooth="yes"/>
      <point x="341.49397590361446" y="-8.457831325301205"/>
      <point x="414.8072289156627" y="16.397590361445783"/>
      <point x="467.49397590361446" y="61.024096385542165" type="curve"/>
      <point x="442.28915662650604" y="105.6987951807229" type="line"/>
      <point x="392.9759036144578" y="60.674698795180724"/>
      <point x="332.1807228915663" y="43.59036144578313"/>
      <point x="272.46987951807233" y="43.59036144578313" type="curve" smooth="yes"/>
      <point x="149.13253012048193" y="43.59036144578313"/>
      <point x="92.56626506024095" y="116.46987951807229"/>
      <point x="110.65060240963855" y="248.2289156626506" type="curve" smooth="yes"/>
      <point x="113.33734939759036" y="267.3493975903615" type="line" smooth="yes"/>
      <point x="128.42168674698794" y="378.33734939759034"/>
      <point x="196.6987951807229" y="460.6144578313253"/>
      <point x="311.7710843373494" y="460.6144578313253" type="curve" smooth="yes"/>
      <point x="418.30120481927713" y="460.6144578313253"/>
      <point x="462.55421686746985" y="394.421686746988"/>
      <point x="446.2409638554217" y="278.8313253012048" type="curve"/>
      <point x="463.69879518072287" y="292.51807228915663" type="line"/>
      <point x="101.42168674698794" y="292.51807228915663" type="line"/>
      <point x="94.50602409638554" y="248.10843373493978" type="line"/>
      <point x="493.8915662650602" y="248.10843373493978" type="line"/>
      <point x="498.12048192771084" y="276.2530120481928" type="line" smooth="yes"/>
      <point x="518.8072289156627" y="415.0843373493976"/>
      <point x="450.9759036144578" y="509.6024096385542"/>
      <point x="316.0" y="509.6024096385542" type="curve" smooth="yes"/>
      <point x="175.16867469879517" y="509.6024096385542"/>
      <point x="78.02409638554217" y="419.6867469879518"/>
      <point x="53.253012048192765" y="265.6024096385542" type="curve" smooth="yes"/>
      <point x="26.25301204819277" y="95.83132530120481"/>
      <point x="106.7710843373494" y="-8.457831325301205"/>
    </contour>
  </outline>
</glyph>
<glyph name="f" format="2">
  <advance width="323.93373493975906"/>
  <unicode hex="0066"/>
  <anchor x="97.24096385542168" y="0.0" name="bottom"/>
  <anchor x="203.24096385542168" y="670.0" name="top"/>
  <outline>
    <contour>
      <point x="66.62650602409639" y="0.0" type="line"/>
      <point x="127.62650602409639" y="0.0" type="line"/>
      <point x="198.79518072289156" y="451.86746987951807" type="line"/>
      <point x="342.3614457831325" y="451.86746987951807" type="line"/>
      <point x="350.4216867469879" y="501.144578313253" type="line"/>
      <point x="196.33734939759034" y="501.144578313253" type="line"/>
      <point x="204.3975903614458" y="485.31325301204816" type="line"/>
      <point x="216.4819277108434" y="564.8192771084338" type="line" smooth="yes"/>
      <point x="229.7951807228916" y="645.6987951807229"/>
      <point x="271.3975903614458" y="686.8072289156627"/>
      <point x="338.0481927710843" y="686.8072289156627" type="curve" smooth="yes"/>
      <point x="362.5903614457831" y="686.8072289156627"/>
      <point x="384.9036144578313" y="681.0361445783133"/>
      <point x="399.3614457831325" y="674.2650602409639" type="curve"/>
      <point x="407.65060240963857" y="727.5421686746988" type="line"/>
      <point x="391.8192771084337" y="734.2289156626506"/>
      <point x="363.13253012048193" y="740.0"/>
      <point x="339.5301204819277" y="740.0" type="curve" smooth="yes"/>
      <point x="238.6024096385542" y="740.0"/>
      <point x="175.3975903614458" y="683.1686746987951"/>
      <point x="158.48192771084337" y="580.4457831325302" type="curve" smooth="yes"/>
      <point x="143.16867469879517" y="485.33734939759034" type="line"/>
      <point x="161.57831325301203" y="501.144578313253" type="line"/>
      <point x="46.54216867469879" y="501.144578313253" type="line"/>
      <point x="38.48192771084337" y="451.86746987951807" type="line"/>
      <point x="137.79518072289156" y="451.86746987951807" type="line"/>
    </contour>
  </outline>
</glyph>
<glyph name="g" format="2">
  <advance width="595.0120481927711"/>
  <unicode hex="0067"/>
  <anchor x="337.34939759036143" y="484.0" name="top"/>
  <outline>
    <contour>
      <point x="225.51807228915663" y="-223.2289156626506" type="curve" smooth="yes"/>
      <point x="365.3855421686747" y="-223.2289156626506"/>
      <point x="449.04819277108436" y="-149.02409638554218"/>
      <point x="471.7349397590362" y="-5.445783132530121" type="curve" smooth="yes"/>
      <point x="534.132530120482" y="389.0240963855422" type="line" smooth="yes"/>
      <point x="539.3614457831326" y="424.6265060240964"/>
      <point x="549.3614457831326" y="463.0"/>
      <point x="559.8192771084338" y="501.144578313253" type="curve"/>
      <point x="500.50602409638554" y="501.144578313253" type="line"/>
      <point x="473.1927710843374" y="386.4096385542169" type="line"/>
      <point x="480.96385542168673" y="375.0120481927711" type="line"/>
      <point x="469.96385542168673" y="459.43373493975906"/>
      <point x="405.1927710843373" y="509.6024096385542"/>
      <point x="311.710843373494" y="509.6024096385542" type="curve" smooth="yes"/>
      <point x="178.48192771084337" y="509.6024096385542"/>
      <point x="78.48192771084337" y="424.28915662650604"/>
      <point x="54.253012048192765" y="272.06024096385545" type="curve" smooth="yes"/>
      <point x="29.566265060240962" y="117.0843373493976"/>
      <point x="104.85542168674698" y="11.457831325301203"/>
      <point x="243.3975903614458" y="11.457831325301203" type="curve" smooth="yes"/>
      <point x="335.566265060241" y="11.457831325301203"/>
      <point x="413.2771084337349" y="61.85542168674699"/>
      <point x="446.9036144578313" y="145.27710843373495" type="curve"/>
      <point x="435.13253012048193" y="145.27710843373495" type="line"/>
      <point x="409.9638554216868" y="-14.27710843373494" type="line" smooth="yes"/>
      <point x="393.65060240963857" y="-115.6987951807229"/>
      <point x="332.855421686747" y="-171.18072289156626"/>
      <point x="230.6867469879518" y="-171.18072289156626" type="curve" smooth="yes"/>
      <point x="155.74698795180723" y="-171.18072289156626"/>
      <point x="105.31325301204821" y="-153.95180722891567"/>
      <point x="48.915662650602414" y="-108.24096385542168" type="curve"/>
      <point x="23.710843373493976" y="-155.289156626506" type="line"/>
      <point x="73.855421686747" y="-200.9156626506024"/>
      <point x="143.5421686746988" y="-223.2289156626506"/>
    </contour>
    <contour>
      <point x="253.32530120481928" y="63.27710843373494" type="curve" smooth="yes"/>
      <point x="149.19277108433735" y="63.27710843373494"/>
      <point x="94.39759036144578" y="136.24096385542168"/>
      <point x="114.25301204819277" y="261.144578313253" type="curve" smooth="yes"/>
      <point x="134.10843373493978" y="385.5903614457831"/>
      <point x="210.6144578313253" y="457.5542168674699"/>
      <point x="314.7469879518072" y="457.5542168674699" type="curve" smooth="yes"/>
      <point x="418.10843373493975" y="457.5542168674699"/>
      <point x="472.6746987951807" y="385.5903614457831"/>
      <point x="452.8192771084337" y="260.45783132530124" type="curve" smooth="yes"/>
      <point x="433.1927710843373" y="136.24096385542168"/>
      <point x="356.68674698795184" y="63.27710843373494"/>
    </contour>
  </outline>
</glyph>
<glyph name="h" format="2">
  <advance width="577.4397590361446"/>
  <unicode hex="0068"/>
  <anchor x="249.89156626506025" y="0.0" name="bottom"/>
  <anchor x="290.12048192771084" y="253.6867469879518" name="center"/>
  <anchor x="249.66265060240966" y="364.7710843373494" name="dot"/>
  <anchor x="219.26506024096386" y="582.9759036144578" name="stroke"/>
  <anchor x="366.1204819277109" y="708.6626506024096" name="top"/>
  <anchor x="257.3614457831325" y="708.6626506024096" name="topright"/>
  <outline>
    <contour>
      <point x="43.421686746987945" y="0.0" type="line"/>
      <point x="104.42168674698794" y="0.0" type="line"/>
      <point x="150.42168674698794" y="289.31325301204816" type="line" smooth="yes"/>
      <point x="166.27710843373492" y="390.4457831325301"/>
      <point x="237.01204819277106" y="457.09638554216866"/>
      <point x="338.9156626506024" y="457.09638554216866" type="curve" smooth="yes"/>
      <point x="427.5903614457831" y="457.09638554216866"/>
      <point x="461.5301204819277" y="414.8433734939759"/>
      <point x="444.67469879518075" y="306.3975903614458" type="curve" smooth="yes"/>
      <point x="396.13253012048193" y="0.0" type="line"/>
      <point x="457.13253012048193" y="0.0" type="line"/>
      <point x="505.67469879518075" y="307.93975903614455" type="line" smooth="yes"/>
      <point x="526.3614457831326" y="436.83132530120486"/>
      <point x="480.9879518072289" y="509.6024096385542"/>
      <point x="357.4457831325301" y="509.6024096385542" type="curve" smooth="yes"/>
      <point x="264.96385542168673" y="509.6024096385542"/>
      <point x="191.10843373493975" y="466.2048192771084"/>
      <point x="151.10843373493978" y="384.72289156626505" type="curve"/>
      <point x="165.33734939759034" y="384.72289156626505" type="line"/>
      <point x="221.42168674698794" y="736.0" type="line"/>
      <point x="160.42168674698794" y="736.0" type="line"/>
    </contour>
  </outline>
</glyph>
<glyph name="i" format="2">
  <advance width="227.8433734939759"/>
  <unicode hex="0069"/>
  <anchor x="79.34939759036145" y="0.0" name="bottom"/>
  <anchor x="99.46987951807228" y="0.0" name="ogonek"/>
  <anchor x="151.03614457831327" y="484.0" name="top"/>
  <outline>
    <contour>
      <point x="43.421686746987945" y="0.0" type="line"/>
      <point x="104.42168674698794" y="0.0" type="line"/>
      <point x="183.65060240963854" y="501.144578313253" type="line"/>
      <point x="122.65060240963855" y="501.144578313253" type="line"/>
    </contour>
    <contour>
      <point x="132.19277108433732" y="623.9036144578313" type="line"/>
      <point x="213.36144578313252" y="623.9036144578313" type="line"/>
      <point x="225.65060240963857" y="700.4096385542168" type="line"/>
      <point x="144.48192771084337" y="700.4096385542168" type="line"/>
    </contour>
  </outline>
</glyph>
<glyph name="j" format="2">
  <advance width="227.7289156626506"/>
  <unicode hex="006A"/>
  <anchor x="80.66265060240964" y="0.0" name="bottom"/>
  <anchor x="157.66265060240966" y="484.0" name="top"/>
  <outline>
    <contour>
      <point x="-64.16867469879519" y="-218.9156626506024" type="curve" smooth="yes"/>
      <point x="28.530120481927714" y="-218.9156626506024"/>
      <point x="85.50602409638556" y="-162.3975903614458"/>
      <point x="102.42168674698796" y="-53.36144578313253" type="curve" smooth="yes"/>
      <point x="190.50602409638554" y="501.144578313253" type="line"/>
      <point x="129.50602409638554" y="501.144578313253" type="line"/>
      <point x="43.192771084337345" y="-44.81927710843374" type="line" smooth="yes"/>
      <point x="29.879518072289155" y="-128.46987951807228"/>
      <point x="-2.3493975903614475" y="-165.49397590361446"/>
      <point x="-61.915662650602414" y="-165.49397590361446" type="curve" smooth="yes"/>
      <point x="-79.37349397590361" y="-165.49397590361446"/>
      <point x="-103.2289156626506" y="-159.95180722891567"/>
      <point x="-117.6867469879518" y="-153.95180722891567" type="curve"/>
      <point x="-126.74698795180723" y="-207.4578313253012" type="line"/>
      <point x="-110.9156626506024" y="-215.91566265060243"/>
      <point x="-80.6867469879518" y="-218.9156626506024"/>
    </contour>
    <contour>
      <point x="138.8192771084337" y="623.9036144578313" type="line"/>
      <point x="219.9879518072289" y="623.9036144578313" type="line"/>
      <point x="232.27710843373495" y="700.4096385542168" type="line"/>
      <point x="151.10843373493975" y="700.4096385542168" type="line"/>
    </contour>
  </outline>
</glyph>
<glyph name="l" format="2">
  <advance width="227.7289156626506"/>
  <unicode hex="006C"/>
  <anchor x="74.03614457831326" y="0.0" name="bottom"/>
  <anchor x="131.26506024096386" y="359.51807228915663" name="center"/>
  <anchor x="258.28915662650604" y="356.31325301204816" name="dot"/>
  <anchor x="186.49397590361448" y="708.6626506024096" name="top"/>
  <anchor x="271.13253012048193" y="736.0" name="topright"/>
  <outline>
    <contour>
      <point x="43.421686746987945" y="0.0" type="line"/>
      <point x="104.42168674698794" y="0.0" type="line"/>
      <point x="221.42168674698794" y="736.0" type="line"/>
      <point x="160.42168674698794" y="736.0" type="line"/>
    </contour>
  </outline>
</glyph>
<glyph name="m" format="2">
  <advance width="868.9277108433735"/>
  <unicode hex="006D"/>
  <anchor x="394.578313253012" y="0.0" name="bottom"/>
  <anchor x="471.578313253012" y="484.0" name="top"/>
  <outline>
    <contour>
      <point x="43.421686746987945" y="0.0" type="line"/>
      <point x="104.42168674698794" y="0.0" type="line"/>
      <point x="150.19277108433735" y="286.6265060240964" type="line" smooth="yes"/>
      <point x="166.27710843373492" y="390.4457831325301"/>
      <point x="230.0120481927711" y="457.09638554216866"/>
      <point x="321.06024096385545" y="457.09638554216866" type="curve" smooth="yes"/>
      <point x="403.4216867469879" y="457.09638554216866"/>
      <point x="430.5903614457831" y="412.84337349397595"/>
      <point x="414.50602409638554" y="311.71084337349396" type="curve" smooth="yes"/>
      <point x="364.96385542168673" y="0.0" type="line"/>
      <point x="425.96385542168673" y="0.0" type="line"/>
      <point x="471.73493975903614" y="286.6265060240964" type="line" smooth="yes"/>
      <point x="487.8192771084337" y="390.4457831325301"/>
      <point x="552.5542168674699" y="457.09638554216866"/>
      <point x="643.3734939759036" y="457.09638554216866" type="curve" smooth="yes"/>
      <point x="724.9638554216867" y="457.09638554216866"/>
      <point x="752.9036144578313" y="412.84337349397595"/>
      <point x="737.0481927710844" y="311.71084337349396" type="curve" smooth="yes"/>
      <point x="687.5060240963855" y="0.0" type="line"/>
      <point x="748.5060240963855" y="0.0" type="line"/>
      <point x="797.277108433735" y="305.93975903614455" type="line" smooth="yes"/>
      <point x="819.5060240963855" y="446.4578313253012"/>
      <point x="767.9638554216867" y="509.6024096385542"/>
      <point x="658.9036144578314" y="509.6024096385542" type="curve" smooth="yes"/>
      <point x="571.9638554216867" y="509.6024096385542"/>
      <point x="497.73493975903614" y="458.2048192771084"/>
      <point x="463.5903614457831" y="383.34939759036143" type="curve"/>
      <point x="476.73493975903614" y="383.34939759036143" type="line"/>
      <point x="475.13253012048193" y="465.9759036144578"/>
      <point x="423.90361445783134" y="509.6024096385542"/>
      <point x="338.50602409638554" y="509.6024096385542" type="curve" smooth="yes"/>
      <point x="255.42168674698794" y="509.6024096385542"/>
      <point x="189.33734939759037" y="467.2048192771084"/>
      <point x="151.10843373493978" y="385.72289156626505" type="curve"/>
      <point x="164.87951807228916" y="385.72289156626505" type="line"/>
      <point x="173.96385542168673" y="501.144578313253" type="line"/>
      <point x="114.65060240963855" y="501.144578313253" type="line"/>
      <point x="112.65060240963855" y="463.0"/>
      <point x="110.19277108433734" y="424.6265060240964"/>
      <point x="104.96385542168674" y="389.0240963855422" type="curve" smooth="yes"/>
    </contour>
  </outline>
</glyph>
<glyph name="n" format="2">
  <advance width="577.4397590361446"/>
  <unicode hex="006E"/>
  <anchor x="248.12048192771084" y="0.0" name="bottom"/>
  <anchor x="325.12048192771084" y="484.0" name="top"/>
  <outline>
    <contour>
      <point x="43.421686746987945" y="0.0" type="line"/>
      <point x="104.42168674698794" y="0.0" type="line"/>
      <point x="150.42168674698794" y="289.31325301204816" type="line" smooth="yes"/>
      <point x="166.27710843373492" y="390.4457831325301"/>
      <point x="237.0120481927711" y="457.09638554216866"/>
      <point x="338.91566265060237" y="457.09638554216866" type="curve" smooth="yes"/>
      <point x="427.3614457831325" y="457.09638554216866"/>
      <point x="461.5301204819277" y="414.84337349397595"/>
      <point x="444.67469879518075" y="306.3975903614458" type="curve" smooth="yes"/>
      <point x="396.13253012048193" y="0.0" type="line"/>
      <point x="457.13253012048193" y="0.0" type="line"/>
      <point x="505.67469879518075" y="307.93975903614455" type="line" smooth="yes"/>
      <point x="526.3614457831326" y="436.8313253012048"/>
      <point x="480.9879518072289" y="509.6024096385542"/>
      <point x="357.4457831325301" y="509.6024096385542" type="curve" smooth="yes"/>
      <point x="264.96385542168673" y="509.6024096385542"/>
      <point x="191.10843373493975" y="466.2048192771084"/>
      <point x="151.10843373493978" y="384.72289156626505" type="curve"/>
      <point x="164.87951807228916" y="385.72289156626505" type="line"/>
      <point x="173.96385542168673" y="501.144578313253" type="line"/>
      <point x="114.65060240963855" y="501.144578313253" type="line"/>
      <point x="112.65060240963855" y="463.0"/>
      <point x="110.19277108433734" y="424.6265060240964"/>
      <point x="104.96385542168674" y="389.0240963855422" type="curve" smooth="yes"/>
    </contour>
  </outline>
</glyph>
<glyph name="o" format="2">
  <advance width="561.9277108433735"/>
  <unicode hex="006F"/>
  <anchor x="241.57831325301203" y="0.0" name="bottom"/>
  <anchor x="280.578313253012" y="250.6867469879518" name="center"/>
  <anchor x="296.8072289156627" y="0.0" name="ogonek"/>
  <anchor x="318.578313253012" y="484.0" name="top"/>
  <anchor x="369.4096385542169" y="500.0" name="topright"/>
  <outline>
    <contour>
      <point x="245.95180722891564" y="-8.457831325301205" type="curve" smooth="yes"/>
      <point x="380.3855421686747" y="-8.457831325301205"/>
      <point x="482.90361445783134" y="79.08433734939759"/>
      <point x="508.90361445783134" y="239.5421686746988" type="curve" smooth="yes"/>
      <point x="535.9036144578314" y="411.7710843373494"/>
      <point x="459.6144578313253" y="509.6024096385542"/>
      <point x="314.6626506024096" y="509.6024096385542" type="curve" smooth="yes"/>
      <point x="180.2289156626506" y="509.6024096385542"/>
      <point x="78.25301204819277" y="422.28915662650604"/>
      <point x="52.253012048192765" y="261.8313253012048" type="curve" smooth="yes"/>
      <point x="25.25301204819277" y="89.37349397590361"/>
      <point x="101.0" y="-8.457831325301205"/>
    </contour>
    <contour>
      <point x="250.63855421686745" y="43.59036144578313" type="curve" smooth="yes"/>
      <point x="144.96385542168673" y="43.59036144578313"/>
      <point x="91.16867469879517" y="116.32530120481928"/>
      <point x="113.25301204819277" y="251.83132530120483" type="curve" smooth="yes"/>
      <point x="134.10843373493978" y="385.04819277108436"/>
      <point x="209.6144578313253" y="457.5542168674699"/>
      <point x="309.7469879518072" y="457.5542168674699" type="curve" smooth="yes"/>
      <point x="414.4216867469879" y="457.5542168674699"/>
      <point x="469.9879518072289" y="385.04819277108436"/>
      <point x="448.90361445783134" y="249.5421686746988" type="curve" smooth="yes"/>
      <point x="427.04819277108436" y="116.09638554216868"/>
      <point x="349.7710843373494" y="43.59036144578313"/>
    </contour>
  </outline>
</glyph>
<glyph name="p" format="2">
  <advance width="591.4698795180723"/>
  <unicode hex="0070"/>
  <anchor x="253.97590361445782" y="0.0" name="bottom"/>
  <anchor x="330.9759036144578" y="484.0" name="top"/>
  <outline>
    <contour>
      <point x="9.421686746987945" y="-216.0" type="line"/>
      <point x="70.42168674698794" y="-216.0" type="line"/>
      <point x="124.50602409638553" y="124.81927710843374" type="line"/>
      <point x="114.27710843373494" y="124.81927710843374" type="line"/>
      <point x="127.81927710843374" y="41.71084337349397"/>
      <point x="191.81927710843374" y="-8.457831325301205"/>
      <point x="282.75903614457826" y="-8.457831325301205" type="curve" smooth="yes"/>
      <point x="413.7590361445783" y="-8.457831325301205"/>
      <point x="513.2168674698795" y="78.855421686747"/>
      <point x="539.4457831325301" y="239.5421686746988" type="curve" smooth="yes"/>
      <point x="567.2168674698795" y="410.855421686747"/>
      <point x="492.0722891566265" y="509.6024096385542"/>
      <point x="353.0722891566265" y="509.6024096385542" type="curve" smooth="yes"/>
      <point x="256.3614457831325" y="509.6024096385542"/>
      <point x="185.96385542168673" y="459.2048192771084"/>
      <point x="149.87951807228916" y="375.86746987951807" type="curve"/>
      <point x="164.10843373493978" y="375.86746987951807" type="line"/>
      <point x="173.96385542168673" y="501.144578313253" type="line"/>
      <point x="114.65060240963855" y="501.144578313253" type="line"/>
      <point x="112.65060240963855" y="463.0"/>
      <point x="110.42168674698794" y="424.6265060240964"/>
      <point x="104.96385542168674" y="389.0240963855422" type="curve" smooth="yes"/>
    </contour>
    <contour>
      <point x="281.4939759036145" y="43.59036144578313" type="curve" smooth="yes"/>
      <point x="176.59036144578312" y="43.59036144578313"/>
      <point x="120.79518072289157" y="116.32530120481928"/>
      <point x="141.87951807228916" y="251.83132530120483" type="curve" smooth="yes"/>
      <point x="162.73493975903614" y="385.04819277108436"/>
      <point x="241.24096385542168" y="457.5542168674699"/>
      <point x="340.60240963855426" y="457.5542168674699" type="curve" smooth="yes"/>
      <point x="446.50602409638554" y="457.5542168674699"/>
      <point x="500.5301204819277" y="385.04819277108436"/>
      <point x="478.44578313253015" y="249.5421686746988" type="curve" smooth="yes"/>
      <point x="456.5903614457832" y="116.09638554216868"/>
      <point x="381.85542168674704" y="43.59036144578313"/>
    </contour>
  </outline>
</glyph>
<glyph name="r" format="2">
  <advance width="348.93373493975906"/>
  <unicode hex="0072"/>
  <anchor x="72.26506024096386" y="0.0" name="bottom"/>
  <anchor x="252.09638554216866" y="484.0" name="top"/>
  <outline>
    <contour>
      <point x="41.65060240963855" y="0.0" type="line"/>
      <point x="102.87951807228916" y="0.0" type="line"/>
      <point x="152.04819277108433" y="308.32530120481925" type="line" smooth="yes"/>
      <point x="164.50602409638554" y="386.8433734939759"/>
      <point x="227.9036144578313" y="455.49397590361446"/>
      <point x="322.78313253012044" y="455.49397590361446" type="curve" smooth="yes"/>
      <point x="341.8433734939759" y="455.49397590361446"/>
      <point x="357.84337349397595" y="454.26506024096386"/>
      <point x="371.90361445783134" y="449.12048192771084" type="curve"/>
      <point x="383.1927710843373" y="504.6024096385542" type="line"/>
      <point x="368.1927710843373" y="508.3734939759036"/>
      <point x="353.73493975903614" y="509.6024096385542"/>
      <point x="337.2771084337349" y="509.6024096385542" type="curve" smooth="yes"/>
      <point x="262.7590361445783" y="509.6024096385542"/>
      <point x="184.59036144578312" y="469.31325301204816"/>
      <point x="152.67469879518072" y="384.73493975903614" type="curve"/>
      <point x="165.42168674698794" y="385.50602409638554" type="line"/>
      <point x="173.96385542168673" y="501.144578313253" type="line"/>
      <point x="114.65060240963855" y="501.144578313253" type="line"/>
      <point x="112.65060240963855" y="463.0"/>
      <point x="108.42168674698794" y="421.855421686747"/>
      <point x="102.42168674698794" y="383.71084337349396" type="curve" smooth="yes"/>
    </contour>
  </outline>
</glyph>
<glyph name="s" format="2">
  <advance width="493.9457831325301"/>
  <unicode hex="0073"/>
  <anchor x="204.9156626506024" y="0.0" name="bottom"/>
  <anchor x="289.91566265060237" y="484.0" name="top"/>
  <outline>
    <contour>
      <point x="210.8313253012048" y="-8.457831325301205" type="curve" smooth="yes"/>
      <point x="326.433734939759" y="-8.457831325301205"/>
      <point x="404.09638554216866" y="45.31325301204819"/>
      <point x="416.78313253012044" y="126.89156626506025" type="curve" smooth="yes"/>
      <point x="429.0120481927711" y="200.72289156626505"/>
      <point x="390.7831325301205" y="250.18072289156626"/>
      <point x="288.4698795180723" y="267.7228915662651" type="curve" smooth="yes"/>
      <point x="217.80722891566265" y="280.18072289156623" type="line" smooth="yes"/>
      <point x="161.3855421686747" y="290.26506024096386"/>
      <point x="140.9879518072289" y="322.51807228915663"/>
      <point x="148.3012048192771" y="369.93975903614455" type="curve" smooth="yes"/>
      <point x="156.6144578313253" y="421.5903614457831"/>
      <point x="205.72289156626505" y="459.3855421686747"/>
      <point x="286.6024096385542" y="459.3855421686747" type="curve" smooth="yes"/>
      <point x="341.2289156626506" y="459.3855421686747"/>
      <point x="389.8313253012048" y="441.3855421686747"/>
      <point x="425.06024096385545" y="410.53012048192767" type="curve"/>
      <point x="451.95180722891564" y="455.51807228915663" type="line"/>
      <point x="419.6626506024096" y="485.9759036144578"/>
      <point x="359.0602409638554" y="509.6024096385542"/>
      <point x="286.60240963855426" y="509.6024096385542" type="curve" smooth="yes"/>
      <point x="183.710843373494" y="509.6024096385542"/>
      <point x="101.96385542168674" y="458.6867469879518"/>
      <point x="88.50602409638554" y="374.48192771084337" type="curve" smooth="yes"/>
      <point x="76.50602409638554" y="298.33734939759034"/>
      <point x="111.96385542168676" y="242.33734939759034"/>
      <point x="211.50602409638554" y="226.33734939759037" type="curve" smooth="yes"/>
      <point x="279.39759036144574" y="214.87951807228916" type="line" smooth="yes"/>
      <point x="341.90361445783134" y="204.79518072289156"/>
      <point x="365.30120481927713" y="174.5421686746988"/>
      <point x="357.98795180722897" y="127.66265060240964" type="curve" smooth="yes"/>
      <point x="349.67469879518075" y="76.01204819277109"/>
      <point x="298.0240963855421" y="41.98795180722892"/>
      <point x="215.289156626506" y="41.98795180722892" type="curve" smooth="yes"/>
      <point x="154.289156626506" y="41.98795180722892"/>
      <point x="99.45783132530121" y="60.98795180722892"/>
      <point x="56.54216867469879" y="94.8433734939759" type="curve"/>
      <point x="31.108433734939762" y="49.397590361445786" type="line"/>
      <point x="68.71084337349397" y="14.855421686746988"/>
      <point x="137.85542168674698" y="-8.457831325301205"/>
    </contour>
  </outline>
</glyph>
<glyph name="t" format="2">
  <advance width="336.5903614457831"/>
  <unicode hex="0074"/>
  <anchor x="177.63855421686748" y="0.0" name="bottom"/>
  <anchor x="168.63855421686745" y="278.48192771084337" name="center"/>
  <anchor x="199.24096385542168" y="646.0" name="top"/>
  <anchor x="317.5903614457832" y="708.6626506024096" name="topright"/>
  <outline>
    <contour>
      <point x="213.0722891566265" y="-8.457831325301205" type="curve" smooth="yes"/>
      <point x="237.30120481927713" y="-8.457831325301205"/>
      <point x="256.90361445783134" y="-3.6867469879518073"/>
      <point x="274.96385542168673" y="4.0" type="curve"/>
      <point x="283.2530120481928" y="57.506024096385545" type="line"/>
      <point x="266.566265060241" y="50.506024096385545"/>
      <point x="244.93975903614458" y="44.963855421686745"/>
      <point x="219.6265060240964" y="44.963855421686745" type="curve" smooth="yes"/>
      <point x="160.83132530120483" y="44.963855421686745"/>
      <point x="140.4578313253012" y="81.75903614457832"/>
      <point x="153.7710843373494" y="165.40963855421688" type="curve" smooth="yes"/>
      <point x="198.79518072289156" y="451.86746987951807" type="line"/>
      <point x="346.90361445783134" y="451.86746987951807" type="line"/>
      <point x="354.96385542168673" y="501.144578313253" type="line"/>
      <point x="206.85542168674698" y="501.144578313253" type="line"/>
      <point x="232.0843373493976" y="660.6024096385543" type="line"/>
      <point x="168.3975903614458" y="640.9397590361446" type="line"/>
      <point x="145.85542168674698" y="501.144578313253" type="line"/>
      <point x="46.54216867469879" y="501.144578313253" type="line"/>
      <point x="38.48192771084337" y="451.86746987951807" type="line"/>
      <point x="137.79518072289156" y="451.86746987951807" type="line"/>
      <point x="90.7710843373494" y="154.86746987951807" type="line" smooth="yes"/>
      <point x="74.08433734939759" y="46.204819277108435"/>
      <point x="114.28915662650603" y="-8.457831325301205"/>
    </contour>
  </outline>
</glyph>
<glyph name="u" format="2">
  <advance width="568.8975903614457"/>
  <unicode hex="0075"/>
  <anchor x="244.89156626506025" y="0.0" name="bottom"/>
  <anchor x="438.72289156626505" y="0.0" name="ogonek"/>
  <anchor x="321.89156626506025" y="485.0" name="top"/>
  <anchor x="470.68674698795184" y="500.0" name="topright"/>
  <outline>
    <contour>
      <point x="226.25301204819277" y="-8.457831325301205" type="curve" smooth="yes"/>
      <point x="309.87951807228916" y="-8.457831325301205"/>
      <point x="381.1325301204819" y="37.16867469879518"/>
      <point x="419.3614457831325" y="117.65060240963855" type="curve"/>
      <point x="404.3614457831325" y="117.65060240963855" type="line"/>
      <point x="386.04819277108436" y="0.0" type="line"/>
      <point x="445.5903614457831" y="0.0" type="line"/>
      <point x="524.8192771084338" y="501.144578313253" type="line"/>
      <point x="463.8192771084337" y="501.144578313253" type="line"/>
      <point x="418.8192771084337" y="215.60240963855424" type="line" smooth="yes"/>
      <point x="401.96385542168673" y="111.6987951807229"/>
      <point x="335.2289156626506" y="44.27710843373494"/>
      <point x="237.3253012048193" y="44.27710843373494" type="curve" smooth="yes"/>
      <point x="149.73493975903614" y="44.27710843373494"/>
      <point x="116.02409638554217" y="89.07228915662651"/>
      <point x="132.65060240963854" y="198.3734939759036" type="curve" smooth="yes"/>
      <point x="180.65060240963854" y="501.144578313253" type="line"/>
      <point x="119.65060240963855" y="501.144578313253" type="line"/>
      <point x="70.87951807228914" y="194.06024096385542" type="line" smooth="yes"/>
      <point x="48.87951807228915" y="53.28915662650602"/>
      <point x="110.19277108433734" y="-8.457831325301205"/>
    </contour>
  </outline>
</glyph>
<glyph name="v" format="2">
  <advance width="525.3795180722891"/>
  <unicode hex="0076"/>
  <anchor x="222.97590361445782" y="0.0" name="bottom"/>
  <anchor x="299.9759036144578" y="484.0" name="top"/>
  <outline>
    <contour>
      <point x="191.42168674698794" y="0.0" type="line"/>
      <point x="253.6144578313253" y="0.0" type="line"/>
      <point x="546.4457831325301" y="501.144578313253" type="line"/>
      <point x="479.13253012048193" y="501.144578313253" type="line"/>
      <point x="214.03614457831324" y="37.51807228915662" type="line"/>
      <point x="239.63855421686748" y="37.51807228915662" type="line"/>
      <point x="122.27710843373494" y="501.144578313253" type="line"/>
      <point x="57.506024096385545" y="501.144578313253" type="line"/>
    </contour>
  </outline>
</glyph>
<glyph name="w" format="2">
  <advance width="862.9518072289156"/>
  <unicode hex="0077"/>
  <anchor x="391.2048192771084" y="0.0" name="bottom"/>
  <anchor x="468.2048192771084" y="484.0" name="top"/>
  <outline>
    <contour>
      <point x="175.710843373494" y="0.0" type="line"/>
      <point x="240.4457831325301" y="0.0" type="line"/>
      <point x="484.83132530120486" y="470.6265060240964" type="line"/>
      <point x="449.33734939759034" y="470.6265060240964" type="line"/>
      <point x="542.7349397590361" y="0.0" type="line"/>
      <point x="606.4698795180723" y="0.0" type="line"/>
      <point x="867.277108433735" y="501.144578313253" type="line"/>
      <point x="801.4216867469879" y="501.144578313253" type="line"/>
      <point x="565.0361445783133" y="36.433734939759034" type="line"/>
      <point x="591.1204819277108" y="36.433734939759034" type="line"/>
      <point x="500.3253012048193" y="501.144578313253" type="line"/>
      <point x="439.855421686747" y="501.144578313253" type="line"/>
      <point x="198.9277108433735" y="36.433734939759034" type="line"/>
      <point x="224.92771084337346" y="36.433734939759034" type="line"/>
      <point x="137.2168674698795" y="501.144578313253" type="line"/>
      <point x="74.13253012048193" y="501.144578313253" type="line"/>
    </contour>
  </outline>
</glyph>
<glyph name="x" format="2">
  <advance width="528.066265060241"/>
  <unicode hex="0078"/>
  <anchor x="223.74698795180723" y="0.0" name="bottom"/>
  <anchor x="300.7469879518072" y="484.0" name="top"/>
  <outline>
    <contour>
      <point x="-21.6144578313253" y="0.0" type="line"/>
      <point x="56.04819277108434" y="0.0" type="line"/>
      <point x="272.26506024096386" y="227.21686746987953" type="line"/>
      <point x="250.16867469879517" y="227.21686746987953" type="line"/>
      <point x="392.90361445783134" y="0.0" type="line"/>
      <point x="464.65060240963857" y="0.0" type="line"/>
      <point x="289.7590361445783" y="272.03614457831327" type="line"/>
      <point x="288.8433734939759" y="244.33734939759037" type="line"/>
      <point x="535.1084337349397" y="501.144578313253" type="line"/>
      <point x="457.44578313253015" y="501.144578313253" type="line"/>
      <point x="256.4578313253012" y="287.9277108433735" type="line"/>
      <point x="278.0963855421687" y="287.9277108433735" type="line"/>
      <point x="143.81927710843374" y="501.144578313253" type="line"/>
      <point x="73.7590361445783" y="501.144578313253" type="line"/>
      <point x="241.96385542168676" y="242.02409638554218" type="line"/>
      <point x="242.42168674698794" y="275.12048192771084" type="line"/>
    </contour>
  </outline>
</glyph>
<glyph name="y" format="2">
  <advance width="525.2650602409639"/>
  <unicode hex="0079"/>
  <anchor x="352.69879518072287" y="0.0" name="bottom"/>
  <anchor x="298.7469879518072" y="484.0" name="top"/>
  <outline>
    <contour>
      <point x="-14.686746987951809" y="-227.0" type="line"/>
      <point x="85.80722891566265" y="-208.0"/>
      <point x="156.4698795180723" y="-168.9156626506024"/>
      <point x="227.04819277108436" y="-48.04819277108434" type="curve" smooth="yes"/>
      <point x="546.4457831325301" y="501.144578313253" type="line"/>
      <point x="478.13253012048193" y="501.144578313253" type="line"/>
      <point x="216.03614457831324" y="37.74698795180723" type="line"/>
      <point x="240.40963855421688" y="37.74698795180723" type="line"/>
      <point x="122.27710843373494" y="501.144578313253" type="line"/>
      <point x="57.27710843373494" y="501.144578313253" type="line"/>
      <point x="194.73493975903614" y="-12.397590361445783" type="line"/>
      <point x="197.65060240963857" y="15.012048192771084" type="line"/>
      <point x="162.87951807228916" y="-44.75903614457832" type="line" smooth="yes"/>
      <point x="118.25301204819279" y="-121.01204819277109"/>
      <point x="71.02409638554217" y="-152.95180722891567"/>
      <point x="-26.20481927710843" y="-174.26506024096386" type="curve"/>
    </contour>
  </outline>
</glyph>
<glyph name="z" format="2">
  <advance width="515.0903614457832"/>
  <unicode hex="007A"/>
  <anchor x="214.66265060240963" y="0.0" name="bottom"/>
  <anchor x="291.6626506024096" y="484.0" name="top"/>
  <outline>
    <contour>
      <point x="10.313253012048193" y="0.0" type="line"/>
      <point x="429.49397590361446" y="0.0" type="line"/>
      <point x="437.5542168674699" y="49.27710843373494" type="line"/>
      <point x="79.62650602409639" y="49.27710843373494" type="line"/>
      <point x="76.93975903614458" y="30.927710843373493" type="line"/>
      <point x="490.12048192771084" y="459.2409638554217" type="line"/>
      <point x="496.95180722891564" y="501.144578313253" type="line"/>
      <point x="89.5421686746988" y="501.144578313253" type="line"/>
      <point x="81.48192771084338" y="451.86746987951807" type="line"/>
      <point x="426.18072289156623" y="451.86746987951807" type="line"/>
      <point x="428.86746987951807" y="468.7590361445783" type="line"/>
      <point x="17.144578313253014" y="41.903614457831324" type="line"/>
    </contour>
  </outline>
</glyph>
<glyph name="braceleft" format="2">
  <advance width="337.9096385542169"/>
  <unicode hex="007B"/>
  <outline>
    <contour>
      <point x="193.78313253012047" y="-180.0" type="curve" smooth="yes"/>
      <point x="263.96385542168673" y="-180.0" type="line"/>
      <point x="272.0240963855421" y="-129.95180722891567" type="line"/>
      <point x="192.54216867469881" y="-129.95180722891567" type="line" smooth="yes"/>
      <point x="161.4578313253012" y="-129.95180722891567"/>
      <point x="150.7710843373494" y="-114.09638554216868"/>
      <point x="156.0" y="-83.63855421686748" type="curve" smooth="yes"/>
      <point x="193.4819277108434" y="161.56626506024097" type="line" smooth="yes"/>
      <point x="204.4819277108434" y="234.33734939759034"/>
      <point x="161.79518072289156" y="265.2289156626506"/>
      <point x="121.10843373493975" y="265.2289156626506" type="curve"/>
      <point x="121.10843373493975" y="261.2289156626506" type="line"/>
      <point x="162.02409638554218" y="261.2289156626506"/>
      <point x="215.6265060240964" y="291.20481927710847"/>
      <point x="226.6265060240964" y="364.2048192771084" type="curve" smooth="yes"/>
      <point x="265.1084337349398" y="608.6385542168674" type="line" smooth="yes"/>
      <point x="270.1084337349398" y="639.0963855421686"/>
      <point x="287.56626506024094" y="654.9518072289156"/>
      <point x="317.65060240963857" y="654.9518072289156" type="curve" smooth="yes"/>
      <point x="395.9036144578313" y="654.9518072289156" type="line"/>
      <point x="403.96385542168673" y="705.0" type="line"/>
      <point x="310.8072289156627" y="705.0" type="line" smooth="yes"/>
      <point x="250.3734939759036" y="705.0"/>
      <point x="215.16867469879517" y="672.1686746987953"/>
      <point x="205.25301204819277" y="610.7590361445783" type="curve" smooth="yes"/>
      <point x="166.5421686746988" y="369.72289156626505" type="line" smooth="yes"/>
      <point x="157.5421686746988" y="315.4096385542169"/>
      <point x="136.2289156626506" y="292.09638554216866"/>
      <point x="80.28915662650603" y="288.86746987951807" type="curve" smooth="yes"/>
      <point x="53.855421686746986" y="287.1807228915663" type="line"/>
      <point x="46.795180722891565" y="238.59036144578315" type="line"/>
      <point x="71.45783132530121" y="236.90361445783134" type="line" smooth="yes"/>
      <point x="128.39759036144576" y="233.67469879518075"/>
      <point x="140.48192771084337" y="209.59036144578312"/>
      <point x="132.48192771084337" y="155.81927710843374" type="curve" smooth="yes"/>
      <point x="94.7710843373494" y="-85.75903614457832" type="line" smooth="yes"/>
      <point x="85.08433734939759" y="-146.19277108433735"/>
      <point x="115.74698795180724" y="-180.0"/>
    </contour>
  </outline>
</glyph>
<glyph name="braceright" format="2">
  <advance width="337.9096385542169"/>
  <unicode hex="007D"/>
  <outline>
    <contour>
      <point x="-62.39759036144578" y="-180.0" type="line"/>
      <point x="30.98795180722891" y="-180.0" type="line" smooth="yes"/>
      <point x="91.42168674698796" y="-180.0"/>
      <point x="126.85542168674698" y="-147.16867469879517"/>
      <point x="136.77108433734938" y="-85.75903614457832" type="curve" smooth="yes"/>
      <point x="175.48192771084337" y="155.27710843373495" type="line" smooth="yes"/>
      <point x="184.25301204819277" y="208.81927710843374"/>
      <point x="204.7951807228916" y="233.13253012048193"/>
      <point x="261.73493975903614" y="236.36144578313252" type="curve" smooth="yes"/>
      <point x="287.16867469879514" y="237.81927710843374" type="line"/>
      <point x="294.2289156626506" y="286.6385542168675" type="line"/>
      <point x="270.33734939759034" y="288.09638554216866" type="line" smooth="yes"/>
      <point x="214.3975903614458" y="291.32530120481925"/>
      <point x="201.3132530120482" y="314.6385542168675"/>
      <point x="209.3132530120482" y="369.1807228915663" type="curve" smooth="yes"/>
      <point x="247.25301204819277" y="610.7590361445783" type="line" smooth="yes"/>
      <point x="256.71084337349396" y="671.1927710843373"/>
      <point x="226.04819277108433" y="705.0"/>
      <point x="148.0120481927711" y="705.0" type="curve" smooth="yes"/>
      <point x="77.83132530120481" y="705.0" type="line"/>
      <point x="69.7710843373494" y="654.9518072289156" type="line"/>
      <point x="149.48192771084337" y="654.9518072289156" type="line" smooth="yes"/>
      <point x="179.56626506024097" y="654.9518072289156"/>
      <point x="191.02409638554218" y="639.0963855421686"/>
      <point x="186.02409638554218" y="608.6385542168674" type="curve" smooth="yes"/>
      <point x="148.3132530120482" y="363.66265060240966" type="line" smooth="yes"/>
      <point x="137.3132530120482" y="290.66265060240966"/>
      <point x="179.22891566265062" y="260.0"/>
      <point x="220.9156626506024" y="260.0" type="curve"/>
      <point x="220.6867469879518" y="264.0" type="line"/>
      <point x="179.0" y="264.0"/>
      <point x="126.16867469879519" y="233.7951807228916"/>
      <point x="115.16867469879519" y="160.79518072289156" type="curve" smooth="yes"/>
      <point x="76.6867469879518" y="-83.63855421686748" type="line" smooth="yes"/>
      <point x="71.6867469879518" y="-114.09638554216868"/>
      <point x="53.4578313253012" y="-129.95180722891567"/>
      <point x="23.373493975903614" y="-129.95180722891567" type="curve" smooth="yes"/>
      <point x="-55.10843373493976" y="-129.95180722891567" type="line"/>
    </contour>
  </outline>
</glyph>
<glyph name="asciitilde" format="2">
  <advance width="600.0"/>
  <unicode hex="007E"/>
  <outline>
    <contour>
      <point x="421.6265060240964" y="220.56626506024097" type="curve" smooth="yes"/>
      <point x="481.6265060240964" y="220.56626506024097"/>
      <point x="522.2289156626506" y="253.16867469879517"/>
      <point x="557.5421686746988" y="312.54216867469876" type="curve"/>
      <point x="518.1325301204819" y="337.26506024096386" type="line"/>
      <point x="496.13253012048193" y="300.5783132530121"/>
      <point x="464.50602409638554" y="269.86746987951807"/>
      <point x="417.2530120481928" y="269.86746987951807" type="curve" smooth="yes"/>
      <point x="385.855421686747" y="269.86746987951807"/>
      <point x="357.31325301204816" y="287.1807228915663"/>
      <point x="321.0" y="308.03614457831327" type="curve" smooth="yes"/>
      <point x="283.7710843373494" y="329.34939759036143"/>
      <point x="237.4578313253012" y="353.66265060240966"/>
      <point x="190.14457831325302" y="353.66265060240966" type="curve" smooth="yes"/>
      <point x="130.144578313253" y="353.66265060240966"/>
      <point x="89.7710843373494" y="321.06024096385545"/>
      <point x="54.45783132530121" y="261.45783132530124" type="curve"/>
      <point x="93.86746987951807" y="236.96385542168676" type="line"/>
      <point x="115.63855421686748" y="273.4216867469879"/>
      <point x="147.49397590361446" y="304.3614457831325"/>
      <point x="194.51807228915663" y="304.3614457831325" type="curve" smooth="yes"/>
      <point x="225.9156626506024" y="304.3614457831325"/>
      <point x="257.4578313253012" y="286.27710843373495"/>
      <point x="293.7710843373494" y="265.1927710843373" type="curve" smooth="yes"/>
      <point x="330.7710843373494" y="243.87951807228916"/>
      <point x="374.5421686746988" y="220.56626506024097"/>
    </contour>
  </outline>
</glyph>
<glyph name="exclamdown" format="2">
  <advance width="219.46987951807228"/>
  <unicode hex="00A1"/>
  <outline>
    <contour>
      <point x="2.674698795180717" y="-180.0" type="line"/>
      <point x="78.79518072289156" y="-180.0" type="line"/>
      <point x="141.24096385542168" y="329.3855421686747" type="line"/>
      <point x="103.02409638554217" y="329.3855421686747" type="line"/>
    </contour>
    <contour>
      <point x="92.81927710843374" y="415.578313253012" type="line"/>
      <point x="178.0722891566265" y="415.578313253012" type="line"/>
      <point x="191.59036144578312" y="501.144578313253" type="line"/>
      <point x="106.33734939759037" y="501.144578313253" type="line"/>
    </contour>
  </outline>
</glyph>
<glyph name="cent" format="2">
  <advance width="600.0"/>
  <unicode hex="00A2"/>
  <outline>
    <contour>
      <point x="231.13253012048193" y="-115.0" type="line"/>
      <point x="284.86746987951807" y="-115.0" type="line"/>
      <point x="304.32530120481925" y="10.518072289156626" type="line"/>
      <point x="286.9759036144578" y="-8.457831325301205" type="line"/>
      <point x="356.8072289156626" y="-9.144578313253012"/>
      <point x="432.72289156626505" y="15.626506024096384"/>
      <point x="476.4096385542169" y="55.93975903614458" type="curve"/>
      <point x="451.9759036144579" y="100.8433734939759" type="line"/>
      <point x="406.5783132530121" y="60.59036144578313"/>
      <point x="351.4096385542169" y="44.04819277108434"/>
      <point x="302.15662650602405" y="44.04819277108434" type="curve" smooth="yes"/>
      <point x="194.50602409638554" y="44.04819277108434"/>
      <point x="136.93975903614458" y="115.75903614457832"/>
      <point x="158.56626506024097" y="244.3734939759036" type="curve" smooth="yes"/>
      <point x="179.19277108433735" y="368.5903614457832"/>
      <point x="256.53012048192767" y="437.32530120481925"/>
      <point x="363.8915662650602" y="437.32530120481925" type="curve" smooth="yes"/>
      <point x="406.9759036144578" y="437.32530120481925"/>
      <point x="454.51807228915663" y="422.7831325301205"/>
      <point x="491.9156626506024" y="387.84337349397595" type="curve"/>
      <point x="519.0361445783132" y="429.43373493975906" type="line"/>
      <point x="485.578313253012" y="468.28915662650604"/>
      <point x="428.34939759036143" y="488.3734939759036"/>
      <point x="367.9759036144578" y="488.83132530120486" type="curve"/>
      <point x="376.86746987951807" y="467.5421686746988" type="line"/>
      <point x="399.09638554216866" y="605.144578313253" type="line"/>
      <point x="345.3614457831325" y="605.144578313253" type="line"/>
      <point x="322.90361445783134" y="465.93975903614455" type="line"/>
      <point x="339.56626506024094" y="488.9156626506024" type="line"/>
      <point x="213.59036144578312" y="478.85542168674704"/>
      <point x="122.19277108433735" y="400.0240963855422"/>
      <point x="96.87951807228916" y="250.6867469879518" type="curve" smooth="yes"/>
      <point x="70.79518072289157" y="94.34939759036145"/>
      <point x="140.56626506024097" y="8.975903614457831"/>
      <point x="261.56626506024094" y="-5.313253012048192" type="curve"/>
      <point x="250.81927710843374" y="11.891566265060241" type="line"/>
    </contour>
  </outline>
</glyph>
<glyph name="sterling" format="2">
  <advance width="600.0"/>
  <unicode hex="00A3"/>
  <outline>
    <contour>
      <point x="7.626506024096386" y="0.0" type="line"/>
      <point x="521.0602409638554" y="0.0" type="line"/>
      <point x="529.5783132530121" y="54.10843373493976" type="line"/>
      <point x="97.144578313253" y="54.10843373493976" type="line"/>
      <point x="96.144578313253" y="48.33734939759036" type="line"/>
      <point x="153.16867469879517" y="69.96385542168674"/>
      <point x="196.73493975903617" y="112.13253012048193"/>
      <point x="208.81927710843374" y="192.18072289156626" type="curve" smooth="yes"/>
      <point x="231.21686746987953" y="331.1927710843373" type="line"/>
      <point x="423.12048192771084" y="331.1927710843373" type="line"/>
      <point x="430.4939759036145" y="376.578313253012" type="line"/>
      <point x="238.36144578313252" y="376.578313253012" type="line"/>
      <point x="259.98795180722885" y="509.87951807228916" type="line" smooth="yes"/>
      <point x="276.61445783132524" y="611.7831325301205"/>
      <point x="333.49397590361446" y="658.2650602409639"/>
      <point x="432.4578313253012" y="658.2650602409639" type="curve" smooth="yes"/>
      <point x="505.10843373493975" y="658.2650602409639"/>
      <point x="547.1084337349398" y="636.4096385542168"/>
      <point x="588.2530120481928" y="594.5542168674698" type="curve"/>
      <point x="617.5180722891566" y="639.8313253012049" type="line"/>
      <point x="575.3734939759037" y="688.6867469879518"/>
      <point x="512.0" y="713.4578313253012"/>
      <point x="431.855421686747" y="713.4578313253012" type="curve" smooth="yes"/>
      <point x="302.04819277108436" y="713.4578313253012"/>
      <point x="220.3012048192771" y="648.0240963855422"/>
      <point x="198.84337349397592" y="516.277108433735" type="curve" smooth="yes"/>
      <point x="176.44578313253012" y="376.578313253012" type="line"/>
      <point x="67.0843373493976" y="376.578313253012" type="line"/>
      <point x="59.71084337349398" y="331.1927710843373" type="line"/>
      <point x="169.0722891566265" y="331.1927710843373" type="line"/>
      <point x="143.44578313253012" y="170.66265060240963" type="line" smooth="yes"/>
      <point x="133.90361445783134" y="109.86746987951807"/>
      <point x="86.33734939759036" y="73.6144578313253"/>
      <point x="14.457831325301205" y="45.13253012048193" type="curve"/>
    </contour>
  </outline>
</glyph>
<glyph name="currency" format="2">
  <advance width="600.0"/>
  <unicode hex="00A4"/>
  <outline>
    <contour>
      <point x="110.6024096385542" y="-23.83132530120482" type="line"/>
      <point x="184.3734939759036" y="51.16867469879518" type="line"/>
      <point x="225.91566265060243" y="17.313253012048193"/>
      <point x="278.2289156626506" y="-3.0"/>
      <point x="335.3132530120482" y="-3.0" type="curve" smooth="yes"/>
      <point x="391.6265060240964" y="-3.0"/>
      <point x="443.1686746987952" y="16.542168674698797"/>
      <point x="483.9397590361446" y="50.626506024096386" type="curve"/>
      <point x="556.1686746987951" y="-23.602409638554217" type="line"/>
      <point x="595.6024096385543" y="15.831325301204819" type="line"/>
      <point x="522.3734939759037" y="90.06024096385542" type="line"/>
      <point x="556.2289156626506" y="132.83132530120483"/>
      <point x="575.5421686746988" y="186.14457831325302"/>
      <point x="575.5421686746988" y="245.0" type="curve" smooth="yes"/>
      <point x="575.5421686746988" y="303.855421686747"/>
      <point x="556.4578313253012" y="356.93975903614455"/>
      <point x="522.6024096385541" y="400.48192771084337" type="curve"/>
      <point x="595.8313253012049" y="473.93975903614455" type="line"/>
      <point x="555.710843373494" y="514.289156626506" type="line"/>
      <point x="484.2530120481928" y="439.8313253012048" type="line"/>
      <point x="442.71084337349396" y="473.68674698795184"/>
      <point x="391.3975903614458" y="493.0"/>
      <point x="335.3132530120482" y="493.0" type="curve" smooth="yes"/>
      <point x="278.4578313253012" y="493.0"/>
      <point x="225.3734939759036" y="472.68674698795184"/>
      <point x="184.60240963855424" y="438.06024096385545" type="curve"/>
      <point x="110.6024096385542" y="513.8313253012049" type="line"/>
      <point x="71.93975903614457" y="474.3975903614458" type="line"/>
      <point x="145.710843373494" y="398.6265060240964" type="line"/>
      <point x="113.39759036144578" y="356.6265060240964"/>
      <point x="94.855421686747" y="302.5421686746988"/>
      <point x="94.855421686747" y="245.0" type="curve" smooth="yes"/>
      <point x="94.855421686747" y="187.6867469879518"/>
      <point x="114.39759036144578" y="133.3734939759036"/>
      <point x="145.710843373494" y="91.60240963855422" type="curve"/>
      <point x="71.93975903614457" y="15.831325301204819" type="line"/>
    </contour>
    <contour>
      <point x="334.5421686746988" y="53.27710843373494" type="curve" smooth="yes"/>
      <point x="234.95180722891567" y="53.27710843373494"/>
      <point x="154.67469879518075" y="138.55421686746988"/>
      <point x="154.67469879518075" y="245.0" type="curve" smooth="yes"/>
      <point x="154.67469879518075" y="351.67469879518075"/>
      <point x="235.18072289156626" y="436.1807228915663"/>
      <point x="334.5421686746988" y="436.95180722891564" type="curve" smooth="yes"/>
      <point x="434.44578313253015" y="437.72289156626505"/>
      <point x="514.1807228915662" y="351.67469879518075"/>
      <point x="514.1807228915662" y="245.0" type="curve" smooth="yes"/>
      <point x="514.1807228915662" y="138.55421686746988"/>
      <point x="434.44578313253015" y="53.27710843373494"/>
    </contour>
  </outline>
</glyph>
<glyph name="yen" format="2">
  <advance width="600.0"/>
  <unicode hex="00A5"/>
  <outline>
    <contour>
      <point x="229.1566265060241" y="0.0" type="line"/>
      <point x="290.8433734939759" y="0.0" type="line"/>
      <point x="320.15662650602405" y="183.73493975903614" type="line"/>
      <point x="515.1445783132531" y="183.73493975903614" type="line"/>
      <point x="522.289156626506" y="228.43373493975903" type="line"/>
      <point x="327.3012048192771" y="228.43373493975903" type="line"/>
      <point x="344.15662650602405" y="335.10843373493975" type="line"/>
      <point x="539.1445783132531" y="335.10843373493975" type="line"/>
      <point x="545.7469879518072" y="379.8072289156627" type="line"/>
      <point x="376.98795180722897" y="379.8072289156627" type="line"/>
      <point x="375.7590361445783" y="370.9759036144578" type="line"/>
      <point x="671.8072289156627" y="705.0" type="line"/>
      <point x="597.9759036144578" y="705.0" type="line"/>
      <point x="307.0" y="375.50602409638554" type="line"/>
      <point x="325.2048192771084" y="375.50602409638554" type="line"/>
      <point x="139.33734939759034" y="705.0" type="line"/>
      <point x="72.19277108433735" y="705.0" type="line"/>
      <point x="262.92771084337346" y="370.9759036144578" type="line"/>
      <point x="264.1566265060241" y="379.8072289156627" type="line"/>
      <point x="94.0843373493976" y="379.8072289156627" type="line"/>
      <point x="87.48192771084338" y="335.10843373493975" type="line"/>
      <point x="282.4698795180723" y="335.10843373493975" type="line"/>
      <point x="265.6144578313253" y="228.43373493975903" type="line"/>
      <point x="70.62650602409639" y="228.43373493975903" type="line"/>
      <point x="63.48192771084338" y="183.73493975903614" type="line"/>
      <point x="258.2409638554217" y="183.73493975903614" type="line"/>
    </contour>
  </outline>
</glyph>
<glyph name="brokenbar" format="2">
  <advance width="255.78313253012047"/>
  <unicode hex="00A6"/>
  <outline>
    <contour>
      <point x="115.50602409638554" y="372.0" type="line"/>
      <point x="176.50602409638554" y="372.0" type="line"/>
      <point x="229.50602409638554" y="705.0" type="line"/>
      <point x="168.50602409638554" y="705.0" type="line"/>
    </contour>
    <contour>
      <point x="28.506024096385545" y="-180.0" type="line"/>
      <point x="89.50602409638554" y="-180.0" type="line"/>
      <point x="142.50602409638554" y="153.2289156626506" type="line"/>
      <point x="81.50602409638554" y="153.2289156626506" type="line"/>
    </contour>
  </outline>
</glyph>
<glyph name="section" format="2">
  <advance width="529.789156626506"/>
  <unicode hex="00A7"/>
  <outline>
    <contour>
      <point x="192.4698795180723" y="-188.4578313253012" type="curve" smooth="yes"/>
      <point x="313.75903614457826" y="-188.4578313253012"/>
      <point x="412.04819277108436" y="-113.37349397590361"/>
      <point x="412.04819277108436" y="-3.024096385542169" type="curve" smooth="yes"/>
      <point x="412.04819277108436" y="21.12048192771084"/>
      <point x="408.3614457831325" y="42.80722891566265"/>
      <point x="398.2168674698795" y="63.49397590361446" type="curve"/>
      <point x="395.9879518072289" y="50.662650602409634" type="line"/>
      <point x="452.04819277108436" y="87.12048192771086"/>
      <point x="483.1927710843374" y="141.89156626506022"/>
      <point x="483.1927710843374" y="197.55421686746988" type="curve" smooth="yes"/>
      <point x="483.1927710843374" y="256.7831325301205"/>
      <point x="442.65060240963857" y="306.4698795180723"/>
      <point x="361.0240963855422" y="354.09638554216866" type="curve" smooth="yes"/>
      <point x="268.0722891566265" y="408.6144578313253" type="line" smooth="yes"/>
      <point x="207.19277108433735" y="444.6385542168675"/>
      <point x="184.56626506024097" y="473.03614457831327"/>
      <point x="184.56626506024097" y="529.4578313253012" type="curve" smooth="yes"/>
      <point x="184.56626506024097" y="604.1927710843373"/>
      <point x="244.44578313253012" y="663.2409638554217"/>
      <point x="345.20481927710847" y="663.2409638554217" type="curve" smooth="yes"/>
      <point x="407.3734939759036" y="663.2409638554217"/>
      <point x="472.6024096385542" y="641.2409638554217"/>
      <point x="508.89156626506013" y="603.3855421686748" type="curve"/>
      <point x="534.3253012048193" y="646.3734939759037" type="line"/>
      <point x="488.12048192771084" y="693.4578313253013"/>
      <point x="419.7469879518072" y="713.4578313253012"/>
      <point x="343.7469879518072" y="713.4578313253012" type="curve" smooth="yes"/>
      <point x="221.4578313253012" y="713.4578313253012"/>
      <point x="123.16867469879519" y="638.1445783132531"/>
      <point x="123.16867469879519" y="528.4819277108434" type="curve" smooth="yes"/>
      <point x="123.16867469879519" y="505.10843373493975"/>
      <point x="126.855421686747" y="484.4216867469879"/>
      <point x="135.5421686746988" y="463.1927710843374" type="curve"/>
      <point x="138.0" y="473.87951807228916" type="line"/>
      <point x="81.93975903614458" y="436.65060240963857"/>
      <point x="51.25301204819277" y="383.10843373493975"/>
      <point x="51.25301204819277" y="327.4457831325301" type="curve" smooth="yes"/>
      <point x="51.25301204819277" y="267.9879518072289"/>
      <point x="93.33734939759037" y="217.3012048192771"/>
      <point x="170.65060240963857" y="170.67469879518075" type="curve" smooth="yes"/>
      <point x="267.144578313253" y="112.8433734939759" type="line" smooth="yes"/>
      <point x="326.2530120481928" y="76.81927710843374"/>
      <point x="350.65060240963857" y="51.963855421686745"/>
      <point x="350.65060240963857" y="-4.686746987951808" type="curve" smooth="yes"/>
      <point x="350.65060240963857" y="-79.19277108433735"/>
      <point x="290.7710843373494" y="-138.24096385542168"/>
      <point x="190.78313253012047" y="-138.24096385542168" type="curve" smooth="yes"/>
      <point x="115.30120481927712" y="-138.24096385542168"/>
      <point x="55.01204819277109" y="-119.09638554216868"/>
      <point x="12.325301204819285" y="-78.01204819277108" type="curve"/>
      <point x="-16.024096385542173" y="-122.2289156626506" type="line"/>
      <point x="31.32530120481928" y="-164.6867469879518"/>
      <point x="100.84337349397592" y="-188.4578313253012"/>
    </contour>
    <contour>
      <point x="109.04819277108435" y="336.33734939759034" type="curve" smooth="yes"/>
      <point x="109.04819277108435" y="368.50602409638554"/>
      <point x="127.21686746987952" y="407.9879518072289"/>
      <point x="163.46987951807228" y="436.5301204819277" type="curve"/>
      <point x="153.63855421686748" y="436.1566265060241" type="line"/>
      <point x="172.26506024096383" y="405.3614457831325"/>
      <point x="205.28915662650604" y="381.87951807228916"/>
      <point x="246.93975903614458" y="355.6265060240964" type="curve" smooth="yes"/>
      <point x="325.8072289156626" y="308.33734939759034" type="line" smooth="yes"/>
      <point x="391.2289156626506" y="267.5421686746988"/>
      <point x="426.1686746987952" y="234.9156626506024"/>
      <point x="426.1686746987952" y="188.66265060240963" type="curve" smooth="yes"/>
      <point x="426.1686746987952" y="156.72289156626505"/>
      <point x="407.22891566265065" y="117.46987951807229"/>
      <point x="372.2048192771084" y="88.61445783132531" type="curve"/>
      <point x="382.34939759036143" y="86.3012048192771" type="line"/>
      <point x="363.7228915662651" y="116.09638554216868"/>
      <point x="331.6987951807229" y="138.80722891566265"/>
      <point x="289.04819277108436" y="165.83132530120483" type="curve" smooth="yes"/>
      <point x="205.86746987951807" y="216.66265060240966" type="line" smooth="yes"/>
      <point x="142.9879518072289" y="255.45783132530119"/>
      <point x="109.04819277108435" y="289.855421686747"/>
    </contour>
  </outline>
</glyph>
<glyph name="copyright" format="2">
  <advance width="815.0"/>
  <unicode hex="00A9"/>
  <outline>
    <contour>
      <point x="429.0" y="-8.457831325301205" type="curve" smooth="yes"/>
      <point x="633.2289156626506" y="-8.457831325301205"/>
      <point x="789.4578313253012" y="148.7710843373494"/>
      <point x="789.4578313253012" y="353.0" type="curve" smooth="yes"/>
      <point x="789.4578313253012" y="557.2289156626506"/>
      <point x="633.2289156626506" y="713.4578313253012"/>
      <point x="429.0" y="713.4578313253012" type="curve" smooth="yes"/>
      <point x="223.7710843373494" y="713.4578313253012"/>
      <point x="67.54216867469879" y="557.2289156626506"/>
      <point x="67.54216867469879" y="353.0" type="curve" smooth="yes"/>
      <point x="67.54216867469879" y="148.7710843373494"/>
      <point x="224.5421686746988" y="-8.457831325301205"/>
    </contour>
    <contour>
      <point x="439.83132530120486" y="137.0" type="curve" smooth="yes"/>
      <point x="491.06024096385545" y="137.0"/>
      <point x="547.7469879518072" y="158.3132530120482"/>
      <point x="581.7469879518072" y="192.16867469879517" type="curve"/>
      <point x="560.7710843373494" y="234.78313253012047" type="line"/>
      <point x="523.6024096385541" y="200.0722891566265"/>
      <point x="480.43373493975906" y="185.53012048192772"/>
      <point x="441.12048192771084" y="185.53012048192772" type="curve" smooth="yes"/>
      <point x="347.8433734939759" y="185.53012048192772"/>
      <point x="292.04819277108436" y="250.95180722891567"/>
      <point x="292.04819277108436" y="354.7710843373494" type="curve" smooth="yes"/>
      <point x="292.04819277108436" y="459.3614457831325"/>
      <point x="347.8433734939759" y="519.6987951807229"/>
      <point x="441.12048192771084" y="519.6987951807229" type="curve" smooth="yes"/>
      <point x="480.43373493975906" y="519.6987951807229"/>
      <point x="523.6024096385541" y="505.69879518072287"/>
      <point x="560.7710843373494" y="471.2168674698795" type="curve"/>
      <point x="581.7469879518072" y="513.0602409638554" type="line"/>
      <point x="547.7469879518072" y="546.9156626506024"/>
      <point x="492.83132530120486" y="568.0"/>
      <point x="439.83132530120486" y="568.0" type="curve" smooth="yes"/>
      <point x="313.0" y="568.0"/>
      <point x="236.16867469879517" y="487.0"/>
      <point x="236.16867469879517" y="355.5421686746988" type="curve" smooth="yes"/>
      <point x="236.16867469879517" y="224.3132530120482"/>
      <point x="313.0" y="137.0"/>
    </contour>
    <contour>
      <point x="429.0" y="31.433734939759034" type="curve" smooth="yes"/>
      <point x="247.3734939759036" y="31.433734939759034"/>
      <point x="108.89156626506023" y="170.83132530120483"/>
      <point x="108.89156626506023" y="353.0" type="curve" smooth="yes"/>
      <point x="108.89156626506023" y="535.1686746987951"/>
      <point x="247.3734939759036" y="673.566265060241"/>
      <point x="429.0" y="673.566265060241" type="curve" smooth="yes"/>
      <point x="609.3975903614457" y="673.566265060241"/>
      <point x="748.1084337349398" y="535.1686746987951"/>
      <point x="748.1084337349398" y="353.0" type="curve" smooth="yes"/>
      <point x="748.1084337349398" y="170.83132530120483"/>
      <point x="609.3975903614457" y="31.433734939759034"/>
    </contour>
  </outline>
</glyph>
<glyph name="ordfeminine" format="2">
  <advance width="319.2951807228916"/>
  <unicode hex="00AA"/>
  <outline>
    <contour>
      <point x="160.0" y="411.855421686747" type="curve" smooth="yes"/>
      <point x="205.5421686746988" y="411.855421686747"/>
      <point x="240.85542168674698" y="429.5421686746988"/>
      <point x="266.6265060240964" y="470.5421686746988" type="curve"/>
      <point x="268.855421686747" y="470.5421686746988" type="line"/>
      <point x="260.6265060240964" y="417.0843373493976" type="line"/>
      <point x="303.4698795180723" y="417.0843373493976" type="line"/>
      <point x="331.4698795180723" y="592.9397590361446" type="line" smooth="yes"/>
      <point x="344.69879518072287" y="675.0843373493976"/>
      <point x="306.5542168674699" y="713.4578313253012"/>
      <point x="227.83132530120483" y="713.4578313253012" type="curve" smooth="yes"/>
      <point x="185.144578313253" y="713.4578313253012"/>
      <point x="137.6265060240964" y="702.2289156626506"/>
      <point x="102.3975903614458" y="681.6867469879518" type="curve"/>
      <point x="115.7710843373494" y="646.277108433735" type="line"/>
      <point x="147.6867469879518" y="666.0481927710844"/>
      <point x="187.14457831325302" y="675.5903614457832"/>
      <point x="222.2289156626506" y="675.5903614457832" type="curve" smooth="yes"/>
      <point x="274.6265060240964" y="675.5903614457832"/>
      <point x="296.2530120481927" y="651.9638554216867"/>
      <point x="288.93975903614455" y="604.6265060240963" type="curve" smooth="yes"/>
      <point x="279.93975903614455" y="547.3975903614457" type="line" smooth="yes"/>
      <point x="269.62650602409633" y="485.28915662650604"/>
      <point x="225.14457831325302" y="448.34939759036143"/>
      <point x="169.03614457831324" y="448.34939759036143" type="curve" smooth="yes"/>
      <point x="123.46987951807229" y="448.34939759036143"/>
      <point x="106.38554216867469" y="471.7469879518072"/>
      <point x="111.92771084337349" y="504.45783132530124" type="curve" smooth="yes"/>
      <point x="116.69879518072288" y="536.6265060240963"/>
      <point x="149.40963855421685" y="553.4819277108434"/>
      <point x="206.43373493975903" y="553.4819277108434" type="curve" smooth="yes"/>
      <point x="287.3975903614458" y="553.4819277108434" type="line"/>
      <point x="293.0843373493976" y="585.9156626506024" type="line"/>
      <point x="210.80722891566265" y="585.9156626506024" type="line" smooth="yes"/>
      <point x="136.710843373494" y="585.9156626506024"/>
      <point x="75.62650602409639" y="568.0"/>
      <point x="65.62650602409639" y="505.144578313253" type="curve" smooth="yes"/>
      <point x="57.397590361445786" y="451.3132530120482"/>
      <point x="94.2289156626506" y="411.855421686747"/>
    </contour>
  </outline>
</glyph>
<glyph name="logicalnot" format="2">
  <advance width="600.0"/>
  <unicode hex="00AC"/>
  <outline>
    <contour>
      <point x="480.18072289156623" y="153.10843373493978" type="line"/>
      <point x="531.855421686747" y="153.10843373493978" type="line"/>
      <point x="573.2289156626506" y="414.26506024096386" type="line"/>
      <point x="78.37349397590363" y="414.26506024096386" type="line"/>
      <point x="70.5421686746988" y="364.04819277108436" type="line"/>
      <point x="513.9518072289158" y="364.04819277108436" type="line"/>
    </contour>
  </outline>
</glyph>
<glyph name="registered" format="2">
  <advance width="815.0"/>
  <unicode hex="00AE"/>
  <outline>
    <contour>
      <point x="429.0" y="-8.457831325301205" type="curve" smooth="yes"/>
      <point x="633.2289156626506" y="-8.457831325301205"/>
      <point x="789.4578313253012" y="148.7710843373494"/>
      <point x="789.4578313253012" y="353.0" type="curve" smooth="yes"/>
      <point x="789.4578313253012" y="557.2289156626506"/>
      <point x="633.2289156626506" y="713.4578313253012"/>
      <point x="429.0" y="713.4578313253012" type="curve" smooth="yes"/>
      <point x="223.7710843373494" y="713.4578313253012"/>
      <point x="67.54216867469879" y="557.2289156626506"/>
      <point x="67.54216867469879" y="353.0" type="curve" smooth="yes"/>
      <point x="67.54216867469879" y="148.7710843373494"/>
      <point x="224.5421686746988" y="-8.457831325301205"/>
    </contour>
    <contour>
      <point x="429.0" y="31.433734939759034" type="curve" smooth="yes"/>
      <point x="247.3734939759036" y="31.433734939759034"/>
      <point x="108.89156626506023" y="170.83132530120483"/>
      <point x="108.89156626506023" y="353.0" type="curve" smooth="yes"/>
      <point x="108.89156626506023" y="535.1686746987951"/>
      <point x="247.3734939759036" y="673.566265060241"/>
      <point x="429.0" y="673.566265060241" type="curve" smooth="yes"/>
      <point x="609.3975903614457" y="673.566265060241"/>
      <point x="748.1084337349398" y="535.1686746987951"/>
      <point x="748.1084337349398" y="353.0" type="curve" smooth="yes"/>
      <point x="748.1084337349398" y="170.83132530120483"/>
      <point x="609.3975903614457" y="31.433734939759034"/>
    </contour>
    <contour>
      <point x="289.1927710843374" y="142.0" type="line"/>
      <point x="343.0120481927711" y="142.0" type="line"/>
      <point x="343.0120481927711" y="328.10843373493975" type="line"/>
      <point x="330.86746987951807" y="318.65060240963857" type="line"/>
      <point x="412.2289156626506" y="318.65060240963857" type="line" smooth="yes"/>
      <point x="450.2530120481928" y="318.65060240963857"/>
      <point x="476.96385542168673" y="309.10843373493975"/>
      <point x="491.5903614457831" y="273.93975903614455" type="curve" smooth="yes"/>
      <point x="543.9277108433735" y="142.0" type="line"/>
      <point x="599.289156626506" y="142.0" type="line"/>
      <point x="546.6385542168675" y="275.50602409638554" type="line" smooth="yes"/>
      <point x="530.6385542168674" y="318.855421686747"/>
      <point x="503.09638554216866" y="333.5421686746988"/>
      <point x="463.72289156626505" y="333.5421686746988" type="curve"/>
      <point x="456.3734939759036" y="324.0843373493976" type="line"/>
      <point x="544.0602409638554" y="324.0843373493976"/>
      <point x="593.7469879518072" y="366.0843373493976"/>
      <point x="593.7469879518072" y="442.31325301204816" type="curve" smooth="yes"/>
      <point x="593.7469879518072" y="518.6265060240963"/>
      <point x="544.6024096385543" y="563.4578313253012"/>
      <point x="456.2289156626506" y="563.4578313253012" type="curve" smooth="yes"/>
      <point x="289.1927710843374" y="563.4578313253012" type="line"/>
    </contour>
    <contour>
      <point x="342.7831325301205" y="363.66265060240966" type="line"/>
      <point x="342.7831325301205" y="518.4457831325301" type="line"/>
      <point x="449.1686746987952" y="518.4457831325301" type="line" smooth="yes"/>
      <point x="512.132530120482" y="518.4457831325301"/>
      <point x="541.0722891566265" y="493.50602409638554"/>
      <point x="541.0722891566265" y="441.1686746987952" type="curve" smooth="yes"/>
      <point x="541.0722891566265" y="387.8313253012048"/>
      <point x="511.3614457831325" y="363.66265060240966"/>
      <point x="449.1686746987952" y="363.66265060240966" type="curve" smooth="yes"/>
    </contour>
  </outline>
</glyph>
<glyph name="degree" format="2">
  <advance width="367.43373493975906"/>
  <unicode hex="00B0"/>
  <outline>
    <contour>
      <point x="234.60240963855424" y="421.1927710843373" type="curve" smooth="yes"/>
      <point x="315.89156626506025" y="421.1927710843373"/>
      <point x="377.49397590361446" y="483.33734939759034"/>
      <point x="377.49397590361446" y="565.9397590361446" type="curve" smooth="yes"/>
      <point x="377.49397590361446" y="648.5421686746988"/>
      <point x="315.89156626506025" y="710.6867469879518"/>
      <point x="234.60240963855424" y="710.6867469879518" type="curve" smooth="yes"/>
      <point x="152.31325301204822" y="710.6867469879518"/>
      <point x="89.93975903614457" y="647.7710843373494"/>
      <point x="89.93975903614457" y="565.9397590361446" type="curve" smooth="yes"/>
      <point x="89.93975903614457" y="484.10843373493975"/>
      <point x="152.31325301204822" y="421.1927710843373"/>
    </contour>
    <contour>
      <point x="234.60240963855424" y="468.289156626506" type="curve" smooth="yes"/>
      <point x="179.12048192771084" y="468.289156626506"/>
      <point x="140.72289156626508" y="508.6867469879518"/>
      <point x="140.72289156626508" y="565.9397590361446" type="curve" smooth="yes"/>
      <point x="140.72289156626508" y="623.1927710843373"/>
      <point x="179.12048192771084" y="663.5903614457832"/>
      <point x="234.60240963855424" y="663.5903614457832" type="curve" smooth="yes"/>
      <point x="289.85542168674704" y="663.5903614457832"/>
      <point x="327.48192771084337" y="623.1927710843373"/>
      <point x="327.48192771084337" y="565.9397590361446" type="curve" smooth="yes"/>
      <point x="327.48192771084337" y="508.6867469879518"/>
      <point x="289.85542168674704" y="468.289156626506"/>
    </contour>
  </outline>
</glyph>
<glyph name="plusminus" format="2">
  <advance width="600.0"/>
  <unicode hex="00B1"/>
  <outline>
    <contour>
      <point x="254.73493975903617" y="122.03614457831326" type="line"/>
      <point x="306.4096385542168" y="122.03614457831326" type="line"/>
      <point x="334.2650602409638" y="300.2530120481928" type="line"/>
      <point x="554.0843373493976" y="300.2530120481928" type="line"/>
      <point x="560.1445783132531" y="350.4698795180723" type="line"/>
      <point x="342.86746987951807" y="350.4698795180723" type="line"/>
      <point x="370.72289156626505" y="528.6867469879518" type="line"/>
      <point x="319.04819277108436" y="528.6867469879518" type="line"/>
      <point x="291.1927710843374" y="350.4698795180723" type="line"/>
      <point x="67.83132530120483" y="350.4698795180723" type="line"/>
      <point x="60.0" y="300.2530120481928" type="line"/>
      <point x="282.5903614457831" y="300.2530120481928" type="line"/>
    </contour>
    <contour>
      <point x="12.457831325301207" y="0.0" type="line"/>
      <point x="506.5421686746988" y="0.0" type="line"/>
      <point x="514.3734939759037" y="50.21686746987952" type="line"/>
      <point x="20.289156626506028" y="50.21686746987952" type="line"/>
    </contour>
  </outline>
</glyph>
<glyph name="micro" format="2">
  <advance width="565.4638554216867"/>
  <unicode hex="00B5"/>
  <outline>
    <contour>
      <point x="7.277108433734942" y="-216.0" type="line"/>
      <point x="68.50602409638554" y="-216.0" type="line"/>
      <point x="106.44578313253012" y="63.506024096385545" type="line"/>
      <point x="99.81927710843372" y="61.734939759036145" type="line"/>
      <point x="121.21686746987952" y="15.168674698795181"/>
      <point x="168.01204819277106" y="-8.457831325301205"/>
      <point x="230.43373493975903" y="-8.457831325301205" type="curve" smooth="yes"/>
      <point x="314.79518072289153" y="-8.457831325301205"/>
      <point x="379.53012048192767" y="39.71084337349397"/>
      <point x="410.6987951807229" y="116.65060240963855" type="curve"/>
      <point x="401.3012048192771" y="116.65060240963855" type="line"/>
      <point x="382.9879518072289" y="0.0" type="line"/>
      <point x="442.5301204819277" y="0.0" type="line"/>
      <point x="519.7590361445783" y="501.144578313253" type="line"/>
      <point x="458.7590361445783" y="501.144578313253" type="line"/>
      <point x="416.7590361445783" y="225.9156626506024" type="line" smooth="yes"/>
      <point x="399.90361445783134" y="116.01204819277109"/>
      <point x="337.2530120481928" y="44.27710843373494"/>
      <point x="233.72289156626508" y="44.27710843373494" type="curve" smooth="yes"/>
      <point x="152.67469879518072" y="44.27710843373494"/>
      <point x="117.10843373493977" y="91.8433734939759"/>
      <point x="132.96385542168676" y="195.6024096385542" type="curve" smooth="yes"/>
      <point x="179.73493975903614" y="501.144578313253" type="line"/>
      <point x="118.73493975903615" y="501.144578313253" type="line"/>
    </contour>
  </outline>
</glyph>
<glyph name="paragraph" format="2">
  <advance width="584.0783132530121"/>
  <unicode hex="00B6"/>
  <outline>
    <contour>
      <point x="180.3734939759036" y="-180.0" type="line"/>
      <point x="233.59036144578312" y="-180.0" type="line"/>
      <point x="365.7590361445783" y="654.8674698795181" type="line"/>
      <point x="501.49397590361446" y="654.8674698795181" type="line"/>
      <point x="369.32530120481925" y="-180.0" type="line"/>
      <point x="422.5421686746988" y="-180.0" type="line"/>
      <point x="562.5421686746988" y="705.0" type="line"/>
      <point x="315.06024096385545" y="705.0" type="line" smooth="yes"/>
      <point x="183.16867469879517" y="705.0"/>
      <point x="89.19277108433734" y="616.710843373494"/>
      <point x="89.19277108433734" y="487.13253012048193" type="curve" smooth="yes"/>
      <point x="89.19277108433734" y="394.69879518072287"/>
      <point x="153.48192771084337" y="322.4096385542169"/>
      <point x="259.5421686746988" y="322.4096385542169" type="curve"/>
    </contour>
  </outline>
</glyph>
<glyph name="periodcentered" format="2">
  <advance width="222.46987951807228"/>
  <unicode hex="00B7"/>
  <outline>
    <contour>
      <point x="64.96385542168676" y="230.67469879518072" type="line"/>
      <point x="151.2168674698795" y="230.67469879518072" type="line"/>
      <point x="164.50602409638554" y="316.4698795180723" type="line"/>
      <point x="78.48192771084338" y="316.4698795180723" type="line"/>
    </contour>
  </outline>
</glyph>
<glyph name="ordmasculine" format="2">
  <advance width="334.4096385542169"/>
  <unicode hex="00BA"/>
  <outline>
    <contour>
      <point x="197.66265060240966" y="412.0843373493976" type="curve" smooth="yes"/>
      <point x="278.78313253012044" y="412.0843373493976"/>
      <point x="342.0120481927711" y="464.2289156626506"/>
      <point x="356.7831325301205" y="557.3132530120482" type="curve" smooth="yes"/>
      <point x="372.7831325301205" y="658.5421686746988"/>
      <point x="319.4096385542168" y="713.4578313253012"/>
      <point x="234.74698795180723" y="713.4578313253012" type="curve" smooth="yes"/>
      <point x="153.85542168674698" y="713.4578313253012"/>
      <point x="89.62650602409639" y="661.5421686746988"/>
      <point x="75.62650602409639" y="568.4578313253012" type="curve" smooth="yes"/>
      <point x="60.626506024096386" y="468.2289156626506"/>
      <point x="113.2289156626506" y="412.0843373493976"/>
    </contour>
    <contour>
      <point x="200.12048192771084" y="450.4096385542169" type="curve" smooth="yes"/>
      <point x="140.01204819277106" y="450.4096385542169"/>
      <point x="109.8433734939759" y="489.89156626506025"/>
      <point x="121.3855421686747" y="563.0" type="curve" smooth="yes"/>
      <point x="132.6987951807229" y="636.1084337349398"/>
      <point x="175.95180722891564" y="675.3614457831326"/>
      <point x="232.51807228915663" y="675.3614457831326" type="curve" smooth="yes"/>
      <point x="292.3975903614458" y="675.3614457831326"/>
      <point x="322.56626506024094" y="635.8795180722891"/>
      <point x="311.2530120481928" y="563.0" type="curve" smooth="yes"/>
      <point x="299.71084337349396" y="490.12048192771084"/>
      <point x="256.4578313253012" y="450.4096385542169"/>
    </contour>
  </outline>
</glyph>
<glyph name="questiondown" format="2">
  <advance width="439.98192771084337"/>
  <unicode hex="00BF"/>
  <outline>
    <contour>
      <point x="148.20481927710844" y="-210.71084337349396" type="curve" smooth="yes"/>
      <point x="198.2650602409639" y="-210.71084337349396"/>
      <point x="252.9277108433735" y="-200.33734939759037"/>
      <point x="298.30120481927713" y="-177.96385542168676" type="curve"/>
      <point x="307.5903614457831" y="-118.00000000000001" type="line"/>
      <point x="262.4457831325301" y="-140.9156626506024"/>
      <point x="214.6144578313253" y="-155.06024096385542"/>
      <point x="160.8433734939759" y="-155.06024096385542" type="curve" smooth="yes"/>
      <point x="90.65060240963854" y="-155.06024096385542"/>
      <point x="48.855421686746986" y="-124.57831325301206"/>
      <point x="48.855421686746986" y="-71.92771084337349" type="curve" smooth="yes"/>
      <point x="48.855421686746986" y="-3.8795180722891565"/>
      <point x="103.04819277108433" y="56.31325301204819"/>
      <point x="149.21686746987953" y="100.02409638554217" type="curve" smooth="yes"/>
      <point x="236.86746987951807" y="183.75903614457832"/>
      <point x="264.7228915662651" y="236.9277108433735"/>
      <point x="275.7228915662651" y="305.6385542168675" type="curve" smooth="yes"/>
      <point x="279.4096385542169" y="328.6144578313253" type="line"/>
      <point x="238.87951807228916" y="328.6144578313253" type="line"/>
      <point x="233.19277108433735" y="306.8433734939759" type="line" smooth="yes"/>
      <point x="219.42168674698797" y="250.65060240963857"/>
      <point x="189.25301204819277" y="204.48192771084337"/>
      <point x="110.9397590361446" y="131.60240963855424" type="curve" smooth="yes"/>
      <point x="50.87951807228916" y="76.20481927710844"/>
      <point x="-14.831325301204817" y="8.578313253012048"/>
      <point x="-14.831325301204817" y="-81.27710843373494" type="curve" smooth="yes"/>
      <point x="-14.831325301204817" y="-160.10843373493975"/>
      <point x="48.144578313253014" y="-210.71084337349396"/>
    </contour>
    <contour>
      <point x="329.98795180722897" y="501.144578313253" type="line"/>
      <point x="244.50602409638554" y="501.144578313253" type="line"/>
      <point x="230.9879518072289" y="415.578313253012" type="line"/>
      <point x="316.46987951807233" y="415.578313253012" type="line"/>
    </contour>
  </outline>
</glyph>
<glyph name="AE" format="2">
  <advance width="1000.8072289156627"/>
  <unicode hex="00C6"/>
  <anchor x="475.91566265060237" y="0.0" name="bottom"/>
  <anchor x="587.144578313253" y="705.0" name="top"/>
  <outline>
    <contour>
      <point x="-33.78313253012048" y="0.0" type="line"/>
      <point x="40.04819277108434" y="0.0" type="line"/>
      <point x="195.9879518072289" y="204.710843373494" type="line"/>
      <point x="166.49397590361446" y="187.67469879518072" type="line"/>
      <point x="557.855421686747" y="187.67469879518072" type="line"/>
      <point x="533.855421686747" y="197.0843373493976" type="line"/>
      <point x="521.3975903614457" y="0.0" type="line"/>
      <point x="907.2409638554217" y="0.0" type="line"/>
      <point x="915.5301204819277" y="53.42168674698795" type="line"/>
      <point x="577.6506024096386" y="53.42168674698795" type="line"/>
      <point x="583.4819277108434" y="32.36144578313253" type="line"/>
      <point x="602.7951807228916" y="340.90361445783134" type="line"/>
      <point x="591.277108433735" y="330.90361445783134" type="line"/>
      <point x="938.8674698795181" y="330.90361445783134" type="line"/>
      <point x="947.156626506024" y="384.32530120481925" type="line"/>
      <point x="590.3975903614459" y="384.32530120481925" type="line"/>
      <point x="605.4819277108434" y="367.8313253012048" type="line"/>
      <point x="625.2530120481928" y="675.1204819277109" type="line"/>
      <point x="600.566265060241" y="651.8072289156627" type="line"/>
      <point x="1009.9518072289156" y="651.8072289156627" type="line"/>
      <point x="1019.2409638554217" y="705.0" type="line"/>
      <point x="504.4216867469879" y="705.0" type="line"/>
    </contour>
    <contour>
      <point x="531.289156626506" y="650.8072289156627" type="line"/>
      <point x="564.3132530120481" y="650.8072289156627" type="line"/>
      <point x="537.0843373493976" y="226.14457831325302" type="line"/>
      <point x="546.9156626506024" y="241.09638554216866" type="line"/>
      <point x="201.87951807228916" y="241.09638554216866" type="line"/>
      <point x="211.42168674698797" y="226.289156626506" type="line"/>
    </contour>
  </outline>
</glyph>
<glyph name="multiply" format="2">
  <advance width="600.0"/>
  <unicode hex="00D7"/>
  <outline>
    <contour>
      <point x="99.2409638554217" y="49.45783132530121" type="line"/>
      <point x="314.7710843373494" y="247.67469879518072" type="line"/>
      <point x="495.6746987951807" y="49.45783132530121" type="line"/>
      <point x="531.6867469879518" y="85.24096385542168" type="line"/>
      <point x="352.5542168674699" y="282.6867469879518" type="line"/>
      <point x="569.855421686747" y="482.4457831325301" type="line"/>
      <point x="534.5301204819277" y="518.4578313253012" type="line"/>
      <point x="319.0" y="320.2409638554217" type="line"/>
      <point x="138.0963855421687" y="518.4578313253012" type="line"/>
      <point x="101.855421686747" y="482.4457831325301" type="line"/>
      <point x="280.9879518072289" y="286.2289156626506" type="line"/>
      <point x="63.686746987951814" y="85.24096385542168" type="line"/>
    </contour>
  </outline>
</glyph>
<glyph name="Thorn" format="2">
  <advance width="644.6385542168674"/>
  <unicode hex="00DE"/>
  <anchor x="279.26506024096386" y="0.0" name="bottom"/>
  <anchor x="391.03614457831327" y="705.0" name="top"/>
  <outline>
    <contour>
      <point x="52.65060240963855" y="0.0" type="line"/>
      <point x="114.56626506024097" y="0.0" type="line"/>
      <point x="141.10843373493975" y="168.710843373494" type="line"/>
      <point x="362.7228915662651" y="168.710843373494" type="line" smooth="yes"/>
      <point x="499.7590361445783" y="168.710843373494"/>
      <point x="592.3012048192771" y="233.91566265060243"/>
      <point x="611.3012048192771" y="355.6867469879518" type="curve" smooth="yes"/>
      <point x="631.5301204819277" y="486.51807228915663"/>
      <point x="560.6144578313252" y="564.2650602409639"/>
      <point x="410.1807228915663" y="564.2650602409639" type="curve" smooth="yes"/>
      <point x="204.25301204819277" y="564.2650602409639" type="line"/>
      <point x="226.56626506024097" y="705.0" type="line"/>
      <point x="164.65060240963857" y="705.0" type="line"/>
    </contour>
    <contour>
      <point x="149.3975903614458" y="222.13253012048193" type="line"/>
      <point x="195.19277108433735" y="511.0722891566265" type="line"/>
      <point x="403.0602409638554" y="511.0722891566265" type="line" smooth="yes"/>
      <point x="513.9638554216867" y="511.0722891566265"/>
      <point x="564.843373493976" y="458.73493975903614"/>
      <point x="548.9879518072289" y="360.8313253012048" type="curve" smooth="yes"/>
      <point x="534.132530120482" y="267.9277108433735"/>
      <point x="468.3975903614458" y="222.13253012048193"/>
      <point x="356.95180722891564" y="222.13253012048193" type="curve" smooth="yes"/>
    </contour>
  </outline>
</glyph>
<glyph name="germandbls" format="2">
  <advance width="616.0542168674699"/>
  <unicode hex="00DF"/>
  <outline>
    <contour>
      <point x="43.421686746987945" y="0.0" type="line"/>
      <point x="104.42168674698794" y="0.0" type="line"/>
      <point x="184.73493975903614" y="506.96385542168673" type="line" smooth="yes"/>
      <point x="204.27710843373492" y="631.2168674698795"/>
      <point x="263.67469879518075" y="690.5542168674699"/>
      <point x="373.95180722891564" y="690.5542168674699" type="curve" smooth="yes"/>
      <point x="461.60240963855426" y="690.5542168674699"/>
      <point x="501.2289156626506" y="646.3855421686746"/>
      <point x="488.6867469879518" y="569.5060240963855" type="curve" smooth="yes"/>
      <point x="478.3734939759036" y="500.6265060240964"/>
      <point x="430.34939759036143" y="442.51807228915663"/>
      <point x="288.5301204819277" y="390.6385542168675" type="curve"/>
      <point x="280.4698795180723" y="339.5903614457831" type="line"/>
      <point x="472.5180722891566" y="286.10843373493975"/>
      <point x="516.289156626506" y="228.3975903614458"/>
      <point x="504.9759036144578" y="153.51807228915663" type="curve" smooth="yes"/>
      <point x="493.89156626506025" y="81.46987951807229"/>
      <point x="440.2409638554217" y="42.445783132530124"/>
      <point x="360.73493975903614" y="42.445783132530124" type="curve" smooth="yes"/>
      <point x="302.33734939759034" y="42.445783132530124"/>
      <point x="256.10843373493975" y="59.216867469879524"/>
      <point x="211.65060240963857" y="92.07228915662651" type="curve"/>
      <point x="187.9879518072289" y="46.626506024096386" type="line"/>
      <point x="225.04819277108433" y="13.855421686746988"/>
      <point x="286.13253012048193" y="-8.457831325301205"/>
      <point x="360.10843373493975" y="-8.457831325301205" type="curve" smooth="yes"/>
      <point x="472.2530120481927" y="-8.457831325301205"/>
      <point x="549.6867469879518" y="51.85542168674699"/>
      <point x="564.3734939759036" y="145.20481927710844" type="curve" smooth="yes"/>
      <point x="581.6024096385541" y="252.72289156626505"/>
      <point x="514.6265060240964" y="324.89156626506025"/>
      <point x="337.43373493975906" y="376.28915662650604" type="curve"/>
      <point x="337.7469879518072" y="362.31325301204816" type="line"/>
      <point x="478.83132530120486" y="414.6265060240964"/>
      <point x="533.0" y="487.71084337349396"/>
      <point x="545.5421686746988" y="568.1927710843373" type="curve" smooth="yes"/>
      <point x="563.2289156626506" y="679.3132530120482"/>
      <point x="495.5060240963855" y="740.9156626506024"/>
      <point x="377.2409638554217" y="740.9156626506024" type="curve" smooth="yes"/>
      <point x="231.6265060240964" y="740.9156626506024"/>
      <point x="148.19277108433735" y="661.710843373494"/>
      <point x="123.04819277108433" y="501.7590361445783" type="curve" smooth="yes"/>
    </contour>
  </outline>
</glyph>
<glyph name="ae" format="2">
  <advance width="885.8795180722891"/>
  <unicode hex="00E6"/>
  <anchor x="392.33734939759034" y="0.0" name="bottom"/>
  <anchor x="472.5421686746988" y="484.0" name="top"/>
  <outline>
    <contour>
      <point x="209.5421686746988" y="-8.457831325301205" type="curve" smooth="yes"/>
      <point x="315.48192771084337" y="-8.457831325301205"/>
      <point x="393.10843373493975" y="53.024096385542165"/>
      <point x="428.7951807228916" y="155.90361445783134" type="curve"/>
      <point x="409.27710843373495" y="155.90361445783134" type="line"/>
      <point x="425.93975903614455" y="51.02409638554217"/>
      <point x="497.31325301204816" y="-8.457831325301205"/>
      <point x="616.6265060240964" y="-8.457831325301205" type="curve" smooth="yes"/>
      <point x="685.5421686746988" y="-8.457831325301205"/>
      <point x="762.3975903614457" y="16.397590361445783"/>
      <point x="811.5421686746988" y="61.02409638554217" type="curve"/>
      <point x="786.5662650602409" y="105.69879518072288" type="line"/>
      <point x="737.0240963855422" y="60.674698795180724"/>
      <point x="679.0" y="43.59036144578313"/>
      <point x="621.0602409638553" y="43.59036144578313" type="curve" smooth="yes"/>
      <point x="502.2650602409638" y="43.59036144578313"/>
      <point x="445.46987951807233" y="116.46987951807229"/>
      <point x="463.5542168674699" y="248.2289156626506" type="curve" smooth="yes"/>
      <point x="466.24096385542174" y="267.34939759036143" type="line" smooth="yes"/>
      <point x="481.3253012048193" y="378.33734939759034"/>
      <point x="549.6024096385543" y="460.6144578313253"/>
      <point x="660.3614457831325" y="460.6144578313253" type="curve" smooth="yes"/>
      <point x="762.578313253012" y="460.6144578313253"/>
      <point x="806.6024096385543" y="394.421686746988"/>
      <point x="790.5180722891566" y="278.8313253012048" type="curve"/>
      <point x="807.7469879518072" y="292.51807228915663" type="line"/>
      <point x="455.0120481927711" y="292.51807228915663" type="line"/>
      <point x="448.09638554216866" y="248.10843373493975" type="line"/>
      <point x="838.1686746987953" y="248.10843373493975" type="line"/>
      <point x="842.3975903614459" y="276.2530120481928" type="line" smooth="yes"/>
      <point x="862.855421686747" y="415.08433734939763"/>
      <point x="795.2530120481928" y="509.6024096385542"/>
      <point x="664.5903614457832" y="509.6024096385542" type="curve" smooth="yes"/>
      <point x="572.3373493975903" y="509.6024096385542"/>
      <point x="491.54216867469876" y="460.7228915662651"/>
      <point x="446.710843373494" y="375.6144578313253" type="curve"/>
      <point x="468.83132530120486" y="375.6144578313253" type="line"/>
      <point x="467.93975903614455" y="460.26506024096386"/>
      <point x="419.7951807228916" y="509.6024096385542"/>
      <point x="311.79518072289153" y="509.6024096385542" type="curve" smooth="yes"/>
      <point x="238.79518072289156" y="509.6024096385542"/>
      <point x="164.59036144578312" y="487.8313253012048"/>
      <point x="107.36144578313254" y="449.9759036144579" type="curve"/>
      <point x="129.56626506024097" y="404.0722891566265" type="line"/>
      <point x="192.10843373493978" y="442.4698795180723"/>
      <point x="244.96385542168676" y="457.7831325301205"/>
      <point x="312.13253012048193" y="457.7831325301205" type="curve" smooth="yes"/>
      <point x="385.6144578313253" y="457.7831325301205"/>
      <point x="429.7831325301205" y="418.6144578313253"/>
      <point x="414.6987951807229" y="324.79518072289153" type="curve" smooth="yes"/>
      <point x="396.1566265060241" y="207.6265060240964" type="line" smooth="yes"/>
      <point x="380.30120481927713" y="108.49397590361446"/>
      <point x="312.1084337349398" y="40.75903614457831"/>
      <point x="217.289156626506" y="40.75903614457831" type="curve" smooth="yes"/>
      <point x="140.86746987951807" y="40.75903614457831"/>
      <point x="100.0722891566265" y="83.78313253012048"/>
      <point x="110.38554216867469" y="147.20481927710844" type="curve" smooth="yes"/>
      <point x="123.24096385542168" y="229.10843373493978"/>
      <point x="212.0" y="247.33734939759037"/>
      <point x="360.7831325301205" y="247.33734939759037" type="curve" smooth="yes"/>
      <point x="412.15662650602405" y="247.33734939759037" type="line"/>
      <point x="418.3012048192771" y="290.7469879518072" type="line"/>
      <point x="366.5301204819277" y="290.7469879518072" type="line" smooth="yes"/>
      <point x="183.0120481927711" y="290.7469879518072"/>
      <point x="68.81927710843374" y="262.45783132530124"/>
      <point x="50.277108433734945" y="154.20481927710844" type="curve" smooth="yes"/>
      <point x="34.506024096385545" y="61.89156626506024"/>
      <point x="97.59036144578313" y="-8.457831325301205"/>
    </contour>
  </outline>
</glyph>
<glyph name="eth" format="2">
  <advance width="565.7289156626506"/>
  <unicode hex="00F0"/>
  <outline>
    <contour>
      <point x="246.49397590361446" y="-8.457831325301205" type="curve" smooth="yes"/>
      <point x="393.6987951807229" y="-8.457831325301205"/>
      <point x="488.81927710843377" y="89.7710843373494"/>
      <point x="517.277108433735" y="267.8313253012048" type="curve" smooth="yes"/>
      <point x="540.5903614457832" y="416.2530120481928"/>
      <point x="511.50602409638554" y="549.0240963855422"/>
      <point x="427.04819277108436" y="640.4819277108434" type="curve"/>
      <point x="426.3614457831325" y="629.4216867469879" type="line"/>
      <point x="530.0481927710844" y="670.3373493975904" type="line"/>
      <point x="514.5301204819277" y="706.6024096385543" type="line"/>
      <point x="391.69879518072287" y="659.0" type="line"/>
      <point x="410.5301204819277" y="656.0" type="line"/>
      <point x="367.0120481927711" y="693.6024096385543"/>
      <point x="310.12048192771084" y="723.289156626506"/>
      <point x="240.16867469879517" y="741.9156626506024" type="curve"/>
      <point x="221.04819277108436" y="698.156626506024" type="line"/>
      <point x="272.3614457831325" y="683.3012048192771"/>
      <point x="317.3614457831325" y="660.2168674698795"/>
      <point x="353.5903614457831" y="631.1325301204819" type="curve"/>
      <point x="353.2771084337349" y="643.5903614457832" type="line"/>
      <point x="168.56626506024097" y="571.5903614457832" type="line"/>
      <point x="183.85542168674698" y="535.0963855421687" type="line"/>
      <point x="392.4578313253012" y="616.156626506024" type="line"/>
      <point x="372.1686746987952" y="616.9277108433735" type="line"/>
      <point x="453.96385542168673" y="538.3614457831326"/>
      <point x="482.421686746988" y="423.0843373493976"/>
      <point x="462.566265060241" y="298.72289156626505" type="curve"/>
      <point x="483.6265060240964" y="298.72289156626505" type="line"/>
      <point x="475.0240963855422" y="407.3734939759036"/>
      <point x="404.93975903614455" y="460.93975903614455"/>
      <point x="303.22891566265065" y="460.93975903614455" type="curve" smooth="yes"/>
      <point x="168.54216867469881" y="460.93975903614455"/>
      <point x="69.79518072289156" y="371.0"/>
      <point x="49.024096385542165" y="237.4578313253012" type="curve" smooth="yes"/>
      <point x="24.25301204819277" y="86.144578313253"/>
      <point x="104.6867469879518" y="-8.457831325301205"/>
    </contour>
    <contour>
      <point x="248.3253012048193" y="43.81927710843374" type="curve" smooth="yes"/>
      <point x="147.27710843373495" y="43.81927710843374"/>
      <point x="90.39759036144578" y="110.78313253012048"/>
      <point x="109.02409638554217" y="226.54216867469881" type="curve" smooth="yes"/>
      <point x="128.42168674698797" y="344.69879518072287"/>
      <point x="202.15662650602408" y="408.34939759036143"/>
      <point x="306.0602409638554" y="408.34939759036143" type="curve" smooth="yes"/>
      <point x="410.6506024096385" y="408.34939759036143"/>
      <point x="463.7590361445783" y="339.3855421686747"/>
      <point x="445.90361445783134" y="225.6265060240964" type="curve" smooth="yes"/>
      <point x="428.27710843373495" y="112.78313253012048"/>
      <point x="352.0" y="43.81927710843374"/>
    </contour>
  </outline>
</glyph>
<glyph name="divide" format="2">
  <advance width="600.0"/>
  <unicode hex="00F7"/>
  <outline>
    <contour>
      <point x="53.5421686746988" y="261.50602409638554" type="line"/>
      <point x="548.6265060240964" y="261.50602409638554" type="line"/>
      <point x="556.4578313253012" y="311.72289156626505" type="line"/>
      <point x="61.373493975903614" y="311.72289156626505" type="line"/>
    </contour>
    <contour>
      <point x="222.65060240963854" y="48.024096385542165" type="line"/>
      <point x="300.43373493975906" y="48.024096385542165" type="line"/>
      <point x="313.5783132530121" y="125.80722891566265" type="line"/>
      <point x="235.79518072289156" y="125.80722891566265" type="line"/>
    </contour>
    <contour>
      <point x="286.4216867469879" y="447.421686746988" type="line"/>
      <point x="364.2048192771084" y="447.421686746988" type="line"/>
      <point x="376.34939759036143" y="525.2048192771084" type="line"/>
      <point x="298.56626506024094" y="525.2048192771084" type="line"/>
    </contour>
  </outline>
</glyph>
